<svg width="52" height="36" viewBox="0 0 52 36" xmlns="http://www.w3.org/2000/svg"><title>Group 6</title><g fill="#000" fill-rule="evenodd"><path d="M1.375 6.938c3.11-6.29 10.52-8.75 16.55-5.51 6.03 3.25 8.4 10.97 5.29 17.26-.18.37-.38.71-.58 1.05l.05.03-7.98 16.11-1.44-.77 2.488-9.136c.11-.41-.256-.794-.668-.69-2.745.682-5.73.38-8.43-1.074-6.03-3.25-8.4-10.98-5.28-17.27M44.925 1.428c6.03 3.25 8.4 10.97 5.29 17.26-.18.37-.38.71-.58 1.05l-7.93 16.14-1.44-.77 2.488-9.136c.11-.41-.256-.794-.668-.69-2.745.682-5.73.38-8.43-1.074-6.03-3.25-8.4-10.98-5.28-17.27 3.11-6.29 10.52-8.75 16.55-5.51z"/></g></svg>