<svg width="82" height="67" viewBox="0 0 82 67" xmlns="http://www.w3.org/2000/svg" xmlns:xlink="http://www.w3.org/1999/xlink"><title>ca</title><defs><path id="a" d="M0 66.752h80.896V0H0z"/></defs><g transform="translate(.27)" fill="none" fill-rule="evenodd"><mask id="b" fill="#fff"><use xlink:href="#a"/></mask><path d="M43.92 52.46c.05 2.15.45 4.15 1.89 5.862.725.86 1.63 1.44 2.66 1.683 1.63.387 3.267.198 4.807-.52 1.83-.852 3.037-2.343 3.942-4.076.453-.87.732-1.835 1.05-2.77.286-.838.596-1.68.757-2.544.24-1.3.434-2.62.51-3.937.13-2.36.215-4.726.217-7.087.002-2.572-.117-5.143-.174-7.713-.01-.436.04-.873.02-1.308-.006-.14-.112-.33-.227-.392-.083-.045-.275.054-.39.133-.12.083-.207.216-.307.328-.49.53-.97 1.07-1.476 1.58-.64.64-1.303 1.253-1.952 1.882-1.666 1.61-3.305 3.254-5.004 4.833-2.134 1.98-3.864 4.258-5.05 6.912-.464 1.035-.827 2.148-1.015 3.262-.215 1.268-.183 2.577-.258 3.87zM35.11 16.455c-.054 0-.105 0-.158-.002-.056.158-.126.315-.165.477-.067.277-.09.567-.18.837-.358 1.07-.696 2.147-1.114 3.195-.463 1.16-1.245 2.135-2.123 3.003-1.055 1.04-2.426 1.417-3.856 1.562-1.272.128-2.474-.116-3.576-.81-1.33-.84-2.363-1.908-2.916-3.42-.44-1.196-.567-2.42-.534-3.68.06-2.316 1.12-4.012 3.128-5.13.155-.087.328-.154.502-.195 1.27-.303 2.572-.364 3.79.05.732.252 1.423.8 1.966 1.372.435.456.612 1.155.927 1.733.083.15.256.252.387.376.12-.153.275-.29.342-.464.056-.145.025-.33 0-.492-.08-.567-.135-1.14-.27-1.692-.187-.756-.344-1.54-.678-2.234-.882-1.834-2.142-3.31-4.094-4.13-1.032-.437-2.03-.877-3.178-.917-1.17-.04-2.34.013-3.438.385-1.57.53-3.01 1.272-4.29 2.417-1.605 1.438-2.393 3.225-2.775 5.234-.306 1.607-.467 3.244-.644 4.872-.226 2.066-.528 4.135-.574 6.208-.104 4.73-.083 9.463-.09 14.195-.007 3.647.05 7.287.606 10.91.382 2.49 1.025 4.86 2.436 6.966.603.898 1.296 1.73 2.27 2.285 1.408.8 2.877 1.233 4.525 1.156 1.29-.058 2.42-.512 3.447-1.19 1.197-.794 1.973-2.004 2.504-3.308.474-1.16.764-2.398 1.115-3.607.404-1.395.5-2.84.656-4.278.337-3.112.252-6.23.26-9.347.003-.498.154-.627.65-.616 1.475.034 2.95.067 4.427.047.837-.01.95.055.924.883-.022.707-.042 1.413-.04 2.12 0 .145.1.288.155.43.126-.09.254-.18.376-.276.033-.027.054-.072.073-.112.673-1.296 1.538-2.46 2.62-3.433 1.115-1.006 2.24-2.017 3.47-2.877 1.526-1.07 3.16-1.986 4.748-2.965 1.526-.94 3.042-1.896 4.585-2.808 2.004-1.186 3.886-2.484 5.355-4.352 1.13-1.435 2.065-2.93 2.648-4.67.83-2.476.85-4.93.072-7.413-.387-1.24-.974-2.387-1.835-3.34-1.52-1.685-3.416-2.774-5.666-3.203-2.586-.495-5.085-.14-7.466.903-2.492 1.093-4.04 3.09-4.88 5.632-.197.593-.15 1.277-.168 1.918-.004.128.198.26.306.393.112-.1.297-.184.328-.307.344-1.32 1.334-2.05 2.48-2.508 1.506-.606 3.057-.843 4.64-.077 1.015.49 1.828 1.166 2.39 2.11.898 1.5 1.045 3.15.832 4.853-.196 1.578-.814 2.94-2.036 3.997-.25.216-.453.488-.71.693-.372.3-.74.647-1.167.827-2.31.967-4.596.865-6.673-.556-1.017-.694-1.947-1.586-2.718-2.548-1.07-1.34-1.526-2.987-1.787-4.674-.02-.14-.088-.27-.135-.405l-.004.002zM18.536.105C20.08-.14 22.132.12 22.132.12c.967.218 1.96.35 2.898.648.984.31 1.978.676 2.855 1.206 1.035.62 2.027 1.366 2.898 2.202.947.91 1.848 1.912 2.56 3.01.867 1.332 1.467 2.825 1.682 4.437.025.19.174.36.266.54l.145-.04c.056-.165.112-.33.166-.495.245-.77.47-1.548.74-2.307.147-.406.34-.81.584-1.167.675-.99 1.294-2.043 2.108-2.907.9-.954 1.908-1.806 2.99-2.588 1.28-.924 2.69-1.457 4.14-1.917C47.068.455 48.04.307 49 .23c4.14-.325 8.94-.102 9.117-.056.712.183 1.434.333 2.15.51 2.253.557 4.22 1.655 5.915 3.23 1.23 1.143 2.337 2.394 3.123 3.89.793 1.506 1.564 3.042 1.755 4.757.173 1.585.288 3.185.29 4.778.006 9.57-.024 19.143-.05 28.714-.006 2.426-.068 4.853-.063 7.28.004 1.62-.177 3.255.228 4.855.318 1.255 1.166 2.142 2.652 1.958.12-.014.24-.024.36-.02.675.025 1.11-.354 1.507-.842.816-1.008.908-2.22.908-3.422.006-3.45-.05-6.902-.09-10.352-.003-.38.144-.544.54-.533 1.295.034 2.228.047 3.523.067V56.35c-.37.08.05.39.03.647-.202 2.51-.758 4.872-2.506 6.834-.883.99-1.94 1.654-3.153 2.063-.79.267-1.638.348-2.454.54-.212.052-.212.052-.98.143-1.265 0-2.175.144-3.545-.038l-.603-.16c-1.54-.036-2.882-.702-4.068-1.557-.943-.678-1.827-1.53-2.317-2.658-.46-1.057-.898-2.12-1.35-3.18-.05-.115-.137-.214-.207-.32-.117.122-.28.224-.342.37-.7 1.602-1.87 2.88-3.04 4.113-.786.83-1.847 1.422-2.838 2.034-1.107.685-2.322 1.127-3.64 1.24-.132.01-.248.217-.372.332h-4.432c-.182-.123-.348-.303-.55-.36-.982-.28-2.012-.43-2.956-.803-1.9-.75-3.602-1.828-5.06-3.295-1.476-1.485-2.29-3.25-2.543-5.303-.026-.194-.143-.378-.217-.567l-.14.02c-.057.117-.124.228-.172.348-.285.695-.566 1.393-.85 2.09-.652 1.6-1.65 2.996-2.853 4.19-1.125 1.12-2.453 2.058-3.992 2.566-1.008.334-2.066.52-3.1.773-.216.054-.516-.295-.544.065h-4.703c-.018-.367-.303-.038-.533-.055-2.05-.152-4.025-.623-5.84-1.575-1.657-.867-3.158-1.958-4.395-3.402-1.38-1.613-2.546-3.34-3.34-5.315-.72-1.784-1.476-3.548-1.802-5.466-.214-1.257-.582-2.492-.756-3.754-.256-1.875-.39-3.767-.6-5.65-.04-.34-.005-.672-.102-1.008 0-4.463.09-8.925.09-13.388.112-.328.018-.65.05-.986.095-.99.086-1.99.2-2.974.19-1.614.42-3.224.68-4.827.166-1.023.38-2.043.648-3.045.207-.768.555-1.496.803-2.254.802-2.454 1.972-4.716 3.64-6.685.804-.947 1.68-1.878 2.673-2.608 1.104-.81 2.24-1.627 3.597-2.03.648-.192 1.254-.553 1.91-.684C15.63.51 16.99.356 18.34.14l.196-.032z" fill="#000" mask="url(#b)"/></g></svg>