<svg width="116" height="35" viewBox="0 0 116 35" xmlns="http://www.w3.org/2000/svg" xmlns:xlink="http://www.w3.org/1999/xlink"><title>fwa</title><defs><path id="a" d="M0 17.177v17.178h115.623V0H0v17.177z"/></defs><g transform="translate(.27)" fill="none" fill-rule="evenodd"><mask id="b" fill="#fff"><use xlink:href="#a"/></mask><path d="M98.56 0H75.387c-1.683 0-3.325.56-4.656 1.58-.906.645-1.67 1.487-2.22 2.452l-.03.05-.026.053-3.206 5.945s-3.717-7.28-4.797-8.17c-1.392-1.2-3.16-1.858-5-1.858-1.138 0-2.283.26-3.31.756-1.994.96-3.097 2.715-4.037 4.784l-2.418 4.488-2.938-5.762c-.77-1.56-2.055-2.817-3.634-3.55C38.08.265 36.93 0 35.782 0H17.064c-1.272 0-2.534.32-3.65.927-2.465 1.34-3.997 3.915-3.997 6.72v1.998h-1.77C3.43 9.645 0 13.073 0 17.29c0 4.217 3.43 7.648 7.647 7.648h1.77v1.77c0 4.216 3.43 7.647 7.647 7.647 4.216 0 7.647-3.43 7.647-7.647v-1.77h6.793c1.47 0 2.844-.416 4.01-1.137l2.993 5.878c.15.335.324.662.522.974 1.382 2.27 3.872 3.674 6.536 3.674 1.138 0 2.283-.26 3.312-.756 1.865-.896 3.485-2.41 4.313-4.35l2.174-4.858 2.71 5.316c.15.333.323.66.52.97 1.378 2.272 3.87 3.677 6.535 3.677 1.136 0 2.28-.26 3.31-.756 1.748-.84 3.107-2.33 3.808-4.117 1.14 2.79 3.885 4.758 7.08 4.758l19.232.006c4.216 0 7.646-3.294 7.646-7.51V24.94h1.77c4.216 0 7.647-3.432 7.647-7.648 0-4.217-3.43-7.648-7.646-7.648h-1.77V7.646c0-2.805-1.532-5.38-3.998-6.72C101.09.32 99.83 0 98.56 0M81.722 24.055h14.324v-4.25H81.722v4.25M98.56 5.134c.43 0 .84.11 1.196.305.783.424 1.314 1.254 1.314 2.207v7.134h6.905c1.386 0 2.51 1.126 2.51 2.512 0 1.386-1.124 2.51-2.51 2.51h-6.905v6.77c0 1.386-1.125 2.51-2.51 2.51l-19.234-.007c-1.386 0-2.51-1.124-2.51-2.51v-9.39h.004c.06-1.33 1.158-2.394 2.506-2.394h16.722V10.16h-19.3l-9.16 16.997c-.147.752-.63 1.43-1.375 1.786-.35.17-.72.25-1.084.25-.873 0-1.712-.457-2.17-1.246-.093-.142-.172-.292-.235-.447l-7.233-14.2-7.32 13.883c-.315.744-.778 1.404-1.522 1.76-.35.17-.72.25-1.085.25-.87 0-1.71-.457-2.17-1.246-.092-.144-.17-.292-.233-.45L34.33 10.156H19.575v4.623h11.928c1.386 0 2.51 1.124 2.51 2.51 0 1.386-1.124 2.51-2.51 2.51H19.575v6.907c0 1.386-1.125 2.51-2.51 2.51-1.387 0-2.512-1.124-2.512-2.51V19.8H7.647c-1.386 0-2.51-1.124-2.51-2.51 0-1.386 1.124-2.51 2.51-2.51h6.906V7.646c0-.954.53-1.782 1.314-2.207.355-.194.763-.304 1.197-.304h18.72c.407 0 .79.1 1.13.27.525.234.973.648 1.24 1.206l7.405 14.534 7.427-13.88c.373-.76.58-1.443 1.382-1.83.348-.166.72-.247 1.083-.247.62 0 1.225.232 1.688.65.458.358.67.6.984 1.208l6.997 14.098 7.855-14.572c.204-.36.486-.648.808-.858.436-.36.994-.58 1.605-.58h23.17" fill="#000" mask="url(#b)"/></g></svg>