<svg width="46" height="86" viewBox="0 0 46 86" xmlns="http://www.w3.org/2000/svg" xmlns:xlink="http://www.w3.org/1999/xlink"><title>webby</title><defs><path id="a" d="M45.594 42.894V0H0v85.788h45.594z"/></defs><g transform="translate(.27)" fill="none" fill-rule="evenodd"><mask id="b" fill="#fff"><use xlink:href="#a"/></mask><path d="M0 25.535v7.096c30.408-1.635 40.68-3.752 0-7.095zm0 11.417v6.698c9.73-1.913 54.148-2.69 0-6.698zM0 0v21.588c32.436-1.098 32.595-2.934 15.774-5.165L18.8 12.75c20.767 3.186 19.45 8.406 4.536 11.02 4.998 1.758 22.71 5.015 1.296 11.454 3.486.946 23.136 5.81-1.296 10.156 3.872 1.75 24.41 4.257.864 10.59 6.098 1 21.764 4.34 1.082 11.02 7.82.82 8.703 1.09 10.804 4.755v14.043h9.508V0H0zm0 58.155v6.564l.432.107C39.842 61.19 28.53 59.865 0 58.155zm0-11.047v6.687c51.732-3.078 13.26-4.675 0-6.687z" fill="#000" mask="url(#b)"/></g></svg>