<svg width="173" height="21" viewBox="0 0 173 21" xmlns="http://www.w3.org/2000/svg" xmlns:xlink="http://www.w3.org/1999/xlink"><title>awwwards</title><defs><path id="a" d="M79.834 21V.405H.502V21z"/></defs><g fill="none" fill-rule="evenodd"><g transform="translate(92.27 -.404)"><mask id="b" fill="#fff"><use xlink:href="#a"/></mask><path d="M68.37 15.55s2.157 2.106 4.963 2.106c1.515 0 2.89-.783 2.89-2.408 0-3.57-9.398-2.952-9.398-9.063 0-3.316 2.862-5.78 6.677-5.78 3.927 0 5.945 2.13 5.945 2.13l-1.57 2.95s-1.914-1.74-4.41-1.74c-1.677 0-2.998.985-2.998 2.387 0 3.537 9.364 2.664 9.364 9.036 0 3.17-2.412 5.832-6.564 5.832-4.43 0-6.87-2.718-6.87-2.718l1.97-2.73v-.002zm-16.835 1.993c4.04 0 6.617-2.38 6.617-6.873 0-4.426-2.64-6.813-6.617-6.813h-2.977v13.686h2.977zM44.94.743h6.792c6.142 0 10.15 3.65 10.15 9.926 0 6.29-4.008 9.99-10.15 9.99H44.94V.74v.002zm-14.393 9.34c1.934 0 3.14-1.15 3.14-3.14 0-1.908-.812-3.087-3.645-3.087h-2.75v6.23l3.255-.003zM23.674.744h6.423c2.162 0 3.143.168 4.008.566 1.998.89 3.255 2.804 3.255 5.437 0 2.387-1.26 4.6-3.364 5.45v.055s.28.28.675.98l4.096 7.434h-4.038l-3.957-7.433H27.29v7.43h-3.615V.742zm-14.28 3.45s-.45 1.964-.84 3.086L6.79 12.603h5.213l-1.77-5.326C9.87 6.153 9.45 4.19 9.45 4.19h-.057v.002zm3.51 11.357h-6.99l-1.677 5.108H.502L7.517.738H11.3l7.017 19.92h-3.733l-1.68-5.108z" fill="#000" mask="url(#b)"/></g><path d="M86.823.337L83.54 14.12c-.254 1.123-.338 2.1-.338 2.1h-.06c-.024 0-.05-.954-.358-2.1L79.247.338h-3.14l-3.59 13.78c-.312 1.144-.337 2.1-.365 2.1h-.056s-.084-.98-.337-2.1L69.39 3.75l-1.764 7.524 2.253 8.98h4.177l3.057-11.778c.336-1.295.508-2.608.508-2.608h.057s.167 1.313.5 2.608l3.064 11.777h4.176L90.56.337H86.82zm-22.47 0L61.066 14.12c-.252 1.123-.337 2.1-.337 2.1h-.057c-.027 0-.055-.954-.365-2.1L56.774.338h-3.14l-3.588 13.78c-.313 1.144-.337 2.1-.366 2.1h-.056s-.088-.98-.333-2.1L46.938 3.8l-1.77 7.52 2.237 8.933h4.18l3.06-11.78c.337-1.292.506-2.61.506-2.61h.052s.17 1.318.507 2.61l3.062 11.78h4.176l5.14-19.92-3.736.006V.336zM37.836 14.116c.31 1.146.338 2.102.363 2.102h.06s.084-.984.332-2.102L41.877.333h3.73l-5.132 19.922h-4.18L33.238 8.473c-.34-1.29-.512-2.608-.512-2.608h-.053s-.17 1.317-.506 2.608l-3.06 11.78h-4.18L19.94.338h3.728L26.81 14.12c.255 1.12.338 2.098.338 2.098h.057c.032 0 .052-.954.366-2.1L31.16.34h3.136l3.54 13.78v-.002zM9.166 3.788s-.45 1.964-.844 3.087L6.558 12.2h5.217l-1.77-5.326C9.64 5.752 9.22 3.787 9.22 3.787h-.053zm3.505 11.358H5.688l-1.683 5.108H.272L7.286.337h3.79l7.01 19.917h-3.73l-1.684-5.108z" fill="#000"/></g></svg>