<svg data-name="Layer 1" xmlns="http://www.w3.org/2000/svg" width="236.88" height="222.39" viewBox="0 0 236.88 222.39"><title>client-logos-2017-</title><path d="M167.7 103.57a10 10 0 0 0-5.08 1.35V95.4a.45.45 0 0 0-.45-.45h-5.39a.45.45 0 0 0-.44.45v28.12a.45.45 0 0 0 .45.45h3.73a.44.44 0 0 0 .39-.24 8 8 0 0 0 .23-1.3 9.63 9.63 0 0 0 6.38 2.09c4.89 0 7.7-2.49 7.7-11.15s-4.48-9.8-7.52-9.8zm-2.1 15.84a6.39 6.39 0 0 1-3.1-.9v-8.9a7.05 7.05 0 0 1 2.75-.89c1.92-.18 3.77.4 3.77 5-.02 4.82-.83 5.77-3.42 5.69zm-12.47-15.21h-5.33a.44.44 0 0 0-.44.45v13.79a6.05 6.05 0 0 1-3.28 1c-1.92 0-2.43-.88-2.43-2.76v-12a.45.45 0 0 0-.45-.45h-5.41a.45.45 0 0 0-.44.45v12.93c0 5.59 3.11 7 7.4 7a12.48 12.48 0 0 0 6.35-1.94 11.56 11.56 0 0 0 .2 1.14.45.45 0 0 0 .39.25h3.44a.45.45 0 0 0 .45-.45v-18.96a.45.45 0 0 0-.45-.45zM132.27 95h-5.38a.45.45 0 0 0-.44.45v10.38h-8.38V95.4a.44.44 0 0 0-.44-.45h-5.37a.45.45 0 0 0-.45.45v28.12a.45.45 0 0 0 .45.45h5.37a.45.45 0 0 0 .44-.45v-12h8.38v12a.45.45 0 0 0 .44.45h5.39a.45.45 0 0 0 .44-.45V95.4a.45.45 0 0 0-.45-.4zm-23.47 24.31c-.23 0-.83.09-1.45.09-2 0-2.65-.92-2.65-2.11v-7.91h4a.45.45 0 0 0 .44-.45v-4.33a.44.44 0 0 0-.44-.44h-4v-5.33c0-.2-.1-.3-.34-.3h-5.5c-.21 0-.33.09-.33.3v5.5s-2.75.66-2.94.72a.44.44 0 0 0-.32.43v3.45a.45.45 0 0 0 .45.45h2.81v8.32c0 6.18 4.34 6.79 7.26 6.79A12 12 0 0 0 109 124a.41.41 0 0 0 .25-.4v-3.81a.45.45 0 0 0-.45-.48zM90.2 95.59a3.5 3.5 0 1 0 3.47 3.5 3.48 3.48 0 0 0-3.47-3.5zm2.64 8.57h-5.36a.51.51 0 0 0-.46.5v18.59c0 .55.34.71.78.71h4.83c.52 0 .65-.26.65-.72v-18.63a.44.44 0 0 0-.44-.45zM83.53 107H74a.45.45 0 0 0-.45.45v4.66a.45.45 0 0 0 .45.45h3.72v5.8a11.52 11.52 0 0 1-3.15.28c-2.72 0-6.53-1-6.53-9.37s4-9.48 7.69-9.48a15.15 15.15 0 0 1 5.49.84.45.45 0 0 0 .54-.44l1.06-4.5a.41.41 0 0 0-.17-.35c-.36-.26-2.55-1.48-8.08-1.48-6.37 0-12.9 2.71-12.9 15.74s7.48 15 13.78 15a15.54 15.54 0 0 0 8.39-2.23c.13-.07.14-.26.14-.34v-14.6a.44.44 0 0 0-.45-.43z"/></svg>