<svg data-name="Layer 1" xmlns="http://www.w3.org/2000/svg" width="236.88" height="222.39" viewBox="0 0 236.88 222.39"><title>client-logos-2017-</title><path d="M88.81 105.87H76v3.8h9.17a7.85 7.85 0 0 1-2 4.75 9.21 9.21 0 0 1-7 2.77 10 10 0 0 1 0-20.08 9.62 9.62 0 0 1 6.8 2.7l2.66-2.66a13.14 13.14 0 0 0-9.46-3.81 13.81 13.81 0 1 0 0 27.62 12.62 12.62 0 0 0 9.63-3.88 12.46 12.46 0 0 0 3.2-8.82 12.14 12.14 0 0 0-.19-2.39zm11.19-2.56a8.89 8.89 0 1 0 8.92 8.88 8.76 8.76 0 0 0-8.92-8.88zm0 14.27a5.4 5.4 0 1 1 5-5.39 5.14 5.14 0 0 1-5 5.39zm20.18-14.27a8.89 8.89 0 1 0 8.92 8.88 8.75 8.75 0 0 0-8.97-8.88zm0 14.27a5.4 5.4 0 1 1 5-5.39 5.14 5.14 0 0 1-5.05 5.39zm24.59-13.73v1.45h-.13a6.15 6.15 0 0 0-4.68-2 8.89 8.89 0 0 0 0 17.77 6.09 6.09 0 0 0 4.68-2h.13v1.28c0 3.39-1.81 5.21-4.74 5.21a4.92 4.92 0 0 1-4.48-3.16l-3.39 1.41a8.44 8.44 0 0 0 7.87 5.25c4.58 0 8.44-2.69 8.44-9.25v-15.96zm-4.47 13.73a5.4 5.4 0 0 1 0-10.77c2.66 0 4.74 2.29 4.74 5.42s-2.13 5.35-4.79 5.35zm11.89-22.64v26.14H156V94.94zm15.08 22.64a4.52 4.52 0 0 1-4.3-2.69l11.8-4.89-.38-1c-.74-2-3-5.65-7.6-5.65s-8.38 3.6-8.38 8.88a8.7 8.7 0 0 0 8.81 8.89 8.84 8.84 0 0 0 7.41-3.94l-3-2a5.08 5.08 0 0 1-4.41 2.4zm-.3-10.84a3.45 3.45 0 0 1 3.3 1.89l-7.94 3.29a4.87 4.87 0 0 1 4.59-5.18z"/></svg>