<svg data-name="Layer 1" xmlns="http://www.w3.org/2000/svg" width="236.88" height="222.39" viewBox="0 0 236.88 222.39"><title>client-logos-2017-</title><path d="M68.57 104.48h-7.34a1 1 0 0 0-1 1.05v7.33a1 1 0 0 0 1 1.05h7.34a1 1 0 0 0 1-1.05v-7.33a1 1 0 0 0-1-1.05zm0 0h-7.34a1 1 0 0 0-1 1.05v7.33a1 1 0 0 0 1 1.05h7.34a1 1 0 0 0 1-1.05v-7.33a1 1 0 0 0-1-1.05zm0 0h-7.34a1 1 0 0 0-1 1.05v7.33a1 1 0 0 0 1 1.05h7.34a1 1 0 0 0 1-1.05v-7.33a1 1 0 0 0-1-1.05zm0 0h-7.34a1 1 0 0 0-1 1.05v7.33a1 1 0 0 0 1 1.05h7.34a1 1 0 0 0 1-1.05v-7.33a1 1 0 0 0-1-1.05zm7.85-12.57H53.37a5.78 5.78 0 0 0-5.76 5.76v23a5.78 5.78 0 0 0 5.76 5.76h23.05a5.77 5.77 0 0 0 5.76-5.76v-23a5.77 5.77 0 0 0-5.76-5.76zm-.52 26.45a1.84 1.84 0 0 1-1.84 1.83H55.73a1.83 1.83 0 0 1-1.83-1.83V100a1.83 1.83 0 0 1 1.83-1.83h18.33A1.84 1.84 0 0 1 75.9 100zm-7.33-13.88h-7.34a1 1 0 0 0-1 1.05v7.33a1 1 0 0 0 1 1.05h7.34a1 1 0 0 0 1-1.05v-7.33a1 1 0 0 0-1-1.05zm0 0h-7.34a1 1 0 0 0-1 1.05v7.33a1 1 0 0 0 1 1.05h7.34a1 1 0 0 0 1-1.05v-7.33a1 1 0 0 0-1-1.05zm0 0h-7.34a1 1 0 0 0-1 1.05v7.33a1 1 0 0 0 1 1.05h7.34a1 1 0 0 0 1-1.05v-7.33a1 1 0 0 0-1-1.05zm29.29 2.94c-3.54-.82-4.19-1.93-4.19-3.83 0-2.07 2-3.82 4.42-3.82s4.44 1.71 4.44 3.8h2.08a5.58 5.58 0 0 0-2-4.21 6.91 6.91 0 0 0-4.56-1.66c-3.58 0-6.5 2.64-6.5 5.89a5.08 5.08 0 0 0 1.45 3.86 8.92 8.92 0 0 0 4.34 2c5 1.17 6.06 2.65 6.06 4.52 0 2.49-2.35 4.51-5.25 4.51a5.59 5.59 0 0 1-3.94-1.57 4.29 4.29 0 0 1-1.31-3.05h-2.05a6.41 6.41 0 0 0 1.92 4.52 7.67 7.67 0 0 0 5.41 2.18 7.75 7.75 0 0 0 5.15-1.89 6.28 6.28 0 0 0 2.18-4.71c.01-4.2-3.86-5.66-7.65-6.54zm24.77-3v2.75h-.06a7.12 7.12 0 0 0-6.11-3.15 8.23 8.23 0 1 0 0 16.45 7.17 7.17 0 0 0 6.11-3.12h.06v9.09h2v-22zm-6.17 14.25a6.43 6.43 0 0 1 0-12.85 6.43 6.43 0 0 1 0 12.85zm23.63-14.31v8.33a5.92 5.92 0 0 1-1.64 4.72 4.52 4.52 0 0 1-3.34 1.27c-3.6 0-4.78-2.39-4.78-5.65v-8.67h-2v8.71a8.1 8.1 0 0 0 1.38 5.07 6.8 6.8 0 0 0 5.42 2.36 5.38 5.38 0 0 0 5-2.83h.06v2.45h1.9v-15.75zm19.51.06v2.75h-.06a7 7 0 0 0-6.11-3.15 8.23 8.23 0 1 0 0 16.45 7.21 7.21 0 0 0 6.11-3.12h.06v2.75h2v-15.67zm-6.17 14.25a6.43 6.43 0 0 1 0-12.85 6.43 6.43 0 0 1 0 12.85zm14.24-12h-.05v-2.26h-2v15.68h2v-9.17a4.5 4.5 0 0 1 4.47-4.79V104c-2.09.17-3.56.69-4.42 2.69zm21.6 5.74A8.36 8.36 0 0 0 181 104a8.23 8.23 0 1 0 7.78 11h-2.12a5.93 5.93 0 0 1-5.62 3.7A6.22 6.22 0 0 1 175 113h14.28c-.04-.2-.01-.37-.01-.57zM175 111.19a6.18 6.18 0 0 1 12.25 0z"/></svg>