<svg id="Layer_1" data-name="Layer 1" xmlns="http://www.w3.org/2000/svg" width="236.88" height="222.39" viewBox="0 0 236.88 222.39"><defs><style>.cls-1{fill:#231f20;}.cls-2{fill:none;}</style></defs><title>client-logos-2017-</title><path class="cls-1" d="M146.88 102.15V104a4.17 4.17 0 0 1-1.51 3.62 4.3 4.3 0 0 1-2.77.89 4 4 0 0 1-2.64-.89 4.18 4.18 0 0 1-1.51-3.62v-1.61A4.66 4.66 0 0 1 140 98.5a3.75 3.75 0 0 1 2.64-.84 4.08 4.08 0 0 1 2.77.84 4.16 4.16 0 0 1 1.47 3.65z"/><path class="cls-1" d="M98.06 101.56c-2.79-.87-6.93-.3-10.19-2.17a4.54 4.54 0 0 0-2.14 3.86c0 3.74 4.79 5.08 8.38 5.08 3.22 0 6.42-.87 6.42-3.89a3 3 0 0 0-2.47-2.88zm-2.94-11.38c-3.89 0-5.44 1.37-5.44 3 0 1.37.72 2.23 4 2.64 1.81.24 4.84.27 7.18 1.19a3.68 3.68 0 0 0 1-2.58c0-1.7-1.36-4.25-6.74-4.25zm0 0c-3.89 0-5.44 1.37-5.44 3 0 1.37.72 2.23 4 2.64 1.81.24 4.84.27 7.18 1.19a3.68 3.68 0 0 0 1-2.58c0-1.7-1.36-4.25-6.74-4.25zm2.94 11.39c-2.79-.87-6.93-.3-10.19-2.17a4.54 4.54 0 0 0-2.14 3.86c0 3.74 4.79 5.08 8.38 5.08 3.22 0 6.42-.87 6.42-3.89a3 3 0 0 0-2.47-2.89zM96.83 118l-1.22 2.46H98zm1.23-16.47c-2.79-.87-6.93-.3-10.19-2.17a4.54 4.54 0 0 0-2.14 3.86c0 3.74 4.79 5.08 8.38 5.08 3.22 0 6.42-.87 6.42-3.89a3 3 0 0 0-2.47-2.85zm-2.94-11.35c-3.89 0-5.44 1.37-5.44 3 0 1.37.72 2.23 4 2.64 1.81.24 4.84.27 7.18 1.19a3.68 3.68 0 0 0 1-2.58c0-1.7-1.36-4.25-6.74-4.25zm0 0c-3.89 0-5.44 1.37-5.44 3 0 1.37.72 2.23 4 2.64 1.81.24 4.84.27 7.18 1.19a3.68 3.68 0 0 0 1-2.58c0-1.7-1.36-4.25-6.74-4.25zm2.94 11.39c-2.79-.87-6.93-.3-10.19-2.17a4.54 4.54 0 0 0-2.14 3.86c0 3.74 4.79 5.08 8.38 5.08 3.22 0 6.42-.87 6.42-3.89a3 3 0 0 0-2.47-2.89zM96.83 118l-1.22 2.46H98zm0 0l-1.22 2.46H98zm1.23-16.47c-2.79-.87-6.93-.3-10.19-2.17a4.54 4.54 0 0 0-2.14 3.86c0 3.74 4.79 5.08 8.38 5.08 3.22 0 6.42-.87 6.42-3.89a3 3 0 0 0-2.47-2.85zm-2.94-11.35c-3.89 0-5.44 1.37-5.44 3 0 1.37.72 2.23 4 2.64 1.81.24 4.84.27 7.18 1.19a3.68 3.68 0 0 0 1-2.58c0-1.7-1.36-4.25-6.74-4.25zm0 0c-3.89 0-5.44 1.37-5.44 3 0 1.37.72 2.23 4 2.64 1.81.24 4.84.27 7.18 1.19a3.68 3.68 0 0 0 1-2.58c0-1.7-1.36-4.25-6.74-4.25zm2.94 11.39c-2.79-.87-6.93-.3-10.19-2.17a4.54 4.54 0 0 0-2.14 3.86c0 3.74 4.79 5.08 8.38 5.08 3.22 0 6.42-.87 6.42-3.89a3 3 0 0 0-2.47-2.89zM96.83 118l-1.22 2.46H98zm0 0l-1.22 2.46H98zm1.23-16.47c-2.79-.87-6.93-.3-10.19-2.17a4.54 4.54 0 0 0-2.14 3.86c0 3.74 4.79 5.08 8.38 5.08 3.22 0 6.42-.87 6.42-3.89a3 3 0 0 0-2.47-2.85zm-2.94-11.35c-3.89 0-5.44 1.37-5.44 3 0 1.37.72 2.23 4 2.64 1.81.24 4.84.27 7.18 1.19a3.68 3.68 0 0 0 1-2.58c0-1.7-1.36-4.25-6.74-4.25zm0 0c-3.89 0-5.44 1.37-5.44 3 0 1.37.72 2.23 4 2.64 1.81.24 4.84.27 7.18 1.19a3.68 3.68 0 0 0 1-2.58c0-1.7-1.36-4.25-6.74-4.25zm2.94 11.39c-2.79-.87-6.93-.3-10.19-2.17a4.54 4.54 0 0 0-2.14 3.86c0 3.74 4.79 5.08 8.38 5.08 3.22 0 6.42-.87 6.42-3.89a3 3 0 0 0-2.47-2.89zM96.83 118l-1.22 2.46H98zm62.62-37.27l-36.57-12.16a7.58 7.58 0 1 1-9 .05L77.43 80.76v75.05h8v-21.36h66v21.37h8V80.77zm-71.62 43.34l-4-8.32h1.71l2.8 5.8 2.79-5.8h1.72l-4 8.32zm12 0l-1-2.07h-3.9l-1 2.07h-1.7l4.08-8.32h1.17l4.12 8.32zM94 109.87c-4.81 0-10.07-2.11-10.07-6.56a6.19 6.19 0 0 1 2.68-4.88 4.67 4.67 0 0 1-1.61-3.5c0-4.54 5.14-6.21 9.9-6.21 4.49 0 8.8 1.67 8.8 5.59a5.18 5.18 0 0 1-1.49 3.41s.1 0 .12.06a5.51 5.51 0 0 1 2.4 4.61c.02 5.38-5.45 7.48-10.73 7.48zm16 14.19h-6.6v-8.32h1.55v6.84h5zm8.69 0h-7v-8.32h6.67v1.48h-5.11v1.67h3.09v1.49h-3.09v2.19h5.43zm9.34 0h-.92l-4.6-5.28v5.28h-1.55v-8.33h.94l4.58 5.28v-5.28H128zm-17.55-18.16a6 6 0 0 1 4.84-2.2c3.8 0 5.44 1.19 9.9 1.19a2.5 2.5 0 0 0 2.58-2h.2a4.84 4.84 0 0 1 .48 2c0 4-3.53 5-5.35 5-3.79 0-8.14-2.19-10.93-2.19a3.54 3.54 0 0 0-3.13 2.31l-.8-.77c0-7.13 3.15-9.35 8.5-11 4.39-1.37 5.7-3 5.7-5.06 0-1.78-1.57-3.06-4.19-3.06a6.93 6.93 0 0 0-5.15 2 1.57 1.57 0 0 1 1.5 1.57c0 2.52-3.09 3.56-4.31 3.56-1 0-2.17-.47-2.17-1.87 0-3.12 5.2-6.62 11.32-6.62 4.2 0 9.17 1.81 9.17 5.08s-4 4.63-11.42 6c-4.22.74-6.18 3.09-6.89 6.07zm27.86 16.1a4.33 4.33 0 1 1-3.82-6.45 4.23 4.23 0 0 1 3.64 1.95l.15.24-1.31.94-.16-.31a2.54 2.54 0 0 0-2.32-1.31 2.85 2.85 0 0 0 0 5.69 2.73 2.73 0 0 0 2.52-1.61l.16-.3 1.26.93zm3.6 2.08h-1.57v-8.39h1.57zm-7-17.55c-2.38-2.38-3.23-4.45-3.23-7.1a9.49 9.49 0 0 1 3.29-7.18 11.83 11.83 0 0 1 8.59-3.54c5.74 0 8.86 2.82 8.86 5.06 0 1-.78 1.81-2.29 1.81-1.87 0-3.75-1.61-3.75-3a1.54 1.54 0 0 1 1.46-1.43 8.9 8.9 0 0 0-4.28-1.09 5 5 0 0 0-3.59 1.1 5.6 5.6 0 0 0-1.54 4.34v1.64a12 12 0 0 1 4.22-.83c6.35 0 10.39 3 10.39 6.35s-4 7.22-10.39 7.22a11.41 11.41 0 0 1-7.68-3.33zm16.45 17.52l-1-2.07h-3.9l-1 2.07h-1.7l4.08-8.32H149l4.13 8.32zm-4.2-3.58h2.43l-1.2-2.47zM95.12 90.18c-3.89 0-5.44 1.37-5.44 3 0 1.37.72 2.23 4 2.64 1.81.24 4.84.27 7.18 1.19a3.68 3.68 0 0 0 1-2.58c0-1.7-1.36-4.25-6.74-4.25zm2.94 11.39c-2.79-.87-6.93-.3-10.19-2.17a4.54 4.54 0 0 0-2.14 3.86c0 3.74 4.79 5.08 8.38 5.08 3.22 0 6.42-.87 6.42-3.89a3 3 0 0 0-2.47-2.89zm-2.45 18.93H98l-1.17-2.5zm1.22-2.5l-1.22 2.46H98zm1.23-16.47c-2.79-.87-6.93-.3-10.19-2.17a4.54 4.54 0 0 0-2.14 3.86c0 3.74 4.79 5.08 8.38 5.08 3.22 0 6.42-.87 6.42-3.89a3 3 0 0 0-2.47-2.85zm-2.94-11.35c-3.89 0-5.44 1.37-5.44 3 0 1.37.72 2.23 4 2.64 1.81.24 4.84.27 7.18 1.19a3.68 3.68 0 0 0 1-2.58c0-1.7-1.36-4.25-6.74-4.25zm0 0c-3.89 0-5.44 1.37-5.44 3 0 1.37.72 2.23 4 2.64 1.81.24 4.84.27 7.18 1.19a3.68 3.68 0 0 0 1-2.58c0-1.7-1.36-4.25-6.74-4.25zm2.94 11.39c-2.79-.87-6.93-.3-10.19-2.17a4.54 4.54 0 0 0-2.14 3.86c0 3.74 4.79 5.08 8.38 5.08 3.22 0 6.42-.87 6.42-3.89a3 3 0 0 0-2.47-2.89zM96.83 118l-1.22 2.46H98zm0 0l-1.22 2.46H98zm1.23-16.47c-2.79-.87-6.93-.3-10.19-2.17a4.54 4.54 0 0 0-2.14 3.86c0 3.74 4.79 5.08 8.38 5.08 3.22 0 6.42-.87 6.42-3.89a3 3 0 0 0-2.47-2.85zm-2.94-11.35c-3.89 0-5.44 1.37-5.44 3 0 1.37.72 2.23 4 2.64 1.81.24 4.84.27 7.18 1.19a3.68 3.68 0 0 0 1-2.58c0-1.7-1.36-4.25-6.74-4.25zm0 0c-3.89 0-5.44 1.37-5.44 3 0 1.37.72 2.23 4 2.64 1.81.24 4.84.27 7.18 1.19a3.68 3.68 0 0 0 1-2.58c0-1.7-1.36-4.25-6.74-4.25zm2.94 11.39c-2.79-.87-6.93-.3-10.19-2.17a4.54 4.54 0 0 0-2.14 3.86c0 3.74 4.79 5.08 8.38 5.08 3.22 0 6.42-.87 6.42-3.89a3 3 0 0 0-2.47-2.89zM96.83 118l-1.22 2.46H98zm0 0l-1.22 2.46H98zm1.23-16.47c-2.79-.87-6.93-.3-10.19-2.17a4.54 4.54 0 0 0-2.14 3.86c0 3.74 4.79 5.08 8.38 5.08 3.22 0 6.42-.87 6.42-3.89a3 3 0 0 0-2.47-2.85zm-2.94-11.35c-3.89 0-5.44 1.37-5.44 3 0 1.37.72 2.23 4 2.64 1.81.24 4.84.27 7.18 1.19a3.68 3.68 0 0 0 1-2.58c0-1.7-1.36-4.25-6.74-4.25zm0 0c-3.89 0-5.44 1.37-5.44 3 0 1.37.72 2.23 4 2.64 1.81.24 4.84.27 7.18 1.19a3.68 3.68 0 0 0 1-2.58c0-1.7-1.36-4.25-6.74-4.25zm2.94 11.39c-2.79-.87-6.93-.3-10.19-2.17a4.54 4.54 0 0 0-2.14 3.86c0 3.74 4.79 5.08 8.38 5.08 3.22 0 6.42-.87 6.42-3.89a3 3 0 0 0-2.47-2.89zM96.83 118l-1.22 2.46H98zm1.23-16.47c-2.79-.87-6.93-.3-10.19-2.17a4.54 4.54 0 0 0-2.14 3.86c0 3.74 4.79 5.08 8.38 5.08 3.22 0 6.42-.87 6.42-3.89a3 3 0 0 0-2.47-2.85zm-2.94-11.35c-3.89 0-5.44 1.37-5.44 3 0 1.37.72 2.23 4 2.64 1.81.24 4.84.27 7.18 1.19a3.68 3.68 0 0 0 1-2.58c0-1.7-1.36-4.25-6.74-4.25zm0 0c-3.89 0-5.44 1.37-5.44 3 0 1.37.72 2.23 4 2.64 1.81.24 4.84.27 7.18 1.19a3.68 3.68 0 0 0 1-2.58c0-1.7-1.36-4.25-6.74-4.25zm2.94 11.39c-2.79-.87-6.93-.3-10.19-2.17a4.54 4.54 0 0 0-2.14 3.86c0 3.74 4.79 5.08 8.38 5.08 3.22 0 6.42-.87 6.42-3.89a3 3 0 0 0-2.47-2.89z"/><path class="cls-2" d="M146.88 102.15V104a4.17 4.17 0 0 1-1.51 3.62 4.3 4.3 0 0 1-2.77.89 4 4 0 0 1-2.64-.89 4.18 4.18 0 0 1-1.51-3.62v-1.61A4.66 4.66 0 0 1 140 98.5a3.75 3.75 0 0 1 2.64-.84 4.08 4.08 0 0 1 2.77.84 4.16 4.16 0 0 1 1.47 3.65z"/><path class="cls-2" d="M98.06 101.56c-2.79-.87-6.93-.3-10.19-2.17a4.54 4.54 0 0 0-2.14 3.86c0 3.74 4.79 5.08 8.38 5.08 3.22 0 6.42-.87 6.42-3.89a3 3 0 0 0-2.47-2.88zm-2.94-11.38c-3.89 0-5.44 1.37-5.44 3 0 1.37.72 2.23 4 2.64 1.81.24 4.84.27 7.18 1.19a3.68 3.68 0 0 0 1-2.58c0-1.7-1.36-4.25-6.74-4.25zm0 0c-3.89 0-5.44 1.37-5.44 3 0 1.37.72 2.23 4 2.64 1.81.24 4.84.27 7.18 1.19a3.68 3.68 0 0 0 1-2.58c0-1.7-1.36-4.25-6.74-4.25zm2.94 11.39c-2.79-.87-6.93-.3-10.19-2.17a4.54 4.54 0 0 0-2.14 3.86c0 3.74 4.79 5.08 8.38 5.08 3.22 0 6.42-.87 6.42-3.89a3 3 0 0 0-2.47-2.89zM96.83 118l-1.22 2.46H98zm1.23-16.47c-2.79-.87-6.93-.3-10.19-2.17a4.54 4.54 0 0 0-2.14 3.86c0 3.74 4.79 5.08 8.38 5.08 3.22 0 6.42-.87 6.42-3.89a3 3 0 0 0-2.47-2.85zm-2.94-11.35c-3.89 0-5.44 1.37-5.44 3 0 1.37.72 2.23 4 2.64 1.81.24 4.84.27 7.18 1.19a3.68 3.68 0 0 0 1-2.58c0-1.7-1.36-4.25-6.74-4.25zM96.83 118l-1.22 2.46H98zm-1.71-27.82c-3.89 0-5.44 1.37-5.44 3 0 1.37.72 2.23 4 2.64 1.81.24 4.84.27 7.18 1.19a3.68 3.68 0 0 0 1-2.58c0-1.7-1.36-4.25-6.74-4.25zm2.94 11.39c-2.79-.87-6.93-.3-10.19-2.17a4.54 4.54 0 0 0-2.14 3.86c0 3.74 4.79 5.08 8.38 5.08 3.22 0 6.42-.87 6.42-3.89a3 3 0 0 0-2.47-2.89zM96.83 118l-1.22 2.46H98zm1.23-16.47c-2.79-.87-6.93-.3-10.19-2.17a4.54 4.54 0 0 0-2.14 3.86c0 3.74 4.79 5.08 8.38 5.08 3.22 0 6.42-.87 6.42-3.89a3 3 0 0 0-2.47-2.85zm-2.94-11.35c-3.89 0-5.44 1.37-5.44 3 0 1.37.72 2.23 4 2.64 1.81.24 4.84.27 7.18 1.19a3.68 3.68 0 0 0 1-2.58c0-1.7-1.36-4.25-6.74-4.25zM96.83 118l-1.22 2.46H98zm-1.71-27.82c-3.89 0-5.44 1.37-5.44 3 0 1.37.72 2.23 4 2.64 1.81.24 4.84.27 7.18 1.19a3.68 3.68 0 0 0 1-2.58c0-1.7-1.36-4.25-6.74-4.25zm2.94 11.39c-2.79-.87-6.93-.3-10.19-2.17a4.54 4.54 0 0 0-2.14 3.86c0 3.74 4.79 5.08 8.38 5.08 3.22 0 6.42-.87 6.42-3.89a3 3 0 0 0-2.47-2.89zm-20.65-33v87.25h82.06V68.57zm51.26 25.23c0 3.35-4 4.63-11.42 6-4.22.74-6.18 3.09-6.89 6.07l.12.06a6 6 0 0 1 4.84-2.2c3.8 0 5.44 1.19 9.9 1.19a2.5 2.5 0 0 0 2.58-2h.2a4.84 4.84 0 0 1 .48 2c0 4-3.53 5-5.35 5-3.79 0-8.14-2.19-10.93-2.19a3.54 3.54 0 0 0-3.13 2.31l-.8-.77c0-7.13 3.15-9.35 8.5-11 4.39-1.37 5.7-3 5.7-5.06 0-1.78-1.57-3.06-4.19-3.06a6.93 6.93 0 0 0-5.15 2 1.57 1.57 0 0 1 1.5 1.57c0 2.52-3.09 3.56-4.31 3.56-1 0-2.17-.47-2.17-1.87 0-3.12 5.2-6.62 11.32-6.62 4.23-.07 9.2 1.75 9.2 5.01zm-.67 21.95v8.33h-.92l-4.6-5.28v5.28h-1.55v-8.33h.94l4.58 5.28v-5.28zm-11.67 3.16v1.49h-3.09v2.19h5.43v1.49h-7v-8.32h6.67v1.48h-5.11v1.67zm-6.33 3.68v1.48h-6.6v-8.32h1.55v6.84zM85 94.93c0-4.54 5.14-6.21 9.9-6.21 4.49 0 8.8 1.67 8.8 5.59a5.18 5.18 0 0 1-1.49 3.41s.1 0 .12.06a5.51 5.51 0 0 1 2.4 4.61c0 5.37-5.47 7.48-10.79 7.48-4.81 0-10.07-2.11-10.07-6.56a6.19 6.19 0 0 1 2.68-4.88 4.67 4.67 0 0 1-1.55-3.5zm11.22 20.82h1.17l4.12 8.32h-1.69l-1-2.07h-3.9l-1 2.07h-1.7zm46.43-5.87a11.41 11.41 0 0 1-7.7-3.33c-2.38-2.38-3.23-4.45-3.23-7.1a9.49 9.49 0 0 1 3.28-7.2 11.83 11.83 0 0 1 8.59-3.54c5.74 0 8.86 2.82 8.86 5.06 0 1-.78 1.81-2.29 1.81-1.87 0-3.75-1.61-3.75-3a1.54 1.54 0 0 1 1.46-1.43 8.9 8.9 0 0 0-4.28-1.09 5 5 0 0 0-3.59 1.1 5.6 5.6 0 0 0-1.54 4.34v1.64a12 12 0 0 1 4.22-.83c6.35 0 10.39 3 10.39 6.35s-4.07 7.21-10.4 7.21zm-58.85 5.87h1.71l2.8 5.8 2.79-5.8h1.72l-4 8.32h-1zm9.83-20c1.81.24 4.84.27 7.18 1.19a3.68 3.68 0 0 0 1-2.58c0-1.66-1.37-4.22-6.74-4.22-3.89 0-5.44 1.37-5.44 3 .05 1.38.77 2.24 4.01 2.65zm.47 12.54c3.22 0 6.42-.87 6.42-3.89a3 3 0 0 0-2.47-2.88c-2.79-.87-6.93-.3-10.19-2.17a4.54 4.54 0 0 0-2.14 3.86c.01 3.79 4.8 5.12 8.39 5.12zm2.72 9.7l-1.22 2.46H98zm1.23-16.47c-2.79-.87-6.93-.3-10.19-2.17a4.54 4.54 0 0 0-2.14 3.86c0 3.74 4.79 5.08 8.38 5.08 3.22 0 6.42-.87 6.42-3.89a3 3 0 0 0-2.46-2.84zm-2.93-11.34c-3.89 0-5.44 1.37-5.44 3 0 1.37.72 2.23 4 2.64 1.81.24 4.84.27 7.18 1.19a3.68 3.68 0 0 0 1-2.58c0-1.7-1.36-4.25-6.74-4.25zM96.83 118l-1.22 2.46H98zm-1.71-27.82c-3.89 0-5.44 1.37-5.44 3 0 1.37.72 2.23 4 2.64 1.81.24 4.84.27 7.18 1.19a3.68 3.68 0 0 0 1-2.58c0-1.7-1.36-4.25-6.74-4.25zm2.94 11.39c-2.79-.87-6.93-.3-10.19-2.17a4.54 4.54 0 0 0-2.14 3.86c0 3.74 4.79 5.08 8.38 5.08 3.22 0 6.42-.87 6.42-3.89a3 3 0 0 0-2.47-2.89zM96.83 118l-1.22 2.46H98zm1.23-16.47c-2.79-.87-6.93-.3-10.19-2.17a4.54 4.54 0 0 0-2.14 3.86c0 3.74 4.79 5.08 8.38 5.08 3.22 0 6.42-.87 6.42-3.89a3 3 0 0 0-2.47-2.85zm-2.94-11.35c-3.89 0-5.44 1.37-5.44 3 0 1.37.72 2.23 4 2.64 1.81.24 4.84.27 7.18 1.19a3.68 3.68 0 0 0 1-2.58c0-1.7-1.36-4.25-6.74-4.25zm0 0c-3.89 0-5.44 1.37-5.44 3 0 1.37.72 2.23 4 2.64 1.81.24 4.84.27 7.18 1.19a3.68 3.68 0 0 0 1-2.58c0-1.7-1.36-4.25-6.74-4.25zm2.94 11.39c-2.79-.87-6.93-.3-10.19-2.17a4.54 4.54 0 0 0-2.14 3.86c0 3.74 4.79 5.08 8.38 5.08 3.22 0 6.42-.87 6.42-3.89a3 3 0 0 0-2.47-2.89z"/><path class="cls-2" d="M77.41 68.57h82.06v87.25H77.41z"/></svg>