<svg data-name="Layer 1" xmlns="http://www.w3.org/2000/svg" width="236.88" height="222.39" viewBox="0 0 236.88 222.39"><title>client-logos-2017-</title><path d="M60.59 104.06v-2.51c.28-2.37 4.2-1.92 4.2-1.92v-4.09a13.13 13.13 0 0 0-2.79-.29c-2.4 0-5.64.7-6.57 4.28a28.68 28.68 0 0 0-.22 4.49h-3.26v4.47h3.48v12.15h5.06v-12.11h3.88l.43-4.47zm15.85 0v2.12l-.17-.19-.12-.12a5.2 5.2 0 0 0-2.58-1.79 6.45 6.45 0 0 0-8.19 4.43 14.46 14.46 0 0 0-.3 6.76c.87 4.87 4.49 6.5 8.35 5.69a5 5 0 0 0 2.88-2 1.94 1.94 0 0 0 .16-.26v2.14h4.94v-16.76zM76 114.62a2.68 2.68 0 0 1-2.9 2.42 2.8 2.8 0 0 1-2.85-2.32 14.55 14.55 0 0 1 .11-4.74 2.66 2.66 0 0 1 2.89-2 2.63 2.63 0 0 1 2.75 2.37 20.32 20.32 0 0 1 0 4.27zm20.45 5c-.23-.84-.49-1.67-.75-2.46l-.24-.89s-6.19 3-7.15-2.68a12 12 0 0 1 .07-2.81 3 3 0 0 1 3-2.83 7.07 7.07 0 0 1 1.72.07c.77.13 1.52.36 2.36.57.29-.89.59-1.78.87-2.67 0-.13.08-.25.11-.36l.14-.54a.68.68 0 0 0-.23-.21 2.94 2.94 0 0 0-.77-.36l-.45-.15-.23-.07a12.87 12.87 0 0 0-5-.32 7.08 7.08 0 0 0-6.67 6 13.51 13.51 0 0 0 .06 5.52 6.74 6.74 0 0 0 5 5.33 12.27 12.27 0 0 0 5.39.26 17.06 17.06 0 0 0 2.63-.79l.3-.11zm16.31-5.29v-1.26a28.44 28.44 0 0 0-.17-3.46 6.18 6.18 0 0 0-5.43-5.61 13.56 13.56 0 0 0-3.6-.06c-3.27.31-5.74 2.34-6.25 5.4a19.38 19.38 0 0 0-.1 5.69 7.24 7.24 0 0 0 1.31 3.45 5.8 5.8 0 0 0 2.79 2c1.08.32 6.36 1.7 11-.63l-.19-.69c-.21-.91-.47-1.81-.71-2.72v-.09l-.27.09-.6.18h-.11a20.18 20.18 0 0 1-2.78.58 14.31 14.31 0 0 1-2.7 0 2.64 2.64 0 0 1-2.55-2.9h9.73zm-4.76-3.54h-5.72a3.09 3.09 0 0 1 1.19-2.84 3.16 3.16 0 0 1 3.36-.1c1.12.62 1.17 1.73 1.17 2.94zm22.86-2a6.18 6.18 0 0 0-5.8-4.94 5.57 5.57 0 0 0-5.19 2.15V95.21l-5.29.64v24.95h5.29v-1.48a10.07 10.07 0 0 0 2.22 1.42c3.08 1.1 7.15.2 8.57-3.93a13.74 13.74 0 0 0 .2-8.03zm-5 5.87a2.73 2.73 0 0 1-3.1 2.38 3.83 3.83 0 0 1-1.06-.23 3.36 3.36 0 0 1-1.3-1.33 4 4 0 0 1-.44-1.35c-.09-1.17-.18-3.62.39-4.77a2.73 2.73 0 0 1 2.46-1.41 2.69 2.69 0 0 1 3 2.36 15.46 15.46 0 0 1 .04 4.34zm23.29-4.92a7 7 0 0 0-5.33-5.58 10.59 10.59 0 0 0-5.53 0 6.65 6.65 0 0 0-5.18 5.24 17.32 17.32 0 0 0-.3 4.66 7.11 7.11 0 0 0 5.78 6.84h.14l.39.07h.13l.58.07a10.84 10.84 0 0 0 2.21 0h.12a7.25 7.25 0 0 0 7-5.78 12.75 12.75 0 0 0-.02-5.53zm-5.1 4.65c0 .11 0 .22-.07.33a2.77 2.77 0 0 1-3 2.33 2.8 2.8 0 0 1-2.9-2.65 20.38 20.38 0 0 1 0-3.58 3 3 0 0 1 5.92-.63 16 16 0 0 1 0 4.19zm40.89-10.12h-5.62l-4.87 7.62V95.23l-5.29.64v25h5.29v-7.64l4.87 7.65h5.62l-5.29-8.3zm-17.74 5.47a7 7 0 0 0-5.33-5.58 10.48 10.48 0 0 0-5.53 0 6.65 6.65 0 0 0-5.18 5.23 17.39 17.39 0 0 0-.3 4.67 7.11 7.11 0 0 0 5.78 6.84h.14l.39.07h.13l.57.07a10.28 10.28 0 0 0 2.22 0h.12a7.26 7.26 0 0 0 7-5.79 12.71 12.71 0 0 0-.02-5.52zm-5.11 4.65a1.8 1.8 0 0 1-.06.32 2.78 2.78 0 0 1-3 2.34 2.82 2.82 0 0 1-2.9-2.65 21.52 21.52 0 0 1 0-3.59 3 3 0 0 1 5.93-.62 15.93 15.93 0 0 1 .02 4.19z"/></svg>