<?xml version="1.0" encoding="utf-8"?>
<!-- Generator: Adobe Illustrator 25.2.1, SVG Export Plug-In . SVG Version: 6.00 Build 0)  -->
<svg version="1.1" id="Layer_1" xmlns="http://www.w3.org/2000/svg" xmlns:xlink="http://www.w3.org/1999/xlink" x="0px" y="0px"
	 viewBox="0 0 236.9 222.4" style="enable-background:new 0 0 236.9 222.4;" xml:space="preserve">
<style type="text/css">
	.st0{fill:#FFFFFF;}
</style>
<g id="art">
	<g>
		<circle class="st0" cx="119.3" cy="111.2" r="26.4"/>
		<g>
			<path d="M119.3,84.8c-14.6,0-26.4,11.8-26.4,26.4c0,11.2,7,20.8,16.8,24.6c-0.2-2.1-0.4-5.3,0.1-7.6c0.5-2,3.1-13.1,3.1-13.1
				s-0.8-1.6-0.8-3.9c0-3.7,2.1-6.4,4.8-6.4c2.3,0,3.4,1.7,3.4,3.7c0,2.3-1.4,5.7-2.2,8.8c-0.6,2.6,1.3,4.8,3.9,4.8
				c4.7,0,8.3-4.9,8.3-12.1c0-6.3-4.5-10.7-11-10.7c-7.5,0-11.9,5.7-11.9,11.4c0,2.3,0.8,4.7,1.9,6c0.2,0.2,0.2,0.5,0.2,0.8
				c-0.2,0.8-0.7,2.6-0.7,3c-0.1,0.5-0.4,0.6-0.9,0.4c-3.3-1.6-5.4-6.3-5.4-10.2c0-8.3,6-16,17.5-16c9.2,0,16.3,6.5,16.3,15.2
				c0,9.1-5.7,16.4-13.7,16.4c-2.6,0-5.2-1.4-6-3.1c0,0-1.3,5.1-1.6,6.3c-0.6,2.3-2.2,5.2-3.3,6.9c2.5,0.8,5.1,1.1,7.8,1.1
				c14.6,0,26.4-11.8,26.4-26.4C145.7,96.6,133.9,84.8,119.3,84.8z"/>
		</g>
	</g>
</g>
</svg>
