<svg id="Layer_1" data-name="Layer 1" xmlns="http://www.w3.org/2000/svg" width="236.88" height="222.39" viewBox="0 0 236.88 222.39"><title>client-logos-2017</title><path d="M122.09,105.9a4.74,4.74,0,0,0-1.77-2.57,5.56,5.56,0,0,0-3.21-.82,6,6,0,0,0-3.27.81,4.72,4.72,0,0,0-1.84,2.57,15.16,15.16,0,0,0-.59,4.67v2.62a16.89,16.89,0,0,0,.51,4.62,4.5,4.5,0,0,0,1.73,2.56,6,6,0,0,0,3.37.82,5.91,5.91,0,0,0,3.31-.81,4.51,4.51,0,0,0,1.76-2.56,15.93,15.93,0,0,0,.55-4.63v-2.62A15.94,15.94,0,0,0,122.09,105.9Zm-3.53,8.75a8.91,8.91,0,0,1-.34,2.88,1.21,1.21,0,0,1-1.19.88,1.19,1.19,0,0,1-1.18-.88,9.3,9.3,0,0,1-.32-2.88V109a8.55,8.55,0,0,1,.34-2.84,1.2,1.2,0,0,1,1.16-.9,1.22,1.22,0,0,1,1.19.9,8.8,8.8,0,0,1,.34,2.84Z"/><path d="M182.88,113.22v-3.09a17.33,17.33,0,0,0-.45-4.47,4.15,4.15,0,0,0-1.58-2.38,5.62,5.62,0,0,0-3.21-.76q-3,0-4.28,1.86t-1.25,5.93v3.15a11.09,11.09,0,0,0,1.2,5.82q1.21,1.88,4.2,1.88a5.59,5.59,0,0,0,3.86-1.23,4.78,4.78,0,0,0,1.37-3.74,4.14,4.14,0,0,0,0-.65l-3.5-.2a6.08,6.08,0,0,1-.37,2.35,1.25,1.25,0,0,1-1.25.71,1.21,1.21,0,0,1-1-.4,2.48,2.48,0,0,1-.43-1.26,25.31,25.31,0,0,1-.1-2.6v-.91Zm-6.79-3.71a25.81,25.81,0,0,1,.1-2.63,2.56,2.56,0,0,1,.41-1.25,1.41,1.41,0,0,1,1.91,0,2.53,2.53,0,0,1,.42,1.26,20.93,20.93,0,0,1,.12,2.63v1.3h-3Z"/><path d="M108.43,96.21l-1.68,7.58c-.47,2.22-.78,3.79-.92,4.73h-.11c-.2-1.31-.5-2.9-.92-4.76l-1.61-7.56h-4l4.62,16.67v8h4v-8l4.68-16.67Z"/><path d="M131.68,102.86v14.31a1.93,1.93,0,0,1-.72.82,1.76,1.76,0,0,1-1,.33.94.94,0,0,1-.89-.51,4.09,4.09,0,0,1-.27-1.72V102.86h-4v13.46a6.34,6.34,0,0,0,.85,3.67,3.05,3.05,0,0,0,2.64,1.17,4.15,4.15,0,0,0,3.88-2.5h.09l.35,2.21h3.18v-18Z"/><path d="M152.49,102.86v14.31a2,2,0,0,1-.72.82,1.77,1.77,0,0,1-1,.33.91.91,0,0,1-.88-.51,4.09,4.09,0,0,1-.27-1.72V102.86h-4.06v13.46a6.34,6.34,0,0,0,.85,3.67,3.07,3.07,0,0,0,2.65,1.17,4.15,4.15,0,0,0,3.88-2.5H153l.35,2.21h3.18v-18Z"/><path d="M134.74,96.21v3.26h4v21.4h4V99.47h4V96.21Z"/><path d="M170,105.74a4.67,4.67,0,0,0-1.19-2.46,3.2,3.2,0,0,0-2.27-.77,3.72,3.72,0,0,0-2.08.63,4.29,4.29,0,0,0-1.5,1.66h0V95.31H159v25.57h3.35l.41-1.7h.08a3.44,3.44,0,0,0,1.41,1.44,4.17,4.17,0,0,0,2.09.53,3.2,3.2,0,0,0,3-1.9,13.74,13.74,0,0,0,1-5.93v-2.85A24.17,24.17,0,0,0,170,105.74Zm-3.72,7.35a22.44,22.44,0,0,1-.16,3.09,3.43,3.43,0,0,1-.54,1.58,1.28,1.28,0,0,1-1,.47,1.9,1.9,0,0,1-.92-.23,1.82,1.82,0,0,1-.69-.71V107.06a2.5,2.5,0,0,1,.71-1.21,1.56,1.56,0,0,1,1.08-.47,1.1,1.1,0,0,1,1,.49,3.81,3.81,0,0,1,.47,1.63,29.23,29.23,0,0,1,.14,3.26Z"/><path d="M94.24,98.67A5.14,5.14,0,0,0,90.61,95c-3.21-.86-16.05-.86-16.05-.86s-12.85,0-16.05.86a5.14,5.14,0,0,0-3.64,3.64c-.86,3.21-.86,9.89-.86,9.89s0,6.69.86,9.89a5.14,5.14,0,0,0,3.64,3.64c3.21.86,16.05.86,16.05.86s12.85,0,16.05-.86a5.14,5.14,0,0,0,3.64-3.64c.86-3.21.86-9.89.86-9.89S95.11,101.87,94.24,98.67Zm-23.8,16.05V102.39l10.68,6.16Z"/></svg>