<svg data-name="Layer 1" xmlns="http://www.w3.org/2000/svg" width="236.88" height="222.39" viewBox="0 0 236.88 222.39"><title>client-logos-2017-</title><path d="M196.81 129.45a10.07 10.07 0 0 0-1.74-.28c.08-1.82.13-3.59.13-5.39 0-3.33-1.51-3.87-3.21-3.87a3.87 3.87 0 0 0-3.46 1.83h-.21v-1.57a3.58 3.58 0 0 0-1-.13 5.48 5.48 0 0 0-1.79.3 2.63 2.63 0 0 0-.39 1.14h1.57v7.63a8.18 8.18 0 0 0-1.37.41 2.89 2.89 0 0 0-.3 1h5.16a3.24 3.24 0 0 0 0-1 8 8 0 0 0-1.56-.28v-6.42a3.8 3.8 0 0 1 2.68-1.38c1.51 0 2 1 2 2.71v5a7.94 7.94 0 0 0-1.22.41 2.89 2.89 0 0 0-.3 1h5.09a2.29 2.29 0 0 0 0-.37 3.34 3.34 0 0 0-.08-.74zm-18.51-9.54c-2.79 0-4.9 2-4.9 5.31 0 3.7 1.76 5.63 4.9 5.63 3 0 4.88-2 4.88-5.63 0-3.42-1.95-5.31-4.88-5.31zm0 9.65c-1.82 0-2.94-1.72-2.94-4.34 0-2.43 1-4 2.94-4s2.93 1.74 2.93 4c0 2.66-.95 4.34-2.93 4.34zm-6-.11a10.62 10.62 0 0 0-1.69-.3v-9a4.41 4.41 0 0 0-1.12-.13 6.43 6.43 0 0 0-1.94.3 2.49 2.49 0 0 0-.38 1.14h1.57v7.63a8.31 8.31 0 0 0-1.38.41 2.89 2.89 0 0 0-.3 1h5.29a2.29 2.29 0 0 0 0-.37 2.7 2.7 0 0 0-.09-.68zm-6.79-.3a8.44 8.44 0 0 1-2 .28c-1.2 0-1.39-.6-1.39-2v-5.91h3.18a5.28 5.28 0 0 0-.07-1.24h-3.11v-3a3.86 3.86 0 0 0-1.44.34l-.37 2.37a6.75 6.75 0 0 0-1.25.38 3.64 3.64 0 0 0-.25 1.12h1.48c-.09 2.17-.11 4.95-.11 6.21 0 2.22.84 3.12 2.49 3.12a6.81 6.81 0 0 0 2.65-.58 1.89 1.89 0 0 0 .21-.84 1.58 1.58 0 0 0-.06-.25zM158 129a6.7 6.7 0 0 1-1.48.26 2 2 0 0 1-.28-1.12V124c0-2.94-1-4.08-3.38-4.08a8.75 8.75 0 0 0-3.5.75 2.43 2.43 0 0 0-.24 1.08 2 2 0 0 0 .11.73 6.79 6.79 0 0 1 3.14-1.06c1.35 0 2 .82 2 2.41V125a5.44 5.44 0 0 0-2-.36c-2.13 0-4 1.14-4 3.35a2.81 2.81 0 0 0 3.06 2.88 3.31 3.31 0 0 0 3-1.63h.1a2.3 2.3 0 0 0 .91 1.63 5.44 5.44 0 0 0 2.32-.62 2.27 2.27 0 0 0 .21-1 1.1 1.1 0 0 0 .03-.25zm-3.57-.71a2.69 2.69 0 0 1-2.17 1.06 1.73 1.73 0 0 1-2-1.72c0-1.14.94-1.89 2.62-1.89a6.84 6.84 0 0 1 1.5.17zm-7.43 1.16a10.07 10.07 0 0 0-1.74-.28c.09-1.76.13-3.56.13-5.39 0-3.33-1.48-3.87-3.16-3.87a3.75 3.75 0 0 0-3.46 2h-.11c-.41-1.59-1.55-2-2.86-2a3.81 3.81 0 0 0-3.4 1.83h-.21v-1.57a3.58 3.58 0 0 0-1-.13 5.53 5.53 0 0 0-1.79.3 2.49 2.49 0 0 0-.38 1.14h1.57v7.63a8.6 8.6 0 0 0-1.38.41 2.89 2.89 0 0 0-.3 1H134a3.56 3.56 0 0 0 0-1 8.07 8.07 0 0 0-1.57-.28v-6.42a3.7 3.7 0 0 1 2.62-1.38c1.48 0 2 1 2 2.71v5a7.71 7.71 0 0 0-1.23.41 2.89 2.89 0 0 0-.3 1h5a3.24 3.24 0 0 0 0-1 7.87 7.87 0 0 0-1.56-.3v-6.4a3.71 3.71 0 0 1 2.62-1.38c1.48 0 2 1 2 2.71v5a7.94 7.94 0 0 0-1.22.41 2.89 2.89 0 0 0-.3 1H147a1.54 1.54 0 0 0 0-.37 3.29 3.29 0 0 0 0-.78zm-19.67-9.37a3 3 0 0 0-1-.17 2.88 2.88 0 0 0-2.8 2.3h-.21v-2a3.58 3.58 0 0 0-1-.13 5.73 5.73 0 0 0-1.79.3 2.49 2.49 0 0 0-.38 1.14h1.57v7.63a8.31 8.31 0 0 0-1.38.41 2.89 2.89 0 0 0-.3 1h5.72a2.93 2.93 0 0 0 0-1 9.85 9.85 0 0 0-2.12-.39v-5.76a2.64 2.64 0 0 1 2.47-1.76 3 3 0 0 1 1.46.36 2.52 2.52 0 0 0 .06-.58 2.81 2.81 0 0 0-.35-1.35zm-8.84-54.8a17 17 0 1 0 17 17 17 17 0 0 0-17.05-17zm6.29 11.19a.91.91 0 0 1-.7.88l-3.89.92v8.09l3.89.92a.9.9 0 0 1 .7.88v1.6h-12.63v-1.6a.9.9 0 0 1 .7-.88l3.89-.92v-8.09l-3.89-.92a.91.91 0 0 1-.7-.88v-1.61h12.58zm-11.22 43.44c-2.8 0-4.9 2-4.9 5.31 0 3.7 1.76 5.63 4.9 5.63 3 0 4.88-2 4.88-5.63-.05-3.42-2.01-5.31-4.93-5.31zm0 9.65c-1.83 0-3-1.72-3-4.34 0-2.43 1-4 3-4s2.92 1.74 2.92 4c-.05 2.66-.99 4.34-2.97 4.34zm-4.88-11.78a6 6 0 0 0 .3-1.89 4.31 4.31 0 0 0-.06-.73 8.09 8.09 0 0 0-2.35-.37c-2 0-3.78 1.16-3.78 4.07V120a9.51 9.51 0 0 0-1.44.38 3.56 3.56 0 0 0-.26 1.12h1.7v7.59a8.61 8.61 0 0 0-1.38.41 3.14 3.14 0 0 0-.3 1h5.72a3.23 3.23 0 0 0 0-1 12.39 12.39 0 0 0-2.13-.39v-7.59h2.92a9.38 9.38 0 0 0-.1-1.24h-2.82v-1.64c0-2.21.92-2.79 2.06-2.79a1.54 1.54 0 0 1 .69.15v1.44a2.93 2.93 0 0 0 1.18.34zm-8.79 11.67a10.07 10.07 0 0 0-1.74-.28c.09-1.82.13-3.59.13-5.39 0-3.33-1.51-3.87-3.2-3.87a3.88 3.88 0 0 0-3.47 1.83h-.21v-1.57a3.53 3.53 0 0 0-1-.13 5.58 5.58 0 0 0-1.79.3 2.49 2.49 0 0 0-.38 1.14h1.57v7.63a8.61 8.61 0 0 0-1.38.41 2.89 2.89 0 0 0-.3 1h5.16a3.56 3.56 0 0 0 0-1 8.07 8.07 0 0 0-1.57-.28v-6.42a3.8 3.8 0 0 1 2.68-1.38c1.51 0 2 1 2 2.71v5a7.71 7.71 0 0 0-1.23.41 2.89 2.89 0 0 0-.3 1h5.09a1.54 1.54 0 0 0 0-.37 3.29 3.29 0 0 0-.11-.74zm-13.22-.15a17.69 17.69 0 0 0-1.91-.21v-12.15a13.66 13.66 0 0 0 1.76-.17 3.25 3.25 0 0 0 0-1.2H81.1a5 5 0 0 0 0 1.22 13.91 13.91 0 0 0 1.59.15v12.13a11.38 11.38 0 0 0-1.67.28 4.84 4.84 0 0 0-.26 1.14h5.89a2.17 2.17 0 0 0 0-.35 3.14 3.14 0 0 0-.03-.84zm-11.84-4.81c0-2.71-1.09-4.58-3.67-4.58-3 0-5 2.51-5 5.67 0 3 1.76 5.27 4.84 5.27a7.39 7.39 0 0 0 3.39-.88 2.2 2.2 0 0 0 .28-1.23 9.54 9.54 0 0 1-3 .61 3.44 3.44 0 0 1-3.5-3.72h6.58a11.33 11.33 0 0 0 .03-1.14zm-1.91-.11h-4.78c.13-2 1.12-3.29 2.64-3.29 1.81 0 2.22 1.81 2.09 3.29zm-8 5.07a10.2 10.2 0 0 0-1.75-.28c.09-1.8.13-3.59.13-5.39 0-3.33-1.52-3.87-3.24-3.87a3.49 3.49 0 0 0-3.38 1.83h-.21c.06-.88.1-1.81.1-2.69v-4.15a4.6 4.6 0 0 0-1.09-.13 6 6 0 0 0-1.94.3 2.57 2.57 0 0 0-.38 1.14h1.54v12.9a8.18 8.18 0 0 0-1.37.41 2.89 2.89 0 0 0-.3 1h5.16a3.24 3.24 0 0 0-.05-1 8.21 8.21 0 0 0-1.57-.28v-6.42a4 4 0 0 1 2.76-1.38c1.52 0 2.06 1 2.06 2.71v5a8.06 8.06 0 0 0-1.23.41 3.14 3.14 0 0 0-.3 1h5.1a2.29 2.29 0 0 0 0-.37 3.34 3.34 0 0 0-.08-.74zM40 115.57v3.27a6.63 6.63 0 0 0 1.29-.13c.08-.39.23-1.34.28-1.83h3.48v12.19a13.47 13.47 0 0 0-1.81.28 5.43 5.43 0 0 0-.28 1.14h6.19a3.41 3.41 0 0 0-.06-1.19c-.58-.1-1.4-.17-2.06-.21v-12.21h3.47a15.3 15.3 0 0 0 .28 1.89 5.82 5.82 0 0 0 1.31.15v-3.35zm129.67-.28a1.15 1.15 0 0 0-1.22 1.18 1.11 1.11 0 0 0 1.22 1.27 1.15 1.15 0 0 0 1.21-1.27 1.12 1.12 0 0 0-1.2-1.18z"/></svg>