<svg data-name="Layer 1" xmlns="http://www.w3.org/2000/svg" width="236.88" height="222.39" viewBox="0 0 236.88 222.39"><title>client-logos-2017-</title><path d="M141.13 82.75a.4.4 0 0 0 0-.15.6.6 0 0 0-.14-.21c-.42-.47-1-.93-1.42-1.39l-7.67-7.25a.87.87 0 0 0-.54-.19h-26a1 1 0 0 0-.6.25c-.57.5-1 1-1.57 1.5L96 82.23a1 1 0 0 0-.23.31.61.61 0 0 0-.06.19.86.86 0 0 0 0 .23v25.35a.65.65 0 0 0 0 .2 1 1 0 0 0 .28.5c2.47 2.47 4.92 4.94 7.39 7.39a.79.79 0 0 0 .56.23h6a2.21 2.21 0 0 0 .63-.13c.45-.18.9-.4 1.35-.59s.83-.46.88-.86a2.58 2.58 0 0 0 0-.65 9.82 9.82 0 0 1-1.2-.13 3.71 3.71 0 0 0-2.48.07.7.7 0 0 1-.65-.13.65.65 0 0 1-.09-.23.9.9 0 0 1 0-.43 4.09 4.09 0 0 1 1.87-2.24c1.07-.67 2.19-1.3 3.27-2a2.33 2.33 0 0 0 1.17-1.53.66.66 0 0 0 0-.28l-.3.09a4.37 4.37 0 0 1-2.95.79 5.74 5.74 0 0 1-.82-.09c-.25-.06-.57-.13-.67-.32a.2.2 0 0 1 0-.11 1.92 1.92 0 0 1 0-.24 2.79 2.79 0 0 1 .1-.43c0-.12.17-.22.26-.32a5.52 5.52 0 0 1 2.13-1.36 3 3 0 0 0 1.56-1.41 1.3 1.3 0 0 0 .08-.34H114a4.68 4.68 0 0 1-3 .77 2.5 2.5 0 0 0-2 1 1.82 1.82 0 0 1-.56.51c-.27.15-.61.18-.76-.14a2 2 0 0 1-.21-.68 2.26 2.26 0 0 1 0-.26c0-.34.09-.67.16-1s.13-.69.21-1a4.45 4.45 0 0 1 1.8-2.9c.69-.47 1.42-.9 2.13-1.33a6.62 6.62 0 0 0 2.23-2.11 1 1 0 0 0 .24-.51.65.65 0 0 0 0-.31.8.8 0 0 0 0-.15l-.21.1a4.44 4.44 0 0 1-3.36.89 3.21 3.21 0 0 0-1.62.23.77.77 0 0 1-.56 0 .83.83 0 0 1-.57-.69.81.81 0 0 1 0-.22v-.15a2.85 2.85 0 0 1 .56-.89 23.33 23.33 0 0 1 5.48-3.64 11.41 11.41 0 0 0 1.49-1c.09-.07.11-.23.15-.36a1.76 1.76 0 0 0-.41-.11 1.57 1.57 0 0 0-.47.13 4 4 0 0 1-2.54.11c-.37-.08-.58-.3-.57-.56a.28.28 0 0 0 0-.09.7.7 0 0 1 .21-.38 7.11 7.11 0 0 1 1.32-1.07c.43-.26.94-.39 1.38-.64a1.33 1.33 0 0 0 .55-.62v-.07a.13.13 0 0 0 0-.06c0-.14-.15-.22-.39-.16a2.71 2.71 0 0 1-.57 0 .8.8 0 0 1-.82-.36.42.42 0 0 1 0-.19.53.53 0 0 1 0-.28.68.68 0 0 1 .23-.43 5.3 5.3 0 0 1 2.1-1.65 1 1 0 0 0 .27-.22l-.05-.09a2 2 0 0 1-.49 0 .87.87 0 0 1-.75-.52.35.35 0 0 1 0-.13.25.25 0 0 1 0-.08.22.22 0 0 1 0-.14c0-.15.16-.26.31-.4s.51-.41.77-.61l1.11-.87c.09-.07.15-.12.17-.18a.14.14 0 0 0 0-.09.57.57 0 0 0-.17-.18 3.92 3.92 0 0 1-.58-.5 1 1 0 0 1-.22-.42.34.34 0 0 1 0-.1c0-.27.19-.48.59-.56a.79.79 0 0 0 .73-.6c.14-.59.29-1.17.45-1.76a.9.9 0 0 1 .08-.28.84.84 0 0 1 .15-.3 1.1 1.1 0 0 1 .62-.25c.07 0 .23.21.24.36.15.58.29 1.17.41 1.76a.29.29 0 0 0 0 .09.66.66 0 0 0 .63.49.94.94 0 0 1 .62.46.08.08 0 0 1 0 .05 1.35 1.35 0 0 1-.23.57c-.08.13-.26.23-.33.32a.7.7 0 0 0-.15.26c0 .09.15.09.3.17a.9.9 0 0 0 .45.08.64.64 0 0 1 .48.22.42.42 0 0 1 .11.22.55.55 0 0 1 0 .31.63.63 0 0 1-.21.37 3.35 3.35 0 0 1-.57.56.72.72 0 0 0-.17.2.15.15 0 0 0 0 .07.62.62 0 0 0 .18.25c.29.28.62.53.93.79a6.58 6.58 0 0 1 .68.61.72.72 0 0 1 .2.29.85.85 0 0 1 0 .17 1 1 0 0 1 0 .34.76.76 0 0 1-.46.53c-.17.1-.25.15-.25.2s.1.11.25.24a11 11 0 0 1 1.57 1.48 1 1 0 0 1 .2.42.81.81 0 0 1 0 .22c0 .3-.36.51-.81.51a4.37 4.37 0 0 1-.72-.06c-.2 0-.34 0-.34.17a.32.32 0 0 0 .06.17 1.67 1.67 0 0 0 .58.6c.55.27 1.05.44 1.55.71a6 6 0 0 1 1.4 1 .82.82 0 0 1 .28.48 1.1 1.1 0 0 1 0 .18.39.39 0 0 1 0 .15.82.82 0 0 1-.8.69 7.6 7.6 0 0 1-1.35 0 2.57 2.57 0 0 0-1.4.13 3.41 3.41 0 0 0 .6.31 12.59 12.59 0 0 1 3.78 2 1.16 1.16 0 0 0 .64.23h14.12a.71.71 0 0 0 0-.21V82.78l.05-.03zm-.18 27.92c-2.52-2.54-5-5.06-7.57-7.59a.62.62 0 0 0-.38-.2h-4.43a1.6 1.6 0 0 0 0 .31c.22.8.45 1.6.65 2.41.15.6-.15 1.18-.64 1.18a2.94 2.94 0 0 1-.93-.13c-.3-.09-.56-.29-.86-.39-.86-.32-1.73-.62-2.6-.93-.38-.14-.75-.31-1.14-.43a.7.7 0 0 0-.42.09c-.06 0 0 .23 0 .33a2.32 2.32 0 0 0 1 1.26c.42.24.85.45 1.29.65a6.52 6.52 0 0 1 2.34 1.67 1.26 1.26 0 0 1 .3.78.23.23 0 0 1 0 .11.71.71 0 0 1-.91.45 2.57 2.57 0 0 0-1.6 0 2.11 2.11 0 0 1-.9.08 13.43 13.43 0 0 1-1.37-.42l-.34-.1a.1.1 0 0 1-.05 0 3.07 3.07 0 0 0 .5.58 25 25 0 0 0 2.91 1.89 5.87 5.87 0 0 1 2.91 3 8.15 8.15 0 0 1 .47 1.74.49.49 0 0 1 0 .17.51.51 0 0 1-.59.41 1.32 1.32 0 0 1-.63-.22 2.24 2.24 0 0 0-1.71-.46 2.89 2.89 0 0 1-2-.71l-.25-.15c0 .86 0 1 .85 1.34s1.6.7 2.39 1.07a3.84 3.84 0 0 1 2.16 2.57c.13.49-.09.86-.59.86a7.51 7.51 0 0 1-3.13-.62c-.41-.18-.91-.51-1.27-.46s-.47.24-.29.55a2.94 2.94 0 0 0 1.74 1.35c.59.18 1.21.24 1.8.41 1.06.3 1.58 1.07.8 2.15l-.27.33c-.33.38-.33.58.07.92a2.6 2.6 0 0 0 .45.28 4.54 4.54 0 0 1 2 1.9 10.65 10.65 0 0 1 1.08 3.56c.08.93-.49 1.36-1.37 1a3.19 3.19 0 0 1-.58-.3c-.86-.53-1.71-1.09-2.58-1.62a4.57 4.57 0 0 0-2.36-.72c-.56 0-1 .08-1.56.08a3 3 0 0 1-2.09-.67 1.87 1.87 0 0 0-.34-.19v.16c0 2.61 0 5.22.07 7.83a4.45 4.45 0 0 0 2.46 3.93 7.93 7.93 0 0 1 1.72 1.37 5.65 5.65 0 0 0 4 1.73c.77.05 1.54 0 2.3 0a1 1 0 0 0 .63-.26c.48-.44 1-1 1.48-1.44q3.71-3.54 7.39-7.1a.83.83 0 0 0 .21-.54v-24.35a.78.78 0 0 0-.22-.5zM116 127.4v-.32c-.28.24-.51.41-.7.61a3.57 3.57 0 0 1-2.3 1.13 13.68 13.68 0 0 0-1.81.18 9.34 9.34 0 0 0-4.4 2.5.84.84 0 0 1-1.52-.31 2.92 2.92 0 0 1 0-1.44 17.84 17.84 0 0 1 1-2.73 4.43 4.43 0 0 1 1.89-1.67 1.4 1.4 0 0 0 .27-.21l-.05-.07h-12.6v10.6a.72.72 0 0 0 .22.41l5.83 5.68c1 1 2 1.92 3 2.86a1 1 0 0 0 .64.24h2.64a4.44 4.44 0 0 0 1.4-.26 5 5 0 0 0 2.48-2.34 11 11 0 0 1 2.46-2.9 3 3 0 0 0 1.26-2c.1-1.09.23-2.17.23-3.26.06-2.23.01-4.46.06-6.7zm26.39-45.1v13.59a.29.29 0 0 0 0-.1V82.35a.06.06 0 0 0-.03-.05zm-.07-.22a.49.49 0 0 0-.11-.14.54.54 0 0 1 .13.2zm-1.21-1.2c.36.36.74.7 1.1 1.06zm-7.7 22.2a.62.62 0 0 0-.38-.2h-4.43a1.6 1.6 0 0 0 0 .31c.22.8.45 1.6.65 2.41.15.6-.15 1.18-.64 1.18a2.94 2.94 0 0 1-.93-.13c-.3-.09-.56-.29-.86-.39-.86-.32-1.73-.62-2.6-.93-.38-.14-.75-.31-1.14-.43a.7.7 0 0 0-.42.09c-.06 0 0 .23 0 .33a2.32 2.32 0 0 0 1 1.26c.42.24.85.45 1.29.65a6.52 6.52 0 0 1 2.34 1.67 1.26 1.26 0 0 1 .3.78.23.23 0 0 1 0 .11.71.71 0 0 1-.91.45 2.57 2.57 0 0 0-1.6 0 2.11 2.11 0 0 1-.9.08 13.43 13.43 0 0 1-1.37-.42l-.34-.1a.1.1 0 0 1-.05 0 3.07 3.07 0 0 0 .5.58 25 25 0 0 0 2.91 1.89 5.87 5.87 0 0 1 2.91 3 8.15 8.15 0 0 1 .47 1.74.49.49 0 0 1 0 .17.51.51 0 0 1-.59.41 1.32 1.32 0 0 1-.63-.22 2.24 2.24 0 0 0-1.71-.46 2.89 2.89 0 0 1-2-.71l-.25-.15c0 .86 0 1 .85 1.34s1.6.7 2.39 1.07a3.84 3.84 0 0 1 2.16 2.57c.13.49-.09.86-.59.86a7.51 7.51 0 0 1-3.13-.62c-.41-.18-.91-.51-1.27-.46s-.47.24-.29.55a2.94 2.94 0 0 0 1.74 1.35c.59.18 1.21.24 1.8.41 1.06.3 1.58 1.07.8 2.15l-.27.33c-.33.38-.33.58.07.92a2.6 2.6 0 0 0 .45.28 4.54 4.54 0 0 1 2 1.9 10.65 10.65 0 0 1 1.08 3.56c.08.93-.49 1.36-1.37 1a3.19 3.19 0 0 1-.58-.3c-.86-.53-1.71-1.09-2.58-1.62a4.57 4.57 0 0 0-2.36-.72c-.56 0-1 .08-1.56.08a3 3 0 0 1-2.09-.67 1.87 1.87 0 0 0-.34-.19v.16c0 2.61 0 5.22.07 7.83a4.45 4.45 0 0 0 2.46 3.93 7.93 7.93 0 0 1 1.72 1.37 5.65 5.65 0 0 0 4 1.73c.77.05 1.54 0 2.3 0a1 1 0 0 0 .63-.26c.48-.44 1-1 1.48-1.44q3.71-3.54 7.39-7.1a.83.83 0 0 0 .21-.54v-24.35a.78.78 0 0 0-.19-.5c-2.58-2.54-5.1-5.06-7.63-7.59zm7.69-20.48a.6.6 0 0 0-.14-.21c-.42-.47-1-.93-1.42-1.39l-7.67-7.28a.87.87 0 0 0-.54-.19h-26a1 1 0 0 0-.6.25c-.57.5-1 1-1.57 1.5L96 82.2a.76.76 0 0 0-.23.34.61.61 0 0 0-.06.19.86.86 0 0 0 0 .23v25.35a.65.65 0 0 0 0 .2 1 1 0 0 0 .28.5c2.47 2.47 4.92 4.94 7.39 7.39a.79.79 0 0 0 .56.23h6a2.21 2.21 0 0 0 .63-.13c.45-.18.9-.4 1.35-.59s.83-.46.88-.86a2.58 2.58 0 0 0 0-.65 9.72 9.72 0 0 1-1.2-.13 3.71 3.71 0 0 0-2.48.07.7.7 0 0 1-.65-.13.72.72 0 0 1-.09-.2.9.9 0 0 1 0-.43 4.09 4.09 0 0 1 1.87-2.24c1.07-.67 2.19-1.3 3.27-2a2.33 2.33 0 0 0 1.17-1.53.66.66 0 0 0 0-.28l-.3.09a4.37 4.37 0 0 1-2.95.79 5.67 5.67 0 0 1-.82-.09c-.25-.06-.57-.13-.67-.32a.26.26 0 0 1 0-.08 1.92 1.92 0 0 1 0-.24 2.79 2.79 0 0 1 .1-.43c0-.12.17-.22.26-.32a5.52 5.52 0 0 1 2.13-1.36 3 3 0 0 0 1.56-1.47 1.3 1.3 0 0 0 .08-.34H114a4.68 4.68 0 0 1-3 .77 2.5 2.5 0 0 0-2 1 1.82 1.82 0 0 1-.56.51c-.27.15-.61.18-.76-.14a2.06 2.06 0 0 1-.21-.65 2.26 2.26 0 0 1 0-.26c0-.34.09-.67.16-1s.13-.69.21-1a4.45 4.45 0 0 1 1.8-2.9c.69-.47 1.42-.9 2.13-1.33a6.62 6.62 0 0 0 2.23-2.11 1 1 0 0 0 .24-.51.65.65 0 0 0 0-.31.4.4 0 0 0 0-.15l-.21.1a4.45 4.45 0 0 1-3.36.89 3.21 3.21 0 0 0-1.62.23.77.77 0 0 1-.56 0 .83.83 0 0 1-.57-.66.81.81 0 0 1 0-.22v-.15a2.85 2.85 0 0 1 .56-.89 23.33 23.33 0 0 1 5.48-3.64 11.41 11.41 0 0 0 1.49-1c.09-.07.11-.23.15-.36a1.83 1.83 0 0 0-.42-.11 1.56 1.56 0 0 0-.47.13 4 4 0 0 1-2.54.11c-.36-.08-.56-.28-.57-.53a.28.28 0 0 0 0-.09.7.7 0 0 1 .21-.38 7.11 7.11 0 0 1 1.32-1.07c.43-.26.94-.39 1.38-.64a1.33 1.33 0 0 0 .55-.62v-.07a.13.13 0 0 0 0-.06c0-.16-.14-.25-.39-.19a2.71 2.71 0 0 1-.57 0 .8.8 0 0 1-.82-.36.75.75 0 0 1 0-.16.53.53 0 0 1 0-.28.68.68 0 0 1 .23-.43 5.3 5.3 0 0 1 2.1-1.65 1 1 0 0 0 .27-.22l-.06-.11a2 2 0 0 1-.49 0 .87.87 0 0 1-.75-.52.38.38 0 0 1 0-.1.25.25 0 0 1 0-.08.22.22 0 0 1 0-.14c0-.15.16-.26.31-.4s.51-.41.77-.61l1.11-.87c.09-.07.15-.12.17-.18a.14.14 0 0 0 0-.09.35.35 0 0 0-.17-.21 3.93 3.93 0 0 1-.58-.5 1 1 0 0 1-.22-.39.34.34 0 0 1 0-.1c0-.27.19-.48.59-.56a.79.79 0 0 0 .73-.6c.14-.59.29-1.17.45-1.76a.9.9 0 0 1 .08-.28.84.84 0 0 1 .15-.3 1.1 1.1 0 0 1 .62-.25c.07 0 .23.21.24.36.15.58.29 1.17.41 1.76a.29.29 0 0 0 0 .09.66.66 0 0 0 .63.49.94.94 0 0 1 .62.46.08.08 0 0 1 0 .05 1.55 1.55 0 0 1-.23.54c-.08.13-.26.23-.33.32s-.16.2-.15.29c0 .09.15.09.3.17a.9.9 0 0 0 .45.08.64.64 0 0 1 .48.22.42.42 0 0 1 .11.22.55.55 0 0 1 0 .31.62.62 0 0 1-.21.34 3.37 3.37 0 0 1-.57.56c-.09.09-.16.16-.17.23a.15.15 0 0 0 0 .07.62.62 0 0 0 .18.25c.29.28.62.53.93.79a6.58 6.58 0 0 1 .68.61.72.72 0 0 1 .2.29.85.85 0 0 1 0 .17 1 1 0 0 1 0 .34.81.81 0 0 1-.46.5c-.2.12-.28.17-.25.23s.1.11.25.24a11 11 0 0 1 1.57 1.48 1 1 0 0 1 .2.42.81.81 0 0 1 0 .22.76.76 0 0 1-.81.48 4.37 4.37 0 0 1-.72-.06c-.21 0-.36.05-.34.2a.32.32 0 0 0 .06.17 1.67 1.67 0 0 0 .58.6c.55.27 1.05.44 1.55.71a6 6 0 0 1 1.4 1 .82.82 0 0 1 .28.48 1.1 1.1 0 0 1 0 .18.39.39 0 0 1 0 .15.81.81 0 0 1-.8.66 7.6 7.6 0 0 1-1.35 0 2.58 2.58 0 0 0-1.43.14 3.41 3.41 0 0 0 .6.31 12.59 12.59 0 0 1 3.78 2 1.16 1.16 0 0 0 .64.23h14.14a.74.74 0 0 0 0-.21V82.78a.4.4 0 0 0 .05-.18zm-8.62-10a.88.88 0 0 0-.56-.23H105a.91.91 0 0 0-.54.19l-7 6.7c-.9.87-1.79 1.75-2.7 2.6.91-.85 1.8-1.73 2.7-2.6l7-6.7a.91.91 0 0 1 .54-.19h26.92a.88.88 0 0 1 .56.23l7.52 7.23c.37.35.73.71 1.11 1L140 79.82zm-5.27 29c-.6-.35-1.17-.73-1.76-1.08a8 8 0 0 1-1.92-1.52 7.42 7.42 0 0 0 1.92 1.45c.59.35 1.16.73 1.76 1.08a.91.91 0 0 0 .43.08h5.63a.78.78 0 0 1 .6.24.78.78 0 0 0-.6-.24h-5.63a.92.92 0 0 1-.43-.05zm.87-5.66l.06.11a.37.37 0 0 1-.05-.11zM116 127.08c-.28.24-.51.41-.7.61a3.57 3.57 0 0 1-2.3 1.13 13.68 13.68 0 0 0-1.81.18 9.34 9.34 0 0 0-4.4 2.5.84.84 0 0 1-1.52-.31 2.92 2.92 0 0 1 0-1.44 17.84 17.84 0 0 1 1-2.73 4.43 4.43 0 0 1 1.89-1.67 1.4 1.4 0 0 0 .27-.21l-.05-.07h-12.6v10.6a.72.72 0 0 0 .22.41l5.83 5.68c1 1 2 1.92 3 2.86a1 1 0 0 0 .64.24h2.64a4.44 4.44 0 0 0 1.4-.26 5 5 0 0 0 2.48-2.34 11 11 0 0 1 2.46-2.9 3 3 0 0 0 1.26-2c.1-1.09.23-2.17.23-3.26.06-2.23 0-4.46 0-6.7zm-5.3-5.74a3.06 3.06 0 0 0 1.62-.94 3.2 3.2 0 0 1-1.62.93c-.58.14-1.17.21-1.73.39a1.56 1.56 0 0 0-.67.43 1.61 1.61 0 0 1 .67-.42c.53-.18 1.12-.25 1.7-.39zm-2 2.48c-.48 0-.86-.1-1.23-.1H95c-.28 0-.42 0-.48.08.07-.07.21-.07.48-.07h12.43c.37-.01.75.09 1.23.09zm32.47-41.07a.4.4 0 0 0 0-.15.6.6 0 0 0-.14-.21c-.42-.47-1-.93-1.42-1.39l-7.67-7.25a.87.87 0 0 0-.54-.19h-26a1 1 0 0 0-.6.25c-.57.5-1 1-1.57 1.5L96 82.23a1 1 0 0 0-.23.31.61.61 0 0 0-.06.19.86.86 0 0 0 0 .23v25.35a.65.65 0 0 0 0 .2 1 1 0 0 0 .28.5c2.47 2.47 4.92 4.94 7.39 7.39a.79.79 0 0 0 .56.23h6a2.21 2.21 0 0 0 .63-.13c.45-.18.9-.4 1.35-.59s.83-.46.88-.86a2.58 2.58 0 0 0 0-.65 9.82 9.82 0 0 1-1.2-.13 3.71 3.71 0 0 0-2.48.07.7.7 0 0 1-.65-.13.65.65 0 0 1-.09-.23.9.9 0 0 1 0-.43 4.09 4.09 0 0 1 1.87-2.24c1.07-.67 2.19-1.3 3.27-2a2.33 2.33 0 0 0 1.17-1.53.66.66 0 0 0 0-.28l-.3.09a4.37 4.37 0 0 1-2.95.79 5.74 5.74 0 0 1-.82-.09c-.25-.06-.57-.13-.67-.32a.2.2 0 0 1 0-.11 1.92 1.92 0 0 1 0-.24 2.79 2.79 0 0 1 .1-.43c0-.12.17-.22.26-.32a5.52 5.52 0 0 1 2.13-1.36 3 3 0 0 0 1.56-1.41 1.3 1.3 0 0 0 .08-.34H114a4.68 4.68 0 0 1-3 .77 2.5 2.5 0 0 0-2 1 1.82 1.82 0 0 1-.56.51c-.27.15-.61.18-.76-.14a2 2 0 0 1-.21-.68 2.26 2.26 0 0 1 0-.26c0-.34.09-.67.16-1s.13-.69.21-1a4.45 4.45 0 0 1 1.8-2.9c.69-.47 1.42-.9 2.13-1.33a6.62 6.62 0 0 0 2.23-2.11 1 1 0 0 0 .24-.51.65.65 0 0 0 0-.31.8.8 0 0 0 0-.15l-.21.1a4.44 4.44 0 0 1-3.36.89 3.21 3.21 0 0 0-1.62.23.77.77 0 0 1-.56 0 .83.83 0 0 1-.57-.69.81.81 0 0 1 0-.22v-.15a2.85 2.85 0 0 1 .56-.89 23.33 23.33 0 0 1 5.48-3.64 11.41 11.41 0 0 0 1.49-1c.09-.07.11-.23.15-.36a1.76 1.76 0 0 0-.41-.11 1.57 1.57 0 0 0-.47.13 4 4 0 0 1-2.54.11c-.37-.08-.58-.3-.57-.56a.28.28 0 0 0 0-.09.7.7 0 0 1 .21-.38 7.11 7.11 0 0 1 1.32-1.07c.43-.26.94-.39 1.38-.64a1.33 1.33 0 0 0 .55-.62v-.07a.13.13 0 0 0 0-.06c0-.14-.15-.22-.39-.16a2.71 2.71 0 0 1-.57 0 .8.8 0 0 1-.82-.36.42.42 0 0 1 0-.19.53.53 0 0 1 0-.28.68.68 0 0 1 .23-.43 5.3 5.3 0 0 1 2.1-1.65 1 1 0 0 0 .27-.22l-.05-.09a2 2 0 0 1-.49 0 .87.87 0 0 1-.75-.52.35.35 0 0 1 0-.13.25.25 0 0 1 0-.08.22.22 0 0 1 0-.14c0-.15.16-.26.31-.4s.51-.41.77-.61l1.11-.87c.09-.07.15-.12.17-.18a.14.14 0 0 0 0-.09.57.57 0 0 0-.17-.18 3.92 3.92 0 0 1-.58-.5 1 1 0 0 1-.22-.42.34.34 0 0 1 0-.1c0-.27.19-.48.59-.56a.79.79 0 0 0 .73-.6c.14-.59.29-1.17.45-1.76a.9.9 0 0 1 .08-.28.84.84 0 0 1 .15-.3 1.1 1.1 0 0 1 .62-.25c.07 0 .23.21.24.36.15.58.29 1.17.41 1.76a.29.29 0 0 0 0 .09.66.66 0 0 0 .63.49.94.94 0 0 1 .62.46.08.08 0 0 1 0 .05 1.35 1.35 0 0 1-.23.57c-.08.13-.26.23-.33.32a.7.7 0 0 0-.15.26c0 .09.15.09.3.17a.9.9 0 0 0 .45.08.64.64 0 0 1 .48.22.42.42 0 0 1 .11.22.55.55 0 0 1 0 .31.63.63 0 0 1-.21.37 3.35 3.35 0 0 1-.57.56.72.72 0 0 0-.17.2.15.15 0 0 0 0 .07.62.62 0 0 0 .18.25c.29.28.62.53.93.79a6.58 6.58 0 0 1 .68.61.72.72 0 0 1 .2.29.85.85 0 0 1 0 .17 1 1 0 0 1 0 .34.76.76 0 0 1-.46.53c-.17.1-.25.15-.25.2s.1.11.25.24a11 11 0 0 1 1.57 1.48 1 1 0 0 1 .2.42.81.81 0 0 1 0 .22c0 .3-.36.51-.81.51a4.37 4.37 0 0 1-.72-.06c-.2 0-.34 0-.34.17a.32.32 0 0 0 .06.17 1.67 1.67 0 0 0 .58.6c.55.27 1.05.44 1.55.71a6 6 0 0 1 1.4 1 .82.82 0 0 1 .28.48 1.1 1.1 0 0 1 0 .18.39.39 0 0 1 0 .15.82.82 0 0 1-.8.69 7.6 7.6 0 0 1-1.35 0 2.57 2.57 0 0 0-1.4.13 3.41 3.41 0 0 0 .6.31 12.59 12.59 0 0 1 3.78 2 1.16 1.16 0 0 0 .64.23h14.12a.71.71 0 0 0 0-.21V82.78l.05-.03zm-.18 27.92c-2.52-2.54-5-5.06-7.57-7.59a.62.62 0 0 0-.38-.2h-4.43a1.6 1.6 0 0 0 0 .31c.22.8.45 1.6.65 2.41.15.6-.15 1.18-.64 1.18a2.94 2.94 0 0 1-.93-.13c-.3-.09-.56-.29-.86-.39-.86-.32-1.73-.62-2.6-.93-.38-.14-.75-.31-1.14-.43a.7.7 0 0 0-.42.09c-.06 0 0 .23 0 .33a2.32 2.32 0 0 0 1 1.26c.42.24.85.45 1.29.65a6.52 6.52 0 0 1 2.34 1.67 1.26 1.26 0 0 1 .3.78.23.23 0 0 1 0 .11.71.71 0 0 1-.91.45 2.57 2.57 0 0 0-1.6 0 2.11 2.11 0 0 1-.9.08 13.43 13.43 0 0 1-1.37-.42l-.34-.1a.1.1 0 0 1-.05 0 3.07 3.07 0 0 0 .5.58 25 25 0 0 0 2.91 1.89 5.87 5.87 0 0 1 2.91 3 8.15 8.15 0 0 1 .47 1.74.49.49 0 0 1 0 .17.51.51 0 0 1-.59.41 1.32 1.32 0 0 1-.63-.22 2.24 2.24 0 0 0-1.71-.46 2.89 2.89 0 0 1-2-.71l-.25-.15c0 .86 0 1 .85 1.34s1.6.7 2.39 1.07a3.84 3.84 0 0 1 2.16 2.57c.13.49-.09.86-.59.86a7.51 7.51 0 0 1-3.13-.62c-.41-.18-.91-.51-1.27-.46s-.47.24-.29.55a2.94 2.94 0 0 0 1.74 1.35c.59.18 1.21.24 1.8.41 1.06.3 1.58 1.07.8 2.15l-.27.33c-.33.38-.33.58.07.92a2.6 2.6 0 0 0 .45.28 4.54 4.54 0 0 1 2 1.9 10.65 10.65 0 0 1 1.08 3.56c.08.93-.49 1.36-1.37 1a3.19 3.19 0 0 1-.58-.3c-.86-.53-1.71-1.09-2.58-1.62a4.57 4.57 0 0 0-2.36-.72c-.56 0-1 .08-1.56.08a3 3 0 0 1-2.09-.67 1.87 1.87 0 0 0-.34-.19v.16c0 2.61 0 5.22.07 7.83a4.45 4.45 0 0 0 2.46 3.93 7.93 7.93 0 0 1 1.72 1.37 5.65 5.65 0 0 0 4 1.73c.77.05 1.54 0 2.3 0a1 1 0 0 0 .63-.26c.48-.44 1-1 1.48-1.44q3.71-3.54 7.39-7.1a.83.83 0 0 0 .21-.54v-24.35a.78.78 0 0 0-.26-.5zM116 127.4v-.32c-.28.24-.51.41-.7.61a3.57 3.57 0 0 1-2.3 1.13 13.68 13.68 0 0 0-1.81.18 9.34 9.34 0 0 0-4.4 2.5.84.84 0 0 1-1.52-.31 2.92 2.92 0 0 1 0-1.44 17.84 17.84 0 0 1 1-2.73 4.43 4.43 0 0 1 1.89-1.67 1.4 1.4 0 0 0 .27-.21l-.05-.07h-12.6v10.6a.72.72 0 0 0 .22.41l5.83 5.68c1 1 2 1.92 3 2.86a1 1 0 0 0 .64.24h2.64a4.44 4.44 0 0 0 1.4-.26 5 5 0 0 0 2.48-2.34 11 11 0 0 1 2.46-2.9 3 3 0 0 0 1.26-2c.1-1.09.23-2.17.23-3.26.06-2.23.01-4.46.06-6.7zm26.39-45.1v13.59a.29.29 0 0 0 0-.1V82.35a.06.06 0 0 0-.03-.05zm-9 20.78a.62.62 0 0 0-.38-.2h-4.43a1.6 1.6 0 0 0 0 .31c.22.8.45 1.6.65 2.41.15.6-.15 1.18-.64 1.18a2.94 2.94 0 0 1-.93-.13c-.3-.09-.56-.29-.86-.39-.86-.32-1.73-.62-2.6-.93-.38-.14-.75-.31-1.14-.43a.7.7 0 0 0-.42.09c-.06 0 0 .23 0 .33a2.32 2.32 0 0 0 1 1.26c.42.24.85.45 1.29.65a6.52 6.52 0 0 1 2.34 1.67 1.26 1.26 0 0 1 .3.78.23.23 0 0 1 0 .11.71.71 0 0 1-.91.45 2.57 2.57 0 0 0-1.6 0 2.11 2.11 0 0 1-.9.08 13.43 13.43 0 0 1-1.37-.42l-.34-.1a.1.1 0 0 1-.05 0 3.07 3.07 0 0 0 .5.58 25 25 0 0 0 2.91 1.89 5.87 5.87 0 0 1 2.91 3 8.15 8.15 0 0 1 .47 1.74.49.49 0 0 1 0 .17.51.51 0 0 1-.59.41 1.32 1.32 0 0 1-.63-.22 2.24 2.24 0 0 0-1.71-.46 2.89 2.89 0 0 1-2-.71l-.25-.15c0 .86 0 1 .85 1.34s1.6.7 2.39 1.07a3.84 3.84 0 0 1 2.16 2.57c.13.49-.09.86-.59.86a7.51 7.51 0 0 1-3.13-.62c-.41-.18-.91-.51-1.27-.46s-.47.24-.29.55a2.94 2.94 0 0 0 1.74 1.35c.59.18 1.21.24 1.8.41 1.06.3 1.58 1.07.8 2.15l-.27.33c-.33.38-.33.58.07.92a2.6 2.6 0 0 0 .45.28 4.54 4.54 0 0 1 2 1.9 10.65 10.65 0 0 1 1.08 3.56c.08.93-.49 1.36-1.37 1a3.19 3.19 0 0 1-.58-.3c-.86-.53-1.71-1.09-2.58-1.62a4.57 4.57 0 0 0-2.36-.72c-.56 0-1 .08-1.56.08a3 3 0 0 1-2.09-.67 1.87 1.87 0 0 0-.34-.19v.16c0 2.61 0 5.22.07 7.83a4.45 4.45 0 0 0 2.46 3.93 7.93 7.93 0 0 1 1.72 1.37 5.65 5.65 0 0 0 4 1.73c.77.05 1.54 0 2.3 0a1 1 0 0 0 .63-.26c.48-.44 1-1 1.48-1.44q3.71-3.54 7.39-7.1a.83.83 0 0 0 .21-.54v-24.35a.78.78 0 0 0-.19-.5c-2.56-2.54-5.08-5.06-7.61-7.59zm7.71-20.48a.6.6 0 0 0-.14-.21c-.42-.47-1-.93-1.42-1.39l-7.67-7.28a.87.87 0 0 0-.54-.19h-26a1 1 0 0 0-.6.25c-.57.5-1 1-1.57 1.5L96 82.2a.76.76 0 0 0-.23.34.61.61 0 0 0-.06.19.86.86 0 0 0 0 .23v25.35a.65.65 0 0 0 0 .2 1 1 0 0 0 .28.5c2.47 2.47 4.92 4.94 7.39 7.39a.79.79 0 0 0 .56.23h6a2.21 2.21 0 0 0 .63-.13c.45-.18.9-.4 1.35-.59s.83-.46.88-.86a2.58 2.58 0 0 0 0-.65 9.72 9.72 0 0 1-1.2-.13 3.71 3.71 0 0 0-2.48.07.7.7 0 0 1-.65-.13.72.72 0 0 1-.09-.2.9.9 0 0 1 0-.43 4.09 4.09 0 0 1 1.87-2.24c1.07-.67 2.19-1.3 3.27-2a2.33 2.33 0 0 0 1.17-1.53.66.66 0 0 0 0-.28l-.3.09a4.37 4.37 0 0 1-2.95.79 5.67 5.67 0 0 1-.82-.09c-.25-.06-.57-.13-.67-.32a.26.26 0 0 1 0-.08 1.92 1.92 0 0 1 0-.24 2.79 2.79 0 0 1 .1-.43c0-.12.17-.22.26-.32a5.52 5.52 0 0 1 2.13-1.36 3 3 0 0 0 1.56-1.47 1.3 1.3 0 0 0 .08-.34H114a4.68 4.68 0 0 1-3 .77 2.5 2.5 0 0 0-2 1 1.82 1.82 0 0 1-.56.51c-.27.15-.61.18-.76-.14a2.06 2.06 0 0 1-.21-.65 2.26 2.26 0 0 1 0-.26c0-.34.09-.67.16-1s.13-.69.21-1a4.45 4.45 0 0 1 1.8-2.9c.69-.47 1.42-.9 2.13-1.33a6.62 6.62 0 0 0 2.23-2.11 1 1 0 0 0 .24-.51.65.65 0 0 0 0-.31.4.4 0 0 0 0-.15l-.21.1a4.45 4.45 0 0 1-3.36.89 3.21 3.21 0 0 0-1.62.23.77.77 0 0 1-.56 0 .83.83 0 0 1-.57-.66.81.81 0 0 1 0-.22v-.15a2.85 2.85 0 0 1 .56-.89 23.33 23.33 0 0 1 5.48-3.64 11.41 11.41 0 0 0 1.49-1c.09-.07.11-.23.15-.36a1.83 1.83 0 0 0-.42-.11 1.56 1.56 0 0 0-.47.13 4 4 0 0 1-2.54.11c-.36-.08-.56-.28-.57-.53a.28.28 0 0 0 0-.09.7.7 0 0 1 .21-.38 7.11 7.11 0 0 1 1.32-1.07c.43-.26.94-.39 1.38-.64a1.33 1.33 0 0 0 .55-.62v-.07a.13.13 0 0 0 0-.06c0-.16-.14-.25-.39-.19a2.71 2.71 0 0 1-.57 0 .8.8 0 0 1-.82-.36.75.75 0 0 1 0-.16.53.53 0 0 1 0-.28.68.68 0 0 1 .23-.43 5.3 5.3 0 0 1 2.1-1.65 1 1 0 0 0 .27-.22l-.06-.11a2 2 0 0 1-.49 0 .87.87 0 0 1-.75-.52.38.38 0 0 1 0-.1.25.25 0 0 1 0-.08.22.22 0 0 1 0-.14c0-.15.16-.26.31-.4s.51-.41.77-.61l1.11-.87c.09-.07.15-.12.17-.18a.14.14 0 0 0 0-.09.35.35 0 0 0-.17-.21 3.93 3.93 0 0 1-.58-.5 1 1 0 0 1-.22-.39.34.34 0 0 1 0-.1c0-.27.19-.48.59-.56a.79.79 0 0 0 .73-.6c.14-.59.29-1.17.45-1.76a.9.9 0 0 1 .08-.28.84.84 0 0 1 .15-.3 1.1 1.1 0 0 1 .62-.25c.07 0 .23.21.24.36.15.58.29 1.17.41 1.76a.29.29 0 0 0 0 .09.66.66 0 0 0 .63.49.94.94 0 0 1 .62.46.08.08 0 0 1 0 .05 1.55 1.55 0 0 1-.23.54c-.08.13-.26.23-.33.32s-.16.2-.15.29c0 .09.15.09.3.17a.9.9 0 0 0 .45.08.64.64 0 0 1 .48.22.42.42 0 0 1 .11.22.55.55 0 0 1 0 .31.62.62 0 0 1-.21.34 3.37 3.37 0 0 1-.57.56c-.09.09-.16.16-.17.23a.15.15 0 0 0 0 .07.62.62 0 0 0 .18.25c.29.28.62.53.93.79a6.58 6.58 0 0 1 .68.61.72.72 0 0 1 .2.29.85.85 0 0 1 0 .17 1 1 0 0 1 0 .34.81.81 0 0 1-.46.5c-.2.12-.28.17-.25.23s.1.11.25.24a11 11 0 0 1 1.57 1.48 1 1 0 0 1 .2.42.81.81 0 0 1 0 .22.76.76 0 0 1-.81.48 4.37 4.37 0 0 1-.72-.06c-.21 0-.36.05-.34.2a.32.32 0 0 0 .06.17 1.67 1.67 0 0 0 .58.6c.55.27 1.05.44 1.55.71a6 6 0 0 1 1.4 1 .82.82 0 0 1 .28.48 1.1 1.1 0 0 1 0 .18.39.39 0 0 1 0 .15.81.81 0 0 1-.8.66 7.6 7.6 0 0 1-1.35 0 2.58 2.58 0 0 0-1.43.14 3.41 3.41 0 0 0 .6.31 12.59 12.59 0 0 1 3.78 2 1.16 1.16 0 0 0 .64.23h14.14a.74.74 0 0 0 0-.21V82.78a.4.4 0 0 0 .05-.18zM116 127.08c-.28.24-.51.41-.7.61a3.57 3.57 0 0 1-2.3 1.13 13.68 13.68 0 0 0-1.81.18 9.34 9.34 0 0 0-4.4 2.5.84.84 0 0 1-1.52-.31 2.92 2.92 0 0 1 0-1.44 17.84 17.84 0 0 1 1-2.73 4.43 4.43 0 0 1 1.89-1.67 1.4 1.4 0 0 0 .27-.21l-.05-.07h-12.6v10.6a.72.72 0 0 0 .22.41l5.83 5.68c1 1 2 1.92 3 2.86a1 1 0 0 0 .64.24h2.64a4.44 4.44 0 0 0 1.4-.26 5 5 0 0 0 2.48-2.34 11 11 0 0 1 2.46-2.9 3 3 0 0 0 1.26-2c.1-1.09.23-2.17.23-3.26.06-2.23 0-4.46 0-6.7zm25.16-44.33a.4.4 0 0 0 0-.15.6.6 0 0 0-.14-.21c-.42-.47-1-.93-1.42-1.39l-7.67-7.28a.87.87 0 0 0-.54-.19h-26a1 1 0 0 0-.6.25c-.57.5-1 1-1.57 1.5L96 82.2a.76.76 0 0 0-.23.34.61.61 0 0 0-.06.19.86.86 0 0 0 0 .23v25.35a.65.65 0 0 0 0 .2 1 1 0 0 0 .28.5c2.47 2.47 4.92 4.94 7.39 7.39a.79.79 0 0 0 .56.23h6a2.21 2.21 0 0 0 .63-.13c.45-.18.9-.4 1.35-.59s.83-.46.88-.86a2.58 2.58 0 0 0 0-.65 9.72 9.72 0 0 1-1.2-.13 3.71 3.71 0 0 0-2.48.07.7.7 0 0 1-.65-.13.72.72 0 0 1-.09-.2.9.9 0 0 1 0-.43 4.09 4.09 0 0 1 1.87-2.24c1.07-.67 2.19-1.3 3.27-2a2.33 2.33 0 0 0 1.17-1.53.66.66 0 0 0 0-.28l-.3.09a4.37 4.37 0 0 1-2.95.79 5.67 5.67 0 0 1-.82-.09c-.25-.06-.57-.13-.67-.32a.26.26 0 0 1 0-.08 1.92 1.92 0 0 1 0-.24 2.79 2.79 0 0 1 .1-.43c0-.12.17-.22.26-.32a5.52 5.52 0 0 1 2.13-1.36 3 3 0 0 0 1.56-1.47 1.3 1.3 0 0 0 .08-.34H114a4.68 4.68 0 0 1-3 .77 2.5 2.5 0 0 0-2 1 1.82 1.82 0 0 1-.56.51c-.27.15-.61.18-.76-.14a2.06 2.06 0 0 1-.21-.65 2.26 2.26 0 0 1 0-.26c0-.34.09-.67.16-1s.13-.69.21-1a4.45 4.45 0 0 1 1.8-2.9c.69-.47 1.42-.9 2.13-1.33a6.62 6.62 0 0 0 2.23-2.11 1 1 0 0 0 .24-.51.65.65 0 0 0 0-.31.4.4 0 0 0 0-.15l-.21.1a4.45 4.45 0 0 1-3.36.89 3.21 3.21 0 0 0-1.62.23.77.77 0 0 1-.56 0 .83.83 0 0 1-.57-.66.81.81 0 0 1 0-.22v-.15a2.85 2.85 0 0 1 .56-.89 23.33 23.33 0 0 1 5.48-3.64 11.41 11.41 0 0 0 1.49-1c.09-.07.11-.23.15-.36a1.83 1.83 0 0 0-.42-.11 1.56 1.56 0 0 0-.47.13 4 4 0 0 1-2.54.11c-.36-.08-.56-.28-.57-.53a.28.28 0 0 0 0-.09.7.7 0 0 1 .21-.38 7.11 7.11 0 0 1 1.32-1.07c.43-.26.94-.39 1.38-.64a1.33 1.33 0 0 0 .55-.62v-.07a.13.13 0 0 0 0-.06c0-.16-.14-.25-.39-.19a2.71 2.71 0 0 1-.57 0 .8.8 0 0 1-.82-.36.75.75 0 0 1 0-.16.53.53 0 0 1 0-.28.68.68 0 0 1 .23-.43 5.3 5.3 0 0 1 2.1-1.65 1 1 0 0 0 .27-.22l-.06-.11a2 2 0 0 1-.49 0 .87.87 0 0 1-.75-.52.38.38 0 0 1 0-.1.25.25 0 0 1 0-.08.22.22 0 0 1 0-.14c0-.15.16-.26.31-.4s.51-.41.77-.61l1.11-.87c.09-.07.15-.12.17-.18a.14.14 0 0 0 0-.09.35.35 0 0 0-.17-.21 3.93 3.93 0 0 1-.58-.5 1 1 0 0 1-.22-.39.34.34 0 0 1 0-.1c0-.27.19-.48.59-.56a.79.79 0 0 0 .73-.6c.14-.59.29-1.17.45-1.76a.9.9 0 0 1 .08-.28.84.84 0 0 1 .15-.3 1.1 1.1 0 0 1 .62-.25c.07 0 .23.21.24.36.15.58.29 1.17.41 1.76a.29.29 0 0 0 0 .09.66.66 0 0 0 .63.49.94.94 0 0 1 .62.46.08.08 0 0 1 0 .05 1.55 1.55 0 0 1-.23.54c-.08.13-.26.23-.33.32s-.16.2-.15.29c0 .09.15.09.3.17a.9.9 0 0 0 .45.08.64.64 0 0 1 .48.22.42.42 0 0 1 .11.22.55.55 0 0 1 0 .31.62.62 0 0 1-.21.34 3.37 3.37 0 0 1-.57.56c-.09.09-.16.16-.17.23a.15.15 0 0 0 0 .07.62.62 0 0 0 .18.25c.29.28.62.53.93.79a6.58 6.58 0 0 1 .68.61.72.72 0 0 1 .2.29.85.85 0 0 1 0 .17 1 1 0 0 1 0 .34.81.81 0 0 1-.46.5c-.2.12-.28.17-.25.23s.1.11.25.24a11 11 0 0 1 1.57 1.48 1 1 0 0 1 .2.42.81.81 0 0 1 0 .22.76.76 0 0 1-.81.48 4.37 4.37 0 0 1-.72-.06c-.21 0-.36.05-.34.2a.32.32 0 0 0 .06.17 1.67 1.67 0 0 0 .58.6c.55.27 1.05.44 1.55.71a6 6 0 0 1 1.4 1 .82.82 0 0 1 .28.48 1.1 1.1 0 0 1 0 .18.39.39 0 0 1 0 .15.81.81 0 0 1-.8.66 7.6 7.6 0 0 1-1.35 0 2.58 2.58 0 0 0-1.43.14 3.41 3.41 0 0 0 .6.31 12.59 12.59 0 0 1 3.78 2 1.16 1.16 0 0 0 .64.23h14.14a.74.74 0 0 0 0-.21V82.78l.08-.03zm-.18 27.92c-2.52-2.54-5-5.06-7.57-7.59a.62.62 0 0 0-.38-.2h-4.43a1.6 1.6 0 0 0 0 .31c.22.8.45 1.6.65 2.41.15.6-.15 1.18-.64 1.18a2.94 2.94 0 0 1-.93-.13c-.3-.09-.56-.29-.86-.39-.86-.32-1.73-.62-2.6-.93-.38-.14-.75-.31-1.14-.43a.7.7 0 0 0-.42.09c-.06 0 0 .23 0 .33a2.32 2.32 0 0 0 1 1.26c.42.24.85.45 1.29.65a6.52 6.52 0 0 1 2.34 1.67 1.26 1.26 0 0 1 .3.78.23.23 0 0 1 0 .11.71.71 0 0 1-.91.45 2.57 2.57 0 0 0-1.6 0 2.11 2.11 0 0 1-.9.08 13.43 13.43 0 0 1-1.37-.42l-.34-.1a.1.1 0 0 1-.05 0 3.07 3.07 0 0 0 .5.58 25 25 0 0 0 2.91 1.89 5.87 5.87 0 0 1 2.91 3 8.15 8.15 0 0 1 .47 1.74.49.49 0 0 1 0 .17.51.51 0 0 1-.59.41 1.32 1.32 0 0 1-.63-.22 2.24 2.24 0 0 0-1.71-.46 2.89 2.89 0 0 1-2-.71l-.25-.15c0 .86 0 1 .85 1.34s1.6.7 2.39 1.07a3.84 3.84 0 0 1 2.16 2.57c.13.49-.09.86-.59.86a7.51 7.51 0 0 1-3.13-.62c-.41-.18-.91-.51-1.27-.46s-.47.24-.29.55a2.94 2.94 0 0 0 1.74 1.35c.59.18 1.21.24 1.8.41 1.06.3 1.58 1.07.8 2.15l-.27.33c-.33.38-.33.58.07.92a2.6 2.6 0 0 0 .45.28 4.54 4.54 0 0 1 2 1.9 10.65 10.65 0 0 1 1.08 3.56c.08.93-.49 1.36-1.37 1a3.19 3.19 0 0 1-.58-.3c-.86-.53-1.71-1.09-2.58-1.62a4.57 4.57 0 0 0-2.36-.72c-.56 0-1 .08-1.56.08a3 3 0 0 1-2.09-.67 1.87 1.87 0 0 0-.34-.19v.16c0 2.61 0 5.22.07 7.83a4.45 4.45 0 0 0 2.46 3.93 7.93 7.93 0 0 1 1.72 1.37 5.65 5.65 0 0 0 4 1.73c.77.05 1.54 0 2.3 0a1 1 0 0 0 .63-.26c.48-.44 1-1 1.48-1.44q3.71-3.54 7.39-7.1a.83.83 0 0 0 .21-.54v-24.35a.78.78 0 0 0-.25-.5zM116 127.4v-.32c-.28.24-.51.41-.7.61a3.57 3.57 0 0 1-2.3 1.13 13.68 13.68 0 0 0-1.81.18 9.34 9.34 0 0 0-4.4 2.5.84.84 0 0 1-1.52-.31 2.92 2.92 0 0 1 0-1.44 17.84 17.84 0 0 1 1-2.73 4.43 4.43 0 0 1 1.89-1.67 1.4 1.4 0 0 0 .27-.21l-.05-.07h-12.6v10.6a.72.72 0 0 0 .22.41l5.83 5.68c1 1 2 1.92 3 2.86a1 1 0 0 0 .64.24h2.64a4.44 4.44 0 0 0 1.4-.26 5 5 0 0 0 2.48-2.34 11 11 0 0 1 2.46-2.9 3 3 0 0 0 1.26-2c.1-1.09.23-2.17.23-3.26.06-2.23.01-4.46.06-6.7zm26.3-45.3a.49.49 0 0 0-.11-.14.54.54 0 0 1 .13.2s-.01-.05-.02-.06zm-1.22-1.22c.36.36.74.7 1.1 1.06zm-7.7 22.2a.62.62 0 0 0-.38-.2h-4.43a1.6 1.6 0 0 0 0 .31c.22.8.45 1.6.65 2.41.15.6-.15 1.18-.64 1.18a2.94 2.94 0 0 1-.93-.13c-.3-.09-.56-.29-.86-.39-.86-.32-1.73-.62-2.6-.93-.38-.14-.75-.31-1.14-.43a.7.7 0 0 0-.42.09c-.06 0 0 .23 0 .33a2.32 2.32 0 0 0 1 1.26c.42.24.85.45 1.29.65a6.52 6.52 0 0 1 2.34 1.67 1.26 1.26 0 0 1 .3.78.23.23 0 0 1 0 .11.71.71 0 0 1-.91.45 2.57 2.57 0 0 0-1.6 0 2.11 2.11 0 0 1-.9.08 13.43 13.43 0 0 1-1.37-.42l-.34-.1a.1.1 0 0 1-.05 0 3.07 3.07 0 0 0 .5.58 25 25 0 0 0 2.91 1.89 5.87 5.87 0 0 1 2.91 3 8.15 8.15 0 0 1 .47 1.74.49.49 0 0 1 0 .17.51.51 0 0 1-.59.41 1.32 1.32 0 0 1-.63-.22 2.24 2.24 0 0 0-1.71-.46 2.89 2.89 0 0 1-2-.71l-.25-.15c0 .86 0 1 .85 1.34s1.6.7 2.39 1.07a3.84 3.84 0 0 1 2.16 2.57c.13.49-.09.86-.59.86a7.51 7.51 0 0 1-3.13-.62c-.41-.18-.91-.51-1.27-.46s-.47.24-.29.55a2.94 2.94 0 0 0 1.74 1.35c.59.18 1.21.24 1.8.41 1.06.3 1.58 1.07.8 2.15l-.27.33c-.33.38-.33.58.07.92a2.6 2.6 0 0 0 .45.28 4.54 4.54 0 0 1 2 1.9 10.65 10.65 0 0 1 1.08 3.56c.08.93-.49 1.36-1.37 1a3.19 3.19 0 0 1-.58-.3c-.86-.53-1.71-1.09-2.58-1.62a4.57 4.57 0 0 0-2.36-.72c-.56 0-1 .08-1.56.08a3 3 0 0 1-2.09-.67 1.87 1.87 0 0 0-.34-.19v.16c0 2.61 0 5.22.07 7.83a4.45 4.45 0 0 0 2.46 3.93 7.93 7.93 0 0 1 1.72 1.37 5.65 5.65 0 0 0 4 1.73c.77.05 1.54 0 2.3 0a1 1 0 0 0 .63-.26c.48-.44 1-1 1.48-1.44q3.71-3.54 7.39-7.1a.83.83 0 0 0 .21-.54v-24.35a.78.78 0 0 0-.19-.5c-2.55-2.54-5.07-5.06-7.6-7.59zm7.72-20.48a.6.6 0 0 0-.14-.21c-.42-.47-1-.93-1.42-1.39l-7.67-7.28a.87.87 0 0 0-.54-.19h-26a1 1 0 0 0-.6.25c-.57.5-1 1-1.57 1.5L96 82.2a.76.76 0 0 0-.23.34.61.61 0 0 0-.06.19.86.86 0 0 0 0 .23v25.35a.65.65 0 0 0 0 .2 1 1 0 0 0 .28.5c2.47 2.47 4.92 4.94 7.39 7.39a.79.79 0 0 0 .56.23h6a2.21 2.21 0 0 0 .63-.13c.45-.18.9-.4 1.35-.59s.83-.46.88-.86a2.58 2.58 0 0 0 0-.65 9.72 9.72 0 0 1-1.2-.13 3.71 3.71 0 0 0-2.48.07.7.7 0 0 1-.65-.13.72.72 0 0 1-.09-.2.9.9 0 0 1 0-.43 4.09 4.09 0 0 1 1.87-2.24c1.07-.67 2.19-1.3 3.27-2a2.33 2.33 0 0 0 1.17-1.53.66.66 0 0 0 0-.28l-.3.09a4.37 4.37 0 0 1-2.95.79 5.67 5.67 0 0 1-.82-.09c-.25-.06-.57-.13-.67-.32a.26.26 0 0 1 0-.08 1.92 1.92 0 0 1 0-.24 2.79 2.79 0 0 1 .1-.43c0-.12.17-.22.26-.32a5.52 5.52 0 0 1 2.13-1.36 3 3 0 0 0 1.56-1.47 1.3 1.3 0 0 0 .08-.34H114a4.68 4.68 0 0 1-3 .77 2.5 2.5 0 0 0-2 1 1.82 1.82 0 0 1-.56.51c-.27.15-.61.18-.76-.14a2.06 2.06 0 0 1-.21-.65 2.26 2.26 0 0 1 0-.26c0-.34.09-.67.16-1s.13-.69.21-1a4.45 4.45 0 0 1 1.8-2.9c.69-.47 1.42-.9 2.13-1.33a6.62 6.62 0 0 0 2.23-2.11 1 1 0 0 0 .24-.51.65.65 0 0 0 0-.31.4.4 0 0 0 0-.15l-.21.1a4.45 4.45 0 0 1-3.36.89 3.21 3.21 0 0 0-1.62.23.77.77 0 0 1-.56 0 .83.83 0 0 1-.57-.66.81.81 0 0 1 0-.22v-.15a2.85 2.85 0 0 1 .56-.89 23.33 23.33 0 0 1 5.48-3.64 11.41 11.41 0 0 0 1.49-1c.09-.07.11-.23.15-.36a1.83 1.83 0 0 0-.42-.11 1.56 1.56 0 0 0-.47.13 4 4 0 0 1-2.54.11c-.36-.08-.56-.28-.57-.53a.28.28 0 0 0 0-.09.7.7 0 0 1 .21-.38 7.11 7.11 0 0 1 1.32-1.07c.43-.26.94-.39 1.38-.64a1.33 1.33 0 0 0 .55-.62v-.07a.13.13 0 0 0 0-.06c0-.16-.14-.25-.39-.19a2.71 2.71 0 0 1-.57 0 .8.8 0 0 1-.82-.36.75.75 0 0 1 0-.16.53.53 0 0 1 0-.28.68.68 0 0 1 .23-.43 5.3 5.3 0 0 1 2.1-1.65 1 1 0 0 0 .27-.22l-.06-.11a2 2 0 0 1-.49 0 .87.87 0 0 1-.75-.52.38.38 0 0 1 0-.1.25.25 0 0 1 0-.08.22.22 0 0 1 0-.14c0-.15.16-.26.31-.4s.51-.41.77-.61l1.11-.87c.09-.07.15-.12.17-.18a.14.14 0 0 0 0-.09.35.35 0 0 0-.17-.21 3.93 3.93 0 0 1-.58-.5 1 1 0 0 1-.22-.39.34.34 0 0 1 0-.1c0-.27.19-.48.59-.56a.79.79 0 0 0 .73-.6c.14-.59.29-1.17.45-1.76a.9.9 0 0 1 .08-.28.84.84 0 0 1 .15-.3 1.1 1.1 0 0 1 .62-.25c.07 0 .23.21.24.36.15.58.29 1.17.41 1.76a.29.29 0 0 0 0 .09.66.66 0 0 0 .63.49.94.94 0 0 1 .62.46.08.08 0 0 1 0 .05 1.55 1.55 0 0 1-.23.54c-.08.13-.26.23-.33.32s-.16.2-.15.29c0 .09.15.09.3.17a.9.9 0 0 0 .45.08.64.64 0 0 1 .48.22.42.42 0 0 1 .11.22.55.55 0 0 1 0 .31.62.62 0 0 1-.21.34 3.37 3.37 0 0 1-.57.56c-.09.09-.16.16-.17.23a.15.15 0 0 0 0 .07.62.62 0 0 0 .18.25c.29.28.62.53.93.79a6.58 6.58 0 0 1 .68.61.72.72 0 0 1 .2.29.85.85 0 0 1 0 .17 1 1 0 0 1 0 .34.81.81 0 0 1-.46.5c-.2.12-.28.17-.25.23s.1.11.25.24a11 11 0 0 1 1.57 1.48 1 1 0 0 1 .2.42.81.81 0 0 1 0 .22.76.76 0 0 1-.81.48 4.37 4.37 0 0 1-.72-.06c-.21 0-.36.05-.34.2a.32.32 0 0 0 .06.17 1.67 1.67 0 0 0 .58.6c.55.27 1.05.44 1.55.71a6 6 0 0 1 1.4 1 .82.82 0 0 1 .28.48 1.1 1.1 0 0 1 0 .18.39.39 0 0 1 0 .15.81.81 0 0 1-.8.66 7.6 7.6 0 0 1-1.35 0 2.58 2.58 0 0 0-1.43.14 3.41 3.41 0 0 0 .6.31 12.59 12.59 0 0 1 3.78 2 1.16 1.16 0 0 0 .64.23h14.14a.74.74 0 0 0 0-.21V82.78a.4.4 0 0 0 .05-.18zm-8.62-10a.88.88 0 0 0-.56-.23H105a.91.91 0 0 0-.54.19l-7 6.7c-.9.87-1.79 1.75-2.7 2.6.91-.85 1.8-1.73 2.7-2.6l7-6.7a.91.91 0 0 1 .54-.19h26.92a.88.88 0 0 1 .56.23l7.52 7.23c.37.35.73.71 1.11 1L140 79.82zm-5.27 29c-.6-.35-1.17-.73-1.76-1.08a8 8 0 0 1-1.92-1.52 7.42 7.42 0 0 0 1.92 1.45c.59.35 1.16.73 1.76 1.08a.91.91 0 0 0 .43.08h5.63a.78.78 0 0 1 .6.24.78.78 0 0 0-.6-.24h-5.63a.92.92 0 0 1-.43-.05zm.87-5.66l.06.11a.37.37 0 0 1-.05-.11zM116 127.08c-.28.24-.51.41-.7.61a3.57 3.57 0 0 1-2.3 1.13 13.68 13.68 0 0 0-1.81.18 9.34 9.34 0 0 0-4.4 2.5.84.84 0 0 1-1.52-.31 2.92 2.92 0 0 1 0-1.44 17.84 17.84 0 0 1 1-2.73 4.43 4.43 0 0 1 1.89-1.67 1.4 1.4 0 0 0 .27-.21l-.05-.07h-12.6v10.6a.72.72 0 0 0 .22.41l5.83 5.68c1 1 2 1.92 3 2.86a1 1 0 0 0 .64.24h2.64a4.44 4.44 0 0 0 1.4-.26 5 5 0 0 0 2.48-2.34 11 11 0 0 1 2.46-2.9 3 3 0 0 0 1.26-2c.1-1.09.23-2.17.23-3.26.06-2.23 0-4.46 0-6.7zm-5.3-5.74a3.06 3.06 0 0 0 1.62-.94 3.2 3.2 0 0 1-1.62.93c-.58.14-1.17.21-1.73.39a1.56 1.56 0 0 0-.67.43 1.61 1.61 0 0 1 .67-.42c.53-.18 1.12-.25 1.7-.39zm-2 2.48c-.48 0-.86-.1-1.23-.1H95c-.28 0-.42 0-.48.08.07-.07.21-.07.48-.07h12.43c.37-.01.75.09 1.23.09zM127 99a4.12 4.12 0 0 1 .61.11 3.78 3.78 0 0 0 .46.1 1.25 1.25 0 0 0 1.05-.29 1.7 1.7 0 0 0 .62-1.27.6.6 0 0 0 0-.19v-.13h14V81.48l-2.08-2-8.33-8.05c-.2-.19-.41-.37-.62-.55h-28.55c-.42.37-.84.74-1.24 1.12l-6.41 6.18c-1.08 1.05-2.17 2.12-3.26 3.12a.38.38 0 0 1-.15.09v28.5c1.63 1.63 3.27 3.25 4.9 4.89l4.09 4.08a1.18 1.18 0 0 0 1.1.46 25.33 25.33 0 0 1 2.75 0h.64a3.17 3.17 0 0 0-.05.53 1.4 1.4 0 0 0 .29.93 1.54 1.54 0 0 0 1.19.49 1.82 1.82 0 0 0-.7.87 1 1 0 0 1-.18.31h-14V137c1 1 2.09 2 3.09 3l7.78 7.44h28.88l2.47-2.44 2.12-2 6.11-5.91.13-.09v-27.19l-6.55-6.55c-.9-.89-1.78-1.8-2.69-2.67a1 1 0 0 0-.63-.26h-7a6.82 6.82 0 0 1-1.24-.68 11.48 11.48 0 0 1-1.27-.93h.14zm-4.37-1.09a8.29 8.29 0 0 0 .9 1.13 7.42 7.42 0 0 0 1.92 1.45c.59.35 1.16.73 1.76 1.08a.91.91 0 0 0 .43.08h5.63a.78.78 0 0 1 .6.24c2.78 2.78 5.54 5.54 8.3 8.32a.83.83 0 0 1 .21.49V136a.69.69 0 0 1-.2.45l-5.8 5.62c-1.31 1.27-2.62 2.53-3.95 3.79a.82.82 0 0 1-.49.2h-27a.73.73 0 0 1-.46-.19c-.78-.73-1.55-1.48-2.32-2.22-2.26-2.18-4.48-4.4-6.78-6.53a1.32 1.32 0 0 1-.21-.2 2.43 2.43 0 0 1-.34-.45 2.47 2.47 0 0 1-.24-.49 2.61 2.61 0 0 1-.14-1v-10.7c0-.27 0-.42.07-.49s.21-.07.48-.07h12.43c.37 0 .75.1 1.23.1-.06-.11-.08-.22-.12-.27a.92.92 0 0 1-.2-.19.87.87 0 0 1 0-1.18 1.61 1.61 0 0 1 .67-.42c.56-.18 1.15-.25 1.73-.39a3.06 3.06 0 0 0 1.62-.94 3.12 3.12 0 0 0 .38-.5c.12-.19.12-.37 0-.46a.44.44 0 0 0-.25-.07 1.33 1.33 0 0 0-.65.13 7.73 7.73 0 0 1-3.68.93.82.82 0 0 1-.65-.21.7.7 0 0 1 0-.7 12.86 12.86 0 0 1 .62-1.3c0-.06.05-.13.11-.24h-4.47a.91.91 0 0 1-.74-.3l-4-4-4-4a1.54 1.54 0 0 1-.5-1.21V82.58a.9.9 0 0 1 .32-.72c.91-.85 1.8-1.73 2.7-2.6l7-6.7a.91.91 0 0 1 .54-.19h26.92a.88.88 0 0 1 .56.23l7.43 7.23c.37.35.73.71 1.11 1L140 79.82l-7.49-7.23 7.47 7.18c.73.71 1.48 1.4 2.21 2.11a.53.53 0 0 1 .13.2.49.49 0 0 0-.11-.14.54.54 0 0 1 .13.2.3.3 0 0 1 .05.16v13.6h-14.31l.06.11a2.52 2.52 0 0 0 .13.28c.19.32.41.65.58 1a.71.71 0 0 1-.1.75.46.46 0 0 1-.12.12.84.84 0 0 1-.94.15 4.7 4.7 0 0 0-1.44-.26 10 10 0 0 1-3.65-.76h-.26a4.4 4.4 0 0 0 .29.62zm19.55-16l-1.1-1.05c.36.36.74.7 1.1 1.06zm-11.79 51.39a3.19 3.19 0 0 1-.58-.3c-.86-.53-1.71-1.09-2.58-1.62a4.57 4.57 0 0 0-2.36-.72c-.56 0-1 .08-1.56.08a3 3 0 0 1-2.09-.67 1.87 1.87 0 0 0-.34-.19v.12c0 2.61 0 5.22.07 7.83a4.45 4.45 0 0 0 2.46 3.93 7.93 7.93 0 0 1 1.72 1.37 5.65 5.65 0 0 0 4 1.73c.77.05 1.54 0 2.3 0a1 1 0 0 0 .63-.26c.48-.44 1-1 1.48-1.44q3.71-3.54 7.39-7.1a.83.83 0 0 0 .21-.54v-24.35a.78.78 0 0 0-.19-.5c-2.52-2.54-5-5.06-7.57-7.59a.62.62 0 0 0-.38-.2h-4.43a1.6 1.6 0 0 0 0 .31c.22.8.45 1.6.65 2.41.15.6-.15 1.18-.64 1.18a2.94 2.94 0 0 1-.93-.13c-.3-.09-.56-.29-.86-.39-.86-.32-1.73-.62-2.6-.93-.38-.14-.75-.31-1.14-.43a.7.7 0 0 0-.42.09c-.06 0 0 .23 0 .33a2.32 2.32 0 0 0 1 1.26c.42.24.85.45 1.29.65a6.52 6.52 0 0 1 2.34 1.67 1.26 1.26 0 0 1 .3.78.23.23 0 0 1 0 .11.71.71 0 0 1-.91.45 2.57 2.57 0 0 0-1.6 0 2.11 2.11 0 0 1-.9.08 13.43 13.43 0 0 1-1.37-.42l-.34-.1a.1.1 0 0 1-.05 0 3.07 3.07 0 0 0 .5.58 25 25 0 0 0 2.91 1.89 5.87 5.87 0 0 1 2.91 3 8.15 8.15 0 0 1 .47 1.74.49.49 0 0 1 0 .17.51.51 0 0 1-.59.41 1.32 1.32 0 0 1-.63-.22 2.24 2.24 0 0 0-1.71-.46 2.89 2.89 0 0 1-2-.71l-.25-.15c0 .86 0 1 .85 1.34s1.6.7 2.39 1.07a3.84 3.84 0 0 1 2.16 2.57c.13.49-.09.86-.59.86a7.51 7.51 0 0 1-3.13-.62c-.41-.18-.91-.51-1.27-.46s-.47.24-.29.55a2.94 2.94 0 0 0 1.74 1.35c.59.18 1.21.24 1.8.41 1.06.3 1.58 1.07.8 2.15l-.27.33c-.33.38-.33.58.07.92a2.6 2.6 0 0 0 .45.28 4.54 4.54 0 0 1 2 1.9 10.65 10.65 0 0 1 1.08 3.56c.05.97-.52 1.4-1.4 1.04zM127 94.69h14.14a.74.74 0 0 0 0-.21v-11.7a.4.4 0 0 0 0-.15.6.6 0 0 0-.14-.21c-.42-.47-1-.93-1.42-1.39l-7.67-7.28a.87.87 0 0 0-.54-.19h-26a1 1 0 0 0-.6.25c-.57.5-1 1-1.57 1.5L96 82.2a.76.76 0 0 0-.23.34.61.61 0 0 0-.06.19.86.86 0 0 0 0 .23v25.35a.65.65 0 0 0 0 .2 1 1 0 0 0 .28.5c2.47 2.47 4.92 4.94 7.39 7.39a.79.79 0 0 0 .56.23h6a2.21 2.21 0 0 0 .63-.13c.45-.18.9-.4 1.35-.59s.83-.46.88-.86a2.58 2.58 0 0 0 0-.65 9.72 9.72 0 0 1-1.2-.13 3.71 3.71 0 0 0-2.48.07.7.7 0 0 1-.65-.13.72.72 0 0 1-.09-.2.9.9 0 0 1 0-.43 4.09 4.09 0 0 1 1.87-2.24c1.07-.67 2.19-1.3 3.27-2a2.33 2.33 0 0 0 1.17-1.53.66.66 0 0 0 0-.28l-.3.09a4.37 4.37 0 0 1-2.95.79 5.67 5.67 0 0 1-.82-.09c-.25-.06-.57-.13-.67-.32a.26.26 0 0 1 0-.08 1.92 1.92 0 0 1 0-.24 2.79 2.79 0 0 1 .1-.43c0-.12.17-.22.26-.32a5.52 5.52 0 0 1 2.13-1.36 3 3 0 0 0 1.56-1.47 1.3 1.3 0 0 0 .08-.34H114a4.68 4.68 0 0 1-3 .77 2.5 2.5 0 0 0-2 1 1.82 1.82 0 0 1-.56.51c-.27.15-.61.18-.76-.14a2.06 2.06 0 0 1-.21-.65 2.26 2.26 0 0 1 0-.26c0-.34.09-.67.16-1s.13-.69.21-1a4.45 4.45 0 0 1 1.8-2.9c.69-.47 1.42-.9 2.13-1.33a6.62 6.62 0 0 0 2.23-2.11 1 1 0 0 0 .24-.51.65.65 0 0 0 0-.31.4.4 0 0 0 0-.15l-.21.1a4.45 4.45 0 0 1-3.36.89 3.21 3.21 0 0 0-1.62.23.77.77 0 0 1-.56 0 .83.83 0 0 1-.57-.66.81.81 0 0 1 0-.22v-.15a2.85 2.85 0 0 1 .56-.89 23.33 23.33 0 0 1 5.48-3.64 11.41 11.41 0 0 0 1.49-1c.09-.07.11-.23.15-.36a1.83 1.83 0 0 0-.42-.11 1.56 1.56 0 0 0-.47.13 4 4 0 0 1-2.54.11c-.36-.08-.56-.28-.57-.53a.28.28 0 0 0 0-.09.7.7 0 0 1 .21-.38 7.11 7.11 0 0 1 1.32-1.07c.43-.26.94-.39 1.38-.64a1.33 1.33 0 0 0 .55-.62v-.07a.13.13 0 0 0 0-.06c0-.16-.14-.25-.39-.19a2.71 2.71 0 0 1-.57 0 .8.8 0 0 1-.82-.36.75.75 0 0 1 0-.16.53.53 0 0 1 0-.28.68.68 0 0 1 .23-.43 5.3 5.3 0 0 1 2.1-1.65 1 1 0 0 0 .27-.22l-.06-.11a2 2 0 0 1-.49 0 .87.87 0 0 1-.75-.52.38.38 0 0 1 0-.1.25.25 0 0 1 0-.08.22.22 0 0 1 0-.14c0-.15.16-.26.31-.4s.51-.41.77-.61l1.11-.87c.09-.07.15-.12.17-.18a.14.14 0 0 0 0-.09.35.35 0 0 0-.17-.21 3.93 3.93 0 0 1-.58-.5 1 1 0 0 1-.22-.39.34.34 0 0 1 0-.1c0-.27.19-.48.59-.56a.79.79 0 0 0 .73-.6c.14-.59.29-1.17.45-1.76a.9.9 0 0 1 .08-.28.84.84 0 0 1 .15-.3 1.1 1.1 0 0 1 .62-.25c.07 0 .23.21.24.36.15.58.29 1.17.41 1.76a.29.29 0 0 0 0 .09.66.66 0 0 0 .63.49.94.94 0 0 1 .62.46.08.08 0 0 1 0 .05 1.55 1.55 0 0 1-.23.54c-.08.13-.26.23-.33.32s-.16.2-.15.29c0 .09.15.09.3.17a.9.9 0 0 0 .45.08.64.64 0 0 1 .48.22.42.42 0 0 1 .11.22.55.55 0 0 1 0 .31.62.62 0 0 1-.21.34 3.37 3.37 0 0 1-.57.56c-.09.09-.16.16-.17.23a.15.15 0 0 0 0 .07.62.62 0 0 0 .18.25c.29.28.62.53.93.79a6.58 6.58 0 0 1 .68.61.72.72 0 0 1 .2.29.85.85 0 0 1 0 .17 1 1 0 0 1 0 .34.81.81 0 0 1-.46.5c-.2.12-.28.17-.25.23s.1.11.25.24a11 11 0 0 1 1.57 1.48 1 1 0 0 1 .2.42.81.81 0 0 1 0 .22.76.76 0 0 1-.81.48 4.37 4.37 0 0 1-.72-.06c-.21 0-.36.05-.34.2a.32.32 0 0 0 .06.17 1.67 1.67 0 0 0 .58.6c.55.27 1.05.44 1.55.71a6 6 0 0 1 1.4 1 .82.82 0 0 1 .28.48 1.1 1.1 0 0 1 0 .18.39.39 0 0 1 0 .15.81.81 0 0 1-.8.66 7.6 7.6 0 0 1-1.35 0 2.58 2.58 0 0 0-1.43.14 3.41 3.41 0 0 0 .6.31 12.59 12.59 0 0 1 3.78 2 1.16 1.16 0 0 0 .73.26zm-11 32.39c-.28.24-.51.41-.7.61a3.57 3.57 0 0 1-2.3 1.13 13.68 13.68 0 0 0-1.81.18 9.34 9.34 0 0 0-4.4 2.5.84.84 0 0 1-1.52-.31 2.92 2.92 0 0 1 0-1.44 17.84 17.84 0 0 1 1-2.73 4.43 4.43 0 0 1 1.89-1.67 1.4 1.4 0 0 0 .27-.21l-.05-.07h-12.6v10.6a.72.72 0 0 0 .22.41l5.83 5.68c1 1 2 1.92 3 2.86a1 1 0 0 0 .64.24h2.64a4.44 4.44 0 0 0 1.4-.26 5 5 0 0 0 2.48-2.34 11 11 0 0 1 2.46-2.9 3 3 0 0 0 1.26-2c.1-1.09.23-2.17.23-3.26.06-2.23 0-4.46 0-6.7zm25.16-44.33a.4.4 0 0 0 0-.15.6.6 0 0 0-.14-.21c-.42-.47-1-.93-1.42-1.39l-7.67-7.25a.87.87 0 0 0-.54-.19h-26a1 1 0 0 0-.6.25c-.57.5-1 1-1.57 1.5L96 82.23a1 1 0 0 0-.23.31.61.61 0 0 0-.06.19.86.86 0 0 0 0 .23v25.35a.65.65 0 0 0 0 .2 1 1 0 0 0 .28.5c2.47 2.47 4.92 4.94 7.39 7.39a.79.79 0 0 0 .56.23h6a2.21 2.21 0 0 0 .63-.13c.45-.18.9-.4 1.35-.59s.83-.46.88-.86a2.58 2.58 0 0 0 0-.65 9.82 9.82 0 0 1-1.2-.13 3.71 3.71 0 0 0-2.48.07.7.7 0 0 1-.65-.13.65.65 0 0 1-.09-.23.9.9 0 0 1 0-.43 4.09 4.09 0 0 1 1.87-2.24c1.07-.67 2.19-1.3 3.27-2a2.33 2.33 0 0 0 1.17-1.53.66.66 0 0 0 0-.28l-.3.09a4.37 4.37 0 0 1-2.95.79 5.74 5.74 0 0 1-.82-.09c-.25-.06-.57-.13-.67-.32a.2.2 0 0 1 0-.11 1.92 1.92 0 0 1 0-.24 2.79 2.79 0 0 1 .1-.43c0-.12.17-.22.26-.32a5.52 5.52 0 0 1 2.13-1.36 3 3 0 0 0 1.56-1.41 1.3 1.3 0 0 0 .08-.34H114a4.68 4.68 0 0 1-3 .77 2.5 2.5 0 0 0-2 1 1.82 1.82 0 0 1-.56.51c-.27.15-.61.18-.76-.14a2 2 0 0 1-.21-.68 2.26 2.26 0 0 1 0-.26c0-.34.09-.67.16-1s.13-.69.21-1a4.45 4.45 0 0 1 1.8-2.9c.69-.47 1.42-.9 2.13-1.33a6.62 6.62 0 0 0 2.23-2.11 1 1 0 0 0 .24-.51.65.65 0 0 0 0-.31.8.8 0 0 0 0-.15l-.21.1a4.44 4.44 0 0 1-3.36.89 3.21 3.21 0 0 0-1.62.23.77.77 0 0 1-.56 0 .83.83 0 0 1-.57-.69.81.81 0 0 1 0-.22v-.15a2.85 2.85 0 0 1 .56-.89 23.33 23.33 0 0 1 5.48-3.64 11.41 11.41 0 0 0 1.49-1c.09-.07.11-.23.15-.36a1.76 1.76 0 0 0-.41-.11 1.57 1.57 0 0 0-.47.13 4 4 0 0 1-2.54.11c-.37-.08-.58-.3-.57-.56a.28.28 0 0 0 0-.09.7.7 0 0 1 .21-.38 7.11 7.11 0 0 1 1.32-1.07c.43-.26.94-.39 1.38-.64a1.33 1.33 0 0 0 .55-.62v-.07a.13.13 0 0 0 0-.06c0-.14-.15-.22-.39-.16a2.71 2.71 0 0 1-.57 0 .8.8 0 0 1-.82-.36.42.42 0 0 1 0-.19.53.53 0 0 1 0-.28.68.68 0 0 1 .23-.43 5.3 5.3 0 0 1 2.1-1.65 1 1 0 0 0 .27-.22l-.05-.09a2 2 0 0 1-.49 0 .87.87 0 0 1-.75-.52.35.35 0 0 1 0-.13.25.25 0 0 1 0-.08.22.22 0 0 1 0-.14c0-.15.16-.26.31-.4s.51-.41.77-.61l1.11-.87c.09-.07.15-.12.17-.18a.14.14 0 0 0 0-.09.57.57 0 0 0-.17-.18 3.92 3.92 0 0 1-.58-.5 1 1 0 0 1-.22-.42.34.34 0 0 1 0-.1c0-.27.19-.48.59-.56a.79.79 0 0 0 .73-.6c.14-.59.29-1.17.45-1.76a.9.9 0 0 1 .08-.28.84.84 0 0 1 .15-.3 1.1 1.1 0 0 1 .62-.25c.07 0 .23.21.24.36.15.58.29 1.17.41 1.76a.29.29 0 0 0 0 .09.66.66 0 0 0 .63.49.94.94 0 0 1 .62.46.08.08 0 0 1 0 .05 1.35 1.35 0 0 1-.23.57c-.08.13-.26.23-.33.32a.7.7 0 0 0-.15.26c0 .09.15.09.3.17a.9.9 0 0 0 .45.08.64.64 0 0 1 .48.22.42.42 0 0 1 .11.22.55.55 0 0 1 0 .31.63.63 0 0 1-.21.37 3.35 3.35 0 0 1-.57.56.72.72 0 0 0-.17.2.15.15 0 0 0 0 .07.62.62 0 0 0 .18.25c.29.28.62.53.93.79a6.58 6.58 0 0 1 .68.61.72.72 0 0 1 .2.29.85.85 0 0 1 0 .17 1 1 0 0 1 0 .34.76.76 0 0 1-.46.53c-.17.1-.25.15-.25.2s.1.11.25.24a11 11 0 0 1 1.57 1.48 1 1 0 0 1 .2.42.81.81 0 0 1 0 .22c0 .3-.36.51-.81.51a4.37 4.37 0 0 1-.72-.06c-.2 0-.34 0-.34.17a.32.32 0 0 0 .06.17 1.67 1.67 0 0 0 .58.6c.55.27 1.05.44 1.55.71a6 6 0 0 1 1.4 1 .82.82 0 0 1 .28.48 1.1 1.1 0 0 1 0 .18.39.39 0 0 1 0 .15.82.82 0 0 1-.8.69 7.6 7.6 0 0 1-1.35 0 2.57 2.57 0 0 0-1.4.13 3.41 3.41 0 0 0 .6.31 12.59 12.59 0 0 1 3.78 2 1.16 1.16 0 0 0 .64.23h14.12a.71.71 0 0 0 0-.21V82.78l.05-.03zm-.18 27.92c-2.52-2.54-5-5.06-7.57-7.59a.62.62 0 0 0-.38-.2h-4.43a1.6 1.6 0 0 0 0 .31c.22.8.45 1.6.65 2.41.15.6-.15 1.18-.64 1.18a2.94 2.94 0 0 1-.93-.13c-.3-.09-.56-.29-.86-.39-.86-.32-1.73-.62-2.6-.93-.38-.14-.75-.31-1.14-.43a.7.7 0 0 0-.42.09c-.06 0 0 .23 0 .33a2.32 2.32 0 0 0 1 1.26c.42.24.85.45 1.29.65a6.52 6.52 0 0 1 2.34 1.67 1.26 1.26 0 0 1 .3.78.23.23 0 0 1 0 .11.71.71 0 0 1-.91.45 2.57 2.57 0 0 0-1.6 0 2.11 2.11 0 0 1-.9.08 13.43 13.43 0 0 1-1.37-.42l-.34-.1a.1.1 0 0 1-.05 0 3.07 3.07 0 0 0 .5.58 25 25 0 0 0 2.91 1.89 5.87 5.87 0 0 1 2.91 3 8.15 8.15 0 0 1 .47 1.74.49.49 0 0 1 0 .17.51.51 0 0 1-.59.41 1.32 1.32 0 0 1-.63-.22 2.24 2.24 0 0 0-1.71-.46 2.89 2.89 0 0 1-2-.71l-.25-.15c0 .86 0 1 .85 1.34s1.6.7 2.39 1.07a3.84 3.84 0 0 1 2.16 2.57c.13.49-.09.86-.59.86a7.51 7.51 0 0 1-3.13-.62c-.41-.18-.91-.51-1.27-.46s-.47.24-.29.55a2.94 2.94 0 0 0 1.74 1.35c.59.18 1.21.24 1.8.41 1.06.3 1.58 1.07.8 2.15l-.27.33c-.33.38-.33.58.07.92a2.6 2.6 0 0 0 .45.28 4.54 4.54 0 0 1 2 1.9 10.65 10.65 0 0 1 1.08 3.56c.08.93-.49 1.36-1.37 1a3.19 3.19 0 0 1-.58-.3c-.86-.53-1.71-1.09-2.58-1.62a4.57 4.57 0 0 0-2.36-.72c-.56 0-1 .08-1.56.08a3 3 0 0 1-2.09-.67 1.87 1.87 0 0 0-.34-.19v.16c0 2.61 0 5.22.07 7.83a4.45 4.45 0 0 0 2.46 3.93 7.93 7.93 0 0 1 1.72 1.37 5.65 5.65 0 0 0 4 1.73c.77.05 1.54 0 2.3 0a1 1 0 0 0 .63-.26c.48-.44 1-1 1.48-1.44q3.71-3.54 7.39-7.1a.83.83 0 0 0 .21-.54v-24.35a.78.78 0 0 0-.25-.5zM116 127.4v-.32c-.28.24-.51.41-.7.61a3.57 3.57 0 0 1-2.3 1.13 13.68 13.68 0 0 0-1.81.18 9.34 9.34 0 0 0-4.4 2.5.84.84 0 0 1-1.52-.31 2.92 2.92 0 0 1 0-1.44 17.84 17.84 0 0 1 1-2.73 4.43 4.43 0 0 1 1.89-1.67 1.4 1.4 0 0 0 .27-.21l-.05-.07h-12.6v10.6a.72.72 0 0 0 .22.41l5.83 5.68c1 1 2 1.92 3 2.86a1 1 0 0 0 .64.24h2.64a4.44 4.44 0 0 0 1.4-.26 5 5 0 0 0 2.48-2.34 11 11 0 0 1 2.46-2.9 3 3 0 0 0 1.26-2c.1-1.09.23-2.17.23-3.26.06-2.23.01-4.46.06-6.7zm26.39-45.1v13.59a.29.29 0 0 0 0-.1V82.35a.06.06 0 0 0-.03-.05zm-.07-.22a.49.49 0 0 0-.11-.14.54.54 0 0 1 .13.2zm-1.21-1.2c.36.36.74.7 1.1 1.06zm-7.7 22.2a.62.62 0 0 0-.38-.2h-4.43a1.6 1.6 0 0 0 0 .31c.22.8.45 1.6.65 2.41.15.6-.15 1.18-.64 1.18a2.94 2.94 0 0 1-.93-.13c-.3-.09-.56-.29-.86-.39-.86-.32-1.73-.62-2.6-.93-.38-.14-.75-.31-1.14-.43a.7.7 0 0 0-.42.09c-.06 0 0 .23 0 .33a2.32 2.32 0 0 0 1 1.26c.42.24.85.45 1.29.65a6.52 6.52 0 0 1 2.34 1.67 1.26 1.26 0 0 1 .3.78.23.23 0 0 1 0 .11.71.71 0 0 1-.91.45 2.57 2.57 0 0 0-1.6 0 2.11 2.11 0 0 1-.9.08 13.43 13.43 0 0 1-1.37-.42l-.34-.1a.1.1 0 0 1-.05 0 3.07 3.07 0 0 0 .5.58 25 25 0 0 0 2.91 1.89 5.87 5.87 0 0 1 2.91 3 8.15 8.15 0 0 1 .47 1.74.49.49 0 0 1 0 .17.51.51 0 0 1-.59.41 1.32 1.32 0 0 1-.63-.22 2.24 2.24 0 0 0-1.71-.46 2.89 2.89 0 0 1-2-.71l-.25-.15c0 .86 0 1 .85 1.34s1.6.7 2.39 1.07a3.84 3.84 0 0 1 2.16 2.57c.13.49-.09.86-.59.86a7.51 7.51 0 0 1-3.13-.62c-.41-.18-.91-.51-1.27-.46s-.47.24-.29.55a2.94 2.94 0 0 0 1.74 1.35c.59.18 1.21.24 1.8.41 1.06.3 1.58 1.07.8 2.15l-.27.33c-.33.38-.33.58.07.92a2.6 2.6 0 0 0 .45.28 4.54 4.54 0 0 1 2 1.9 10.65 10.65 0 0 1 1.08 3.56c.08.93-.49 1.36-1.37 1a3.19 3.19 0 0 1-.58-.3c-.86-.53-1.71-1.09-2.58-1.62a4.57 4.57 0 0 0-2.36-.72c-.56 0-1 .08-1.56.08a3 3 0 0 1-2.09-.67 1.87 1.87 0 0 0-.34-.19v.16c0 2.61 0 5.22.07 7.83a4.45 4.45 0 0 0 2.46 3.93 7.93 7.93 0 0 1 1.72 1.37 5.65 5.65 0 0 0 4 1.73c.77.05 1.54 0 2.3 0a1 1 0 0 0 .63-.26c.48-.44 1-1 1.48-1.44q3.71-3.54 7.39-7.1a.83.83 0 0 0 .21-.54v-24.35a.78.78 0 0 0-.19-.5c-2.58-2.54-5.1-5.06-7.63-7.59zm7.69-20.48a.6.6 0 0 0-.14-.21c-.42-.47-1-.93-1.42-1.39l-7.67-7.28a.87.87 0 0 0-.54-.19h-26a1 1 0 0 0-.6.25c-.57.5-1 1-1.57 1.5L96 82.2a.76.76 0 0 0-.23.34.61.61 0 0 0-.06.19.86.86 0 0 0 0 .23v25.35a.65.65 0 0 0 0 .2 1 1 0 0 0 .28.5c2.47 2.47 4.92 4.94 7.39 7.39a.79.79 0 0 0 .56.23h6a2.21 2.21 0 0 0 .63-.13c.45-.18.9-.4 1.35-.59s.83-.46.88-.86a2.58 2.58 0 0 0 0-.65 9.72 9.72 0 0 1-1.2-.13 3.71 3.71 0 0 0-2.48.07.7.7 0 0 1-.65-.13.72.72 0 0 1-.09-.2.9.9 0 0 1 0-.43 4.09 4.09 0 0 1 1.87-2.24c1.07-.67 2.19-1.3 3.27-2a2.33 2.33 0 0 0 1.17-1.53.66.66 0 0 0 0-.28l-.3.09a4.37 4.37 0 0 1-2.95.79 5.67 5.67 0 0 1-.82-.09c-.25-.06-.57-.13-.67-.32a.26.26 0 0 1 0-.08 1.92 1.92 0 0 1 0-.24 2.79 2.79 0 0 1 .1-.43c0-.12.17-.22.26-.32a5.52 5.52 0 0 1 2.13-1.36 3 3 0 0 0 1.56-1.47 1.3 1.3 0 0 0 .08-.34H114a4.68 4.68 0 0 1-3 .77 2.5 2.5 0 0 0-2 1 1.82 1.82 0 0 1-.56.51c-.27.15-.61.18-.76-.14a2.06 2.06 0 0 1-.21-.65 2.26 2.26 0 0 1 0-.26c0-.34.09-.67.16-1s.13-.69.21-1a4.45 4.45 0 0 1 1.8-2.9c.69-.47 1.42-.9 2.13-1.33a6.62 6.62 0 0 0 2.23-2.11 1 1 0 0 0 .24-.51.65.65 0 0 0 0-.31.4.4 0 0 0 0-.15l-.21.1a4.45 4.45 0 0 1-3.36.89 3.21 3.21 0 0 0-1.62.23.77.77 0 0 1-.56 0 .83.83 0 0 1-.57-.66.81.81 0 0 1 0-.22v-.15a2.85 2.85 0 0 1 .56-.89 23.33 23.33 0 0 1 5.48-3.64 11.41 11.41 0 0 0 1.49-1c.09-.07.11-.23.15-.36a1.83 1.83 0 0 0-.42-.11 1.56 1.56 0 0 0-.47.13 4 4 0 0 1-2.54.11c-.36-.08-.56-.28-.57-.53a.28.28 0 0 0 0-.09.7.7 0 0 1 .21-.38 7.11 7.11 0 0 1 1.32-1.07c.43-.26.94-.39 1.38-.64a1.33 1.33 0 0 0 .55-.62v-.07a.13.13 0 0 0 0-.06c0-.16-.14-.25-.39-.19a2.71 2.71 0 0 1-.57 0 .8.8 0 0 1-.82-.36.75.75 0 0 1 0-.16.53.53 0 0 1 0-.28.68.68 0 0 1 .23-.43 5.3 5.3 0 0 1 2.1-1.65 1 1 0 0 0 .27-.22l-.06-.11a2 2 0 0 1-.49 0 .87.87 0 0 1-.75-.52.38.38 0 0 1 0-.1.25.25 0 0 1 0-.08.22.22 0 0 1 0-.14c0-.15.16-.26.31-.4s.51-.41.77-.61l1.11-.87c.09-.07.15-.12.17-.18a.14.14 0 0 0 0-.09.35.35 0 0 0-.17-.21 3.93 3.93 0 0 1-.58-.5 1 1 0 0 1-.22-.39.34.34 0 0 1 0-.1c0-.27.19-.48.59-.56a.79.79 0 0 0 .73-.6c.14-.59.29-1.17.45-1.76a.9.9 0 0 1 .08-.28.84.84 0 0 1 .15-.3 1.1 1.1 0 0 1 .62-.25c.07 0 .23.21.24.36.15.58.29 1.17.41 1.76a.29.29 0 0 0 0 .09.66.66 0 0 0 .63.49.94.94 0 0 1 .62.46.08.08 0 0 1 0 .05 1.55 1.55 0 0 1-.23.54c-.08.13-.26.23-.33.32s-.16.2-.15.29c0 .09.15.09.3.17a.9.9 0 0 0 .45.08.64.64 0 0 1 .48.22.42.42 0 0 1 .11.22.55.55 0 0 1 0 .31.62.62 0 0 1-.21.34 3.37 3.37 0 0 1-.57.56c-.09.09-.16.16-.17.23a.15.15 0 0 0 0 .07.62.62 0 0 0 .18.25c.29.28.62.53.93.79a6.58 6.58 0 0 1 .68.61.72.72 0 0 1 .2.29.85.85 0 0 1 0 .17 1 1 0 0 1 0 .34.81.81 0 0 1-.46.5c-.2.12-.28.17-.25.23s.1.11.25.24a11 11 0 0 1 1.57 1.48 1 1 0 0 1 .2.42.81.81 0 0 1 0 .22.76.76 0 0 1-.81.48 4.37 4.37 0 0 1-.72-.06c-.21 0-.36.05-.34.2a.32.32 0 0 0 .06.17 1.67 1.67 0 0 0 .58.6c.55.27 1.05.44 1.55.71a6 6 0 0 1 1.4 1 .82.82 0 0 1 .28.48 1.1 1.1 0 0 1 0 .18.39.39 0 0 1 0 .15.81.81 0 0 1-.8.66 7.6 7.6 0 0 1-1.35 0 2.58 2.58 0 0 0-1.43.14 3.41 3.41 0 0 0 .6.31 12.59 12.59 0 0 1 3.78 2 1.16 1.16 0 0 0 .64.23h14.14a.74.74 0 0 0 0-.21V82.78a.4.4 0 0 0 .05-.18zm-8.62-10a.88.88 0 0 0-.56-.23H105a.91.91 0 0 0-.54.19l-7 6.7c-.9.87-1.79 1.75-2.7 2.6.91-.85 1.8-1.73 2.7-2.6l7-6.7a.91.91 0 0 1 .54-.19h26.92a.88.88 0 0 1 .56.23l7.52 7.23c.37.35.73.71 1.11 1L140 79.82zm-5.27 29c-.6-.35-1.17-.73-1.76-1.08a8 8 0 0 1-1.92-1.52 7.42 7.42 0 0 0 1.92 1.45c.59.35 1.16.73 1.76 1.08a.91.91 0 0 0 .43.08h5.63a.78.78 0 0 1 .6.24.78.78 0 0 0-.6-.24h-5.63a.92.92 0 0 1-.43-.05zm.87-5.66l.06.11a.37.37 0 0 1-.05-.11zM116 127.08c-.28.24-.51.41-.7.61a3.57 3.57 0 0 1-2.3 1.13 13.68 13.68 0 0 0-1.81.18 9.34 9.34 0 0 0-4.4 2.5.84.84 0 0 1-1.52-.31 2.92 2.92 0 0 1 0-1.44 17.84 17.84 0 0 1 1-2.73 4.43 4.43 0 0 1 1.89-1.67 1.4 1.4 0 0 0 .27-.21l-.05-.07h-12.6v10.6a.72.72 0 0 0 .22.41l5.83 5.68c1 1 2 1.92 3 2.86a1 1 0 0 0 .64.24h2.64a4.44 4.44 0 0 0 1.4-.26 5 5 0 0 0 2.48-2.34 11 11 0 0 1 2.46-2.9 3 3 0 0 0 1.26-2c.1-1.09.23-2.17.23-3.26.06-2.23 0-4.46 0-6.7zm-5.3-5.74a3.06 3.06 0 0 0 1.62-.94 3.2 3.2 0 0 1-1.62.93c-.58.14-1.17.21-1.73.39a1.56 1.56 0 0 0-.67.43 1.61 1.61 0 0 1 .67-.42c.53-.18 1.12-.25 1.7-.39zm-2 2.48c-.48 0-.86-.1-1.23-.1H95c-.28 0-.42 0-.48.08.07-.07.21-.07.48-.07h12.43c.37-.01.75.09 1.23.09zm32.47-41.07a.4.4 0 0 0 0-.15.6.6 0 0 0-.14-.21c-.42-.47-1-.93-1.42-1.39l-7.67-7.25a.87.87 0 0 0-.54-.19h-26a1 1 0 0 0-.6.25c-.57.5-1 1-1.57 1.5L96 82.23a1 1 0 0 0-.23.31.61.61 0 0 0-.06.19.86.86 0 0 0 0 .23v25.35a.65.65 0 0 0 0 .2 1 1 0 0 0 .28.5c2.47 2.47 4.92 4.94 7.39 7.39a.79.79 0 0 0 .56.23h6a2.21 2.21 0 0 0 .63-.13c.45-.18.9-.4 1.35-.59s.83-.46.88-.86a2.58 2.58 0 0 0 0-.65 9.82 9.82 0 0 1-1.2-.13 3.71 3.71 0 0 0-2.48.07.7.7 0 0 1-.65-.13.65.65 0 0 1-.09-.23.9.9 0 0 1 0-.43 4.09 4.09 0 0 1 1.87-2.24c1.07-.67 2.19-1.3 3.27-2a2.33 2.33 0 0 0 1.17-1.53.66.66 0 0 0 0-.28l-.3.09a4.37 4.37 0 0 1-2.95.79 5.74 5.74 0 0 1-.82-.09c-.25-.06-.57-.13-.67-.32a.2.2 0 0 1 0-.11 1.92 1.92 0 0 1 0-.24 2.79 2.79 0 0 1 .1-.43c0-.12.17-.22.26-.32a5.52 5.52 0 0 1 2.13-1.36 3 3 0 0 0 1.56-1.41 1.3 1.3 0 0 0 .08-.34H114a4.68 4.68 0 0 1-3 .77 2.5 2.5 0 0 0-2 1 1.82 1.82 0 0 1-.56.51c-.27.15-.61.18-.76-.14a2 2 0 0 1-.21-.68 2.26 2.26 0 0 1 0-.26c0-.34.09-.67.16-1s.13-.69.21-1a4.45 4.45 0 0 1 1.8-2.9c.69-.47 1.42-.9 2.13-1.33a6.62 6.62 0 0 0 2.23-2.11 1 1 0 0 0 .24-.51.65.65 0 0 0 0-.31.8.8 0 0 0 0-.15l-.21.1a4.44 4.44 0 0 1-3.36.89 3.21 3.21 0 0 0-1.62.23.77.77 0 0 1-.56 0 .83.83 0 0 1-.57-.69.81.81 0 0 1 0-.22v-.15a2.85 2.85 0 0 1 .56-.89 23.33 23.33 0 0 1 5.48-3.64 11.41 11.41 0 0 0 1.49-1c.09-.07.11-.23.15-.36a1.76 1.76 0 0 0-.41-.11 1.57 1.57 0 0 0-.47.13 4 4 0 0 1-2.54.11c-.37-.08-.58-.3-.57-.56a.28.28 0 0 0 0-.09.7.7 0 0 1 .21-.38 7.11 7.11 0 0 1 1.32-1.07c.43-.26.94-.39 1.38-.64a1.33 1.33 0 0 0 .55-.62v-.07a.13.13 0 0 0 0-.06c0-.14-.15-.22-.39-.16a2.71 2.71 0 0 1-.57 0 .8.8 0 0 1-.82-.36.42.42 0 0 1 0-.19.53.53 0 0 1 0-.28.68.68 0 0 1 .23-.43 5.3 5.3 0 0 1 2.1-1.65 1 1 0 0 0 .27-.22l-.05-.09a2 2 0 0 1-.49 0 .87.87 0 0 1-.75-.52.35.35 0 0 1 0-.13.25.25 0 0 1 0-.08.22.22 0 0 1 0-.14c0-.15.16-.26.31-.4s.51-.41.77-.61l1.11-.87c.09-.07.15-.12.17-.18a.14.14 0 0 0 0-.09.57.57 0 0 0-.17-.18 3.92 3.92 0 0 1-.58-.5 1 1 0 0 1-.22-.42.34.34 0 0 1 0-.1c0-.27.19-.48.59-.56a.79.79 0 0 0 .73-.6c.14-.59.29-1.17.45-1.76a.9.9 0 0 1 .08-.28.84.84 0 0 1 .15-.3 1.1 1.1 0 0 1 .62-.25c.07 0 .23.21.24.36.15.58.29 1.17.41 1.76a.29.29 0 0 0 0 .09.66.66 0 0 0 .63.49.94.94 0 0 1 .62.46.08.08 0 0 1 0 .05 1.35 1.35 0 0 1-.23.57c-.08.13-.26.23-.33.32a.7.7 0 0 0-.15.26c0 .09.15.09.3.17a.9.9 0 0 0 .45.08.64.64 0 0 1 .48.22.42.42 0 0 1 .11.22.55.55 0 0 1 0 .31.63.63 0 0 1-.21.37 3.35 3.35 0 0 1-.57.56.72.72 0 0 0-.17.2.15.15 0 0 0 0 .07.62.62 0 0 0 .18.25c.29.28.62.53.93.79a6.58 6.58 0 0 1 .68.61.72.72 0 0 1 .2.29.85.85 0 0 1 0 .17 1 1 0 0 1 0 .34.76.76 0 0 1-.46.53c-.17.1-.25.15-.25.2s.1.11.25.24a11 11 0 0 1 1.57 1.48 1 1 0 0 1 .2.42.81.81 0 0 1 0 .22c0 .3-.36.51-.81.51a4.37 4.37 0 0 1-.72-.06c-.2 0-.34 0-.34.17a.32.32 0 0 0 .06.17 1.67 1.67 0 0 0 .58.6c.55.27 1.05.44 1.55.71a6 6 0 0 1 1.4 1 .82.82 0 0 1 .28.48 1.1 1.1 0 0 1 0 .18.39.39 0 0 1 0 .15.82.82 0 0 1-.8.69 7.6 7.6 0 0 1-1.35 0 2.57 2.57 0 0 0-1.4.13 3.41 3.41 0 0 0 .6.31 12.59 12.59 0 0 1 3.78 2 1.16 1.16 0 0 0 .64.23h14.12a.71.71 0 0 0 0-.21V82.78l.05-.03zm-.18 27.92c-2.52-2.54-5-5.06-7.57-7.59a.62.62 0 0 0-.38-.2h-4.43a1.6 1.6 0 0 0 0 .31c.22.8.45 1.6.65 2.41.15.6-.15 1.18-.64 1.18a2.94 2.94 0 0 1-.93-.13c-.3-.09-.56-.29-.86-.39-.86-.32-1.73-.62-2.6-.93-.38-.14-.75-.31-1.14-.43a.7.7 0 0 0-.42.09c-.06 0 0 .23 0 .33a2.32 2.32 0 0 0 1 1.26c.42.24.85.45 1.29.65a6.52 6.52 0 0 1 2.34 1.67 1.26 1.26 0 0 1 .3.78.23.23 0 0 1 0 .11.71.71 0 0 1-.91.45 2.57 2.57 0 0 0-1.6 0 2.11 2.11 0 0 1-.9.08 13.43 13.43 0 0 1-1.37-.42l-.34-.1a.1.1 0 0 1-.05 0 3.07 3.07 0 0 0 .5.58 25 25 0 0 0 2.91 1.89 5.87 5.87 0 0 1 2.91 3 8.15 8.15 0 0 1 .47 1.74.49.49 0 0 1 0 .17.51.51 0 0 1-.59.41 1.32 1.32 0 0 1-.63-.22 2.24 2.24 0 0 0-1.71-.46 2.89 2.89 0 0 1-2-.71l-.25-.15c0 .86 0 1 .85 1.34s1.6.7 2.39 1.07a3.84 3.84 0 0 1 2.16 2.57c.13.49-.09.86-.59.86a7.51 7.51 0 0 1-3.13-.62c-.41-.18-.91-.51-1.27-.46s-.47.24-.29.55a2.94 2.94 0 0 0 1.74 1.35c.59.18 1.21.24 1.8.41 1.06.3 1.58 1.07.8 2.15l-.27.33c-.33.38-.33.58.07.92a2.6 2.6 0 0 0 .45.28 4.54 4.54 0 0 1 2 1.9 10.65 10.65 0 0 1 1.08 3.56c.08.93-.49 1.36-1.37 1a3.19 3.19 0 0 1-.58-.3c-.86-.53-1.71-1.09-2.58-1.62a4.57 4.57 0 0 0-2.36-.72c-.56 0-1 .08-1.56.08a3 3 0 0 1-2.09-.67 1.87 1.87 0 0 0-.34-.19v.16c0 2.61 0 5.22.07 7.83a4.45 4.45 0 0 0 2.46 3.93 7.93 7.93 0 0 1 1.72 1.37 5.65 5.65 0 0 0 4 1.73c.77.05 1.54 0 2.3 0a1 1 0 0 0 .63-.26c.48-.44 1-1 1.48-1.44q3.71-3.54 7.39-7.1a.83.83 0 0 0 .21-.54v-24.35a.78.78 0 0 0-.26-.5zM116 127.4v-.32c-.28.24-.51.41-.7.61a3.57 3.57 0 0 1-2.3 1.13 13.68 13.68 0 0 0-1.81.18 9.34 9.34 0 0 0-4.4 2.5.84.84 0 0 1-1.52-.31 2.92 2.92 0 0 1 0-1.44 17.84 17.84 0 0 1 1-2.73 4.43 4.43 0 0 1 1.89-1.67 1.4 1.4 0 0 0 .27-.21l-.05-.07h-12.6v10.6a.72.72 0 0 0 .22.41l5.83 5.68c1 1 2 1.92 3 2.86a1 1 0 0 0 .64.24h2.64a4.44 4.44 0 0 0 1.4-.26 5 5 0 0 0 2.48-2.34 11 11 0 0 1 2.46-2.9 3 3 0 0 0 1.26-2c.1-1.09.23-2.17.23-3.26.06-2.23.01-4.46.06-6.7zm26.39-45.1v13.59a.29.29 0 0 0 0-.1V82.35a.06.06 0 0 0-.03-.05zm-.07-.22a.49.49 0 0 0-.11-.14.54.54 0 0 1 .13.2zm-1.21-1.2c.36.36.74.7 1.1 1.06zm-7.7 22.2a.62.62 0 0 0-.38-.2h-4.43a1.6 1.6 0 0 0 0 .31c.22.8.45 1.6.65 2.41.15.6-.15 1.18-.64 1.18a2.94 2.94 0 0 1-.93-.13c-.3-.09-.56-.29-.86-.39-.86-.32-1.73-.62-2.6-.93-.38-.14-.75-.31-1.14-.43a.7.7 0 0 0-.42.09c-.06 0 0 .23 0 .33a2.32 2.32 0 0 0 1 1.26c.42.24.85.45 1.29.65a6.52 6.52 0 0 1 2.34 1.67 1.26 1.26 0 0 1 .3.78.23.23 0 0 1 0 .11.71.71 0 0 1-.91.45 2.57 2.57 0 0 0-1.6 0 2.11 2.11 0 0 1-.9.08 13.43 13.43 0 0 1-1.37-.42l-.34-.1a.1.1 0 0 1-.05 0 3.07 3.07 0 0 0 .5.58 25 25 0 0 0 2.91 1.89 5.87 5.87 0 0 1 2.91 3 8.15 8.15 0 0 1 .47 1.74.49.49 0 0 1 0 .17.51.51 0 0 1-.59.41 1.32 1.32 0 0 1-.63-.22 2.24 2.24 0 0 0-1.71-.46 2.89 2.89 0 0 1-2-.71l-.25-.15c0 .86 0 1 .85 1.34s1.6.7 2.39 1.07a3.84 3.84 0 0 1 2.16 2.57c.13.49-.09.86-.59.86a7.51 7.51 0 0 1-3.13-.62c-.41-.18-.91-.51-1.27-.46s-.47.24-.29.55a2.94 2.94 0 0 0 1.74 1.35c.59.18 1.21.24 1.8.41 1.06.3 1.58 1.07.8 2.15l-.27.33c-.33.38-.33.58.07.92a2.6 2.6 0 0 0 .45.28 4.54 4.54 0 0 1 2 1.9 10.65 10.65 0 0 1 1.08 3.56c.08.93-.49 1.36-1.37 1a3.19 3.19 0 0 1-.58-.3c-.86-.53-1.71-1.09-2.58-1.62a4.57 4.57 0 0 0-2.36-.72c-.56 0-1 .08-1.56.08a3 3 0 0 1-2.09-.67 1.87 1.87 0 0 0-.34-.19v.16c0 2.61 0 5.22.07 7.83a4.45 4.45 0 0 0 2.46 3.93 7.93 7.93 0 0 1 1.72 1.37 5.65 5.65 0 0 0 4 1.73c.77.05 1.54 0 2.3 0a1 1 0 0 0 .63-.26c.48-.44 1-1 1.48-1.44q3.71-3.54 7.39-7.1a.83.83 0 0 0 .21-.54v-24.35a.78.78 0 0 0-.19-.5c-2.58-2.54-5.1-5.06-7.63-7.59zm7.69-20.48a.6.6 0 0 0-.14-.21c-.42-.47-1-.93-1.42-1.39l-7.67-7.28a.87.87 0 0 0-.54-.19h-26a1 1 0 0 0-.6.25c-.57.5-1 1-1.57 1.5L96 82.2a.76.76 0 0 0-.23.34.61.61 0 0 0-.06.19.86.86 0 0 0 0 .23v25.35a.65.65 0 0 0 0 .2 1 1 0 0 0 .28.5c2.47 2.47 4.92 4.94 7.39 7.39a.79.79 0 0 0 .56.23h6a2.21 2.21 0 0 0 .63-.13c.45-.18.9-.4 1.35-.59s.83-.46.88-.86a2.58 2.58 0 0 0 0-.65 9.72 9.72 0 0 1-1.2-.13 3.71 3.71 0 0 0-2.48.07.7.7 0 0 1-.65-.13.72.72 0 0 1-.09-.2.9.9 0 0 1 0-.43 4.09 4.09 0 0 1 1.87-2.24c1.07-.67 2.19-1.3 3.27-2a2.33 2.33 0 0 0 1.17-1.53.66.66 0 0 0 0-.28l-.3.09a4.37 4.37 0 0 1-2.95.79 5.67 5.67 0 0 1-.82-.09c-.25-.06-.57-.13-.67-.32a.26.26 0 0 1 0-.08 1.92 1.92 0 0 1 0-.24 2.79 2.79 0 0 1 .1-.43c0-.12.17-.22.26-.32a5.52 5.52 0 0 1 2.13-1.36 3 3 0 0 0 1.56-1.47 1.3 1.3 0 0 0 .08-.34H114a4.68 4.68 0 0 1-3 .77 2.5 2.5 0 0 0-2 1 1.82 1.82 0 0 1-.56.51c-.27.15-.61.18-.76-.14a2.06 2.06 0 0 1-.21-.65 2.26 2.26 0 0 1 0-.26c0-.34.09-.67.16-1s.13-.69.21-1a4.45 4.45 0 0 1 1.8-2.9c.69-.47 1.42-.9 2.13-1.33a6.62 6.62 0 0 0 2.23-2.11 1 1 0 0 0 .24-.51.65.65 0 0 0 0-.31.4.4 0 0 0 0-.15l-.21.1a4.45 4.45 0 0 1-3.36.89 3.21 3.21 0 0 0-1.62.23.77.77 0 0 1-.56 0 .83.83 0 0 1-.57-.66.81.81 0 0 1 0-.22v-.15a2.85 2.85 0 0 1 .56-.89 23.33 23.33 0 0 1 5.48-3.64 11.41 11.41 0 0 0 1.49-1c.09-.07.11-.23.15-.36a1.83 1.83 0 0 0-.42-.11 1.56 1.56 0 0 0-.47.13 4 4 0 0 1-2.54.11c-.36-.08-.56-.28-.57-.53a.28.28 0 0 0 0-.09.7.7 0 0 1 .21-.38 7.11 7.11 0 0 1 1.32-1.07c.43-.26.94-.39 1.38-.64a1.33 1.33 0 0 0 .55-.62v-.07a.13.13 0 0 0 0-.06c0-.16-.14-.25-.39-.19a2.71 2.71 0 0 1-.57 0 .8.8 0 0 1-.82-.36.75.75 0 0 1 0-.16.53.53 0 0 1 0-.28.68.68 0 0 1 .23-.43 5.3 5.3 0 0 1 2.1-1.65 1 1 0 0 0 .27-.22l-.06-.11a2 2 0 0 1-.49 0 .87.87 0 0 1-.75-.52.38.38 0 0 1 0-.1.25.25 0 0 1 0-.08.22.22 0 0 1 0-.14c0-.15.16-.26.31-.4s.51-.41.77-.61l1.11-.87c.09-.07.15-.12.17-.18a.14.14 0 0 0 0-.09.35.35 0 0 0-.17-.21 3.93 3.93 0 0 1-.58-.5 1 1 0 0 1-.22-.39.34.34 0 0 1 0-.1c0-.27.19-.48.59-.56a.79.79 0 0 0 .73-.6c.14-.59.29-1.17.45-1.76a.9.9 0 0 1 .08-.28.84.84 0 0 1 .15-.3 1.1 1.1 0 0 1 .62-.25c.07 0 .23.21.24.36.15.58.29 1.17.41 1.76a.29.29 0 0 0 0 .09.66.66 0 0 0 .63.49.94.94 0 0 1 .62.46.08.08 0 0 1 0 .05 1.55 1.55 0 0 1-.23.54c-.08.13-.26.23-.33.32s-.16.2-.15.29c0 .09.15.09.3.17a.9.9 0 0 0 .45.08.64.64 0 0 1 .48.22.42.42 0 0 1 .11.22.55.55 0 0 1 0 .31.62.62 0 0 1-.21.34 3.37 3.37 0 0 1-.57.56c-.09.09-.16.16-.17.23a.15.15 0 0 0 0 .07.62.62 0 0 0 .18.25c.29.28.62.53.93.79a6.58 6.58 0 0 1 .68.61.72.72 0 0 1 .2.29.85.85 0 0 1 0 .17 1 1 0 0 1 0 .34.81.81 0 0 1-.46.5c-.2.12-.28.17-.25.23s.1.11.25.24a11 11 0 0 1 1.57 1.48 1 1 0 0 1 .2.42.81.81 0 0 1 0 .22.76.76 0 0 1-.81.48 4.37 4.37 0 0 1-.72-.06c-.21 0-.36.05-.34.2a.32.32 0 0 0 .06.17 1.67 1.67 0 0 0 .58.6c.55.27 1.05.44 1.55.71a6 6 0 0 1 1.4 1 .82.82 0 0 1 .28.48 1.1 1.1 0 0 1 0 .18.39.39 0 0 1 0 .15.81.81 0 0 1-.8.66 7.6 7.6 0 0 1-1.35 0 2.58 2.58 0 0 0-1.43.14 3.41 3.41 0 0 0 .6.31 12.59 12.59 0 0 1 3.78 2 1.16 1.16 0 0 0 .64.23h14.14a.74.74 0 0 0 0-.21V82.78a.4.4 0 0 0 .05-.18zm-8.62-10a.88.88 0 0 0-.56-.23H105a.91.91 0 0 0-.54.19l-7 6.7c-.9.87-1.79 1.75-2.7 2.6.91-.85 1.8-1.73 2.7-2.6l7-6.7a.91.91 0 0 1 .54-.19h26.92a.88.88 0 0 1 .56.23l7.52 7.23c.37.35.73.71 1.11 1L140 79.82zm-5.27 29c-.6-.35-1.17-.73-1.76-1.08a8 8 0 0 1-1.92-1.52 7.42 7.42 0 0 0 1.92 1.45c.59.35 1.16.73 1.76 1.08a.91.91 0 0 0 .43.08h5.63a.78.78 0 0 1 .6.24.78.78 0 0 0-.6-.24h-5.63a.92.92 0 0 1-.43-.05zm.87-5.66l.06.11a.37.37 0 0 1-.05-.11zM116 127.08c-.28.24-.51.41-.7.61a3.57 3.57 0 0 1-2.3 1.13 13.68 13.68 0 0 0-1.81.18 9.34 9.34 0 0 0-4.4 2.5.84.84 0 0 1-1.52-.31 2.92 2.92 0 0 1 0-1.44 17.84 17.84 0 0 1 1-2.73 4.43 4.43 0 0 1 1.89-1.67 1.4 1.4 0 0 0 .27-.21l-.05-.07h-12.6v10.6a.72.72 0 0 0 .22.41l5.83 5.68c1 1 2 1.92 3 2.86a1 1 0 0 0 .64.24h2.64a4.44 4.44 0 0 0 1.4-.26 5 5 0 0 0 2.48-2.34 11 11 0 0 1 2.46-2.9 3 3 0 0 0 1.26-2c.1-1.09.23-2.17.23-3.26.06-2.23 0-4.46 0-6.7zm-5.3-5.74a3.06 3.06 0 0 0 1.62-.94 3.2 3.2 0 0 1-1.62.93c-.58.14-1.17.21-1.73.39a1.56 1.56 0 0 0-.67.43 1.61 1.61 0 0 1 .67-.42c.53-.18 1.12-.25 1.7-.39zm-2 2.48c-.48 0-.86-.1-1.23-.1H95c-.28 0-.42 0-.48.08.07-.07.21-.07.48-.07h12.43c.37-.01.75.09 1.23.09z"/></svg>