<svg data-name="Layer 1" xmlns="http://www.w3.org/2000/svg" width="236.88" height="222.39" viewBox="0 0 236.88 222.39"><title>client-logos-2017-</title><path d="M141 112.06c0-.11 0-.22-.07-.33l-.09-.33a19.05 19.05 0 0 1 .41 3.11 21.81 21.81 0 0 1-.43 2.28 2.64 2.64 0 0 1-.74 1.25.67.67 0 0 0 .16-.14c.06-.07.13-.14.19-.22a3.07 3.07 0 0 0 .42-.89c.09-.37.17-.75.25-1.13s.13-.76.18-1.15a20.19 20.19 0 0 0-.28-2.45zm-.43-1.79l-.18-.59a.41.41 0 0 0 0-.1q.15.45.27.9c-.08-.07-.09-.14-.11-.21zm-1 8.1a1.44 1.44 0 0 0 .51-.33 2 2 0 0 1-.53.33zm.24-10.23l-.06-.13a2 2 0 0 0-.1-.21 1.09 1.09 0 0 0-.11-.18.82.82 0 0 1-.08-.12 4.78 4.78 0 0 1 .32.64c.11.25.21.51.31.76-.09-.25-.19-.51-.3-.76zm-.76-1.29a5.25 5.25 0 0 0-.5-.56l-.26-.25-.3-.23a2.23 2.23 0 0 0-.86-.45 2.59 2.59 0 0 1 .83.45 5.33 5.33 0 0 1 1.32 1.36 2.2 2.2 0 0 0-.28-.32zm-2.92-1.58h-.22.25zm-.88 10.48A15.22 15.22 0 0 1 134 111a12.74 12.74 0 0 1 0-3.49 2.47 2.47 0 0 1 .54-1.35 2 2 0 0 1 .19-.21 1.35 1.35 0 0 0-.2.21 2.47 2.47 0 0 0-.54 1.35 12.74 12.74 0 0 0 0 3.49 15.22 15.22 0 0 0 1.27 4.73 4.83 4.83 0 0 0 .54 1 5.31 5.31 0 0 1-.57-.98zm5.75-3.69c0-.11 0-.22-.07-.33l-.09-.33a19.05 19.05 0 0 1 .41 3.11 21.81 21.81 0 0 1-.43 2.28 2.64 2.64 0 0 1-.74 1.25.67.67 0 0 0 .16-.14c.06-.07.13-.14.19-.22a3.07 3.07 0 0 0 .42-.89c.09-.37.17-.75.25-1.13s.13-.76.18-1.15a20.19 20.19 0 0 0-.28-2.45zm-.43-1.79l-.18-.59a.41.41 0 0 0 0-.1q.15.45.27.9c-.08-.07-.09-.14-.11-.21zm-1 8.1a1.44 1.44 0 0 0 .51-.33 2 2 0 0 1-.53.33zm.24-10.23l-.06-.13a2 2 0 0 0-.1-.21 1.09 1.09 0 0 0-.11-.18.82.82 0 0 1-.08-.12 4.78 4.78 0 0 1 .32.64c.11.25.21.51.31.76-.09-.25-.19-.51-.3-.76zm-.76-1.29a5.25 5.25 0 0 0-.5-.56l-.26-.25-.3-.23a2.23 2.23 0 0 0-.86-.45 2.59 2.59 0 0 1 .83.45 5.33 5.33 0 0 1 1.32 1.36 2.2 2.2 0 0 0-.28-.32zm-2.92-1.58h-.22.25zm-.88 10.48A15.22 15.22 0 0 1 134 111a12.74 12.74 0 0 1 0-3.49 2.47 2.47 0 0 1 .54-1.35 2 2 0 0 1 .19-.21 1.35 1.35 0 0 0-.2.21 2.47 2.47 0 0 0-.54 1.35 12.74 12.74 0 0 0 0 3.49 15.22 15.22 0 0 0 1.27 4.73 4.83 4.83 0 0 0 .54 1 5.31 5.31 0 0 1-.57-.98zm-35.07-4.27h-1 1v2a19.32 19.32 0 0 0-.02-2zm-3.91 4.74a4.35 4.35 0 0 1-.17-2.55 1.35 1.35 0 0 1 .08-.24 1.17 1.17 0 0 0-.09.24 4.35 4.35 0 0 0 .17 2.55 1.48 1.48 0 0 0 .1.22zm0-3.13v.1a2.09 2.09 0 0 1 .11-.21zm23.29 11.24c0-.09 0-.2-.05-.3l-.06-.33a1.8 1.8 0 0 0-.21-.55 2.49 2.49 0 0 0-.2-.32 1.84 1.84 0 0 0-.27-.29 7.63 7.63 0 0 0-1.09-.83.48.48 0 0 0-.3-.11h-.06a.18.18 0 0 0-.07.05.22.22 0 0 0-.07.09.34.34 0 0 0-.07.12 2.64 2.64 0 0 0-.17.47 3.72 3.72 0 0 0-.2 1c0-.16 0-.33.08-.49a5 5 0 0 1 .3-.93c.09-.22.21-.32.39-.26h.14c.29.2.57.38.83.59a2.4 2.4 0 0 1 .91 1.38 4 4 0 0 1 .1.5.62.62 0 0 1 0 .13 2.45 2.45 0 0 1 0 .28 2.32 2.32 0 0 0 .1-.2zm-.14.73a.94.94 0 0 0 0-.18 1 1 0 0 1-.07.21zm-.76.64l.25-.08.18-.12a.1.1 0 0 0 .06-.05l.06-.06a.41.41 0 0 0 0-.09 1.08 1.08 0 0 1-.52.4zm-2-1.56v.31a1.39 1.39 0 0 0 .15.5 1.52 1.52 0 0 0 .34.41 1.46 1.46 0 0 1-.49-.94c.11-.07.1-.17.08-.28zm-2.21-15.39a12.74 12.74 0 0 1-.11-2.14 2.13 2.13 0 0 1 .33-1.13 1.92 1.92 0 0 0-.34 1.13 12.74 12.74 0 0 0 .11 2.14A10 10 0 0 0 115 111a11.12 11.12 0 0 1-.47-2.25zm1.54 4.35c0-.08-.11-.16-.16-.25l.15.25zm2 1.51zm2.06-3.31v-.44-.37a12.6 12.6 0 0 0-.51-2.1c-.06-.17-.12-.34-.19-.51s-.21-.5-.33-.74-.25-.48-.39-.72a3.46 3.46 0 0 0-.61-.8 3.13 3.13 0 0 0-.82-.58 2.13 2.13 0 0 0-.49-.15 4 4 0 0 1 .45.15 3.31 3.31 0 0 1 1.44 1.38 11.43 11.43 0 0 1 1.42 4.07c.07.37.16.81.21 1.18a2.65 2.65 0 0 1 0 .48c0 .4-.07.76-.13 1.11a1.62 1.62 0 0 1-.23.56 1.74 1.74 0 0 1-1 .76.71.71 0 0 0 .19-.06 1.11 1.11 0 0 0 .19-.09l.17-.1.16-.14a1.49 1.49 0 0 0 .2-.23.16.16 0 0 0 .06-.08 1.51 1.51 0 0 0 .15-.28 1.71 1.71 0 0 0 .1-.32c.06-.35.09-.71.13-1.11a1.51 1.51 0 0 0 0-.3c-.02-.19-.04-.38-.07-.57zm20.83.76c0-.11 0-.22-.07-.33l-.09-.33a19.05 19.05 0 0 1 .41 3.11 21.81 21.81 0 0 1-.43 2.28 2.64 2.64 0 0 1-.74 1.25.67.67 0 0 0 .16-.14c.06-.07.13-.14.19-.22a3.07 3.07 0 0 0 .42-.89c.09-.37.17-.75.25-1.13s.13-.76.18-1.15a20.19 20.19 0 0 0-.16-2.45zm-.43-1.79l-.18-.59a.41.41 0 0 0 0-.1q.15.45.27.9c.04-.07.03-.14.01-.21zm-1 8.1a1.44 1.44 0 0 0 .51-.33 2 2 0 0 1-.41.33zm.24-10.23l-.06-.13a2 2 0 0 0-.1-.21 1.09 1.09 0 0 0-.11-.18.82.82 0 0 1-.08-.12 4.78 4.78 0 0 1 .32.64c.11.25.21.51.31.76.03-.25-.07-.51-.18-.76zm-.76-1.29a5.25 5.25 0 0 0-.5-.56l-.26-.25-.3-.23a2.23 2.23 0 0 0-.86-.45 2.59 2.59 0 0 1 .83.45 5.33 5.33 0 0 1 1.32 1.36 2.2 2.2 0 0 0-.16-.32zm-2.92-1.58h-.22.25zm-.88 10.48A15.22 15.22 0 0 1 134 111a12.74 12.74 0 0 1 0-3.49 2.47 2.47 0 0 1 .54-1.35 2 2 0 0 1 .19-.21 1.35 1.35 0 0 0-.2.21 2.47 2.47 0 0 0-.54 1.35 12.74 12.74 0 0 0 0 3.49 15.22 15.22 0 0 0 1.27 4.73 4.83 4.83 0 0 0 .54 1 5.31 5.31 0 0 1-.57-.98zm5.75-3.69c0-.11 0-.22-.07-.33l-.09-.33a19.05 19.05 0 0 1 .41 3.11 21.81 21.81 0 0 1-.43 2.28 2.64 2.64 0 0 1-.74 1.25.67.67 0 0 0 .16-.14c.06-.07.13-.14.19-.22a3.07 3.07 0 0 0 .42-.89c.09-.37.17-.75.25-1.13s.13-.76.18-1.15a20.19 20.19 0 0 0-.16-2.45zm-.43-1.79l-.18-.59a.41.41 0 0 0 0-.1q.15.45.27.9c.04-.07.03-.14.01-.21zm-1 8.1a1.44 1.44 0 0 0 .51-.33 2 2 0 0 1-.41.33zm.24-10.23l-.06-.13a2 2 0 0 0-.1-.21 1.09 1.09 0 0 0-.11-.18.82.82 0 0 1-.08-.12 4.78 4.78 0 0 1 .32.64c.11.25.21.51.31.76.03-.25-.07-.51-.18-.76zm-.76-1.29a5.25 5.25 0 0 0-.5-.56l-.26-.25-.3-.23a2.23 2.23 0 0 0-.86-.45 2.59 2.59 0 0 1 .83.45 5.33 5.33 0 0 1 1.32 1.36 2.2 2.2 0 0 0-.16-.32zm-2.92-1.58h-.22.25zm-.88 10.48A15.22 15.22 0 0 1 134 111a12.74 12.74 0 0 1 0-3.49 2.47 2.47 0 0 1 .54-1.35 2 2 0 0 1 .19-.21 1.35 1.35 0 0 0-.2.21 2.47 2.47 0 0 0-.54 1.35 12.74 12.74 0 0 0 0 3.49 15.22 15.22 0 0 0 1.27 4.73 4.83 4.83 0 0 0 .54 1 5.31 5.31 0 0 1-.57-.98zm-15-3.9c0-.17 0-.36-.06-.55v-.44-.37a10.93 10.93 0 0 0-.52-2.1c-.06-.17-.12-.34-.19-.51s-.21-.5-.33-.74-.24-.48-.38-.72a3 3 0 0 0-.62-.8 3.13 3.13 0 0 0-.82-.58 2.13 2.13 0 0 0-.49-.15 4 4 0 0 1 .45.15 3.31 3.31 0 0 1 1.44 1.38 11.43 11.43 0 0 1 1.42 4.07c.07.37.16.81.21 1.18a2.65 2.65 0 0 1 0 .48c0 .4-.07.76-.13 1.11a1.62 1.62 0 0 1-.23.56 1.74 1.74 0 0 1-1 .76.71.71 0 0 0 .19-.06 1.11 1.11 0 0 0 .19-.09l.17-.1.16-.14a1.49 1.49 0 0 0 .2-.23.16.16 0 0 0 .06-.08 1.34 1.34 0 0 0 .12-.24 1.22 1.22 0 0 0 .11-.32c.06-.35.09-.71.13-1.11a1 1 0 0 0 0-.36zm-.59 12.15l-.06-.33a2 2 0 0 0-.11-.35.78.78 0 0 0-.11-.2 2.49 2.49 0 0 0-.2-.32 1.84 1.84 0 0 0-.27-.29 7.63 7.63 0 0 0-1.09-.83.48.48 0 0 0-.3-.11h-.06a.18.18 0 0 0-.07.05.22.22 0 0 0-.07.09.66.66 0 0 0-.06.12 3.81 3.81 0 0 0-.18.47 3.89 3.89 0 0 0-.12.49 5 5 0 0 1 .3-.93c.09-.22.21-.32.39-.26h.14c.29.2.57.38.83.59a2.4 2.4 0 0 1 .91 1.38 4 4 0 0 1 .1.5.62.62 0 0 1 0 .13 2.45 2.45 0 0 1 0 .28 1.43 1.43 0 0 1 0 .22 1 1 0 0 1-.07.21v.14a1.08 1.08 0 0 1-.68.48l.25-.08.18-.12a.1.1 0 0 0 .06-.05l.06-.06a.92.92 0 0 0 .18-.3l.06-.19a1.3 1.3 0 0 0 0-.21v-.32a2.48 2.48 0 0 1-.01-.2zm-19.38-12.55h-1 1v2a19.32 19.32 0 0 0 0-1.97zm-30.72 0h-.06c0 1.51.11 3 0 4.45a1.63 1.63 0 0 1-1.3 1.53 1.6 1.6 0 0 0 1.34-1.53c.1-1.42.02-2.9.02-4.42zm30.72 0h-1 1v2a19.32 19.32 0 0 0 0-1.97zM119.54 124l-.06-.33a2 2 0 0 0-.11-.35.78.78 0 0 0-.11-.2 2.49 2.49 0 0 0-.2-.32 1.84 1.84 0 0 0-.27-.29 7.63 7.63 0 0 0-1.09-.83.48.48 0 0 0-.3-.11h-.06a.18.18 0 0 0-.07.05.22.22 0 0 0-.07.09.66.66 0 0 0-.06.12 3.81 3.81 0 0 0-.18.47 3.89 3.89 0 0 0-.12.49 5 5 0 0 1 .3-.93c.09-.22.21-.32.39-.26h.14c.29.2.57.38.83.59a2.4 2.4 0 0 1 .91 1.38 4 4 0 0 1 .1.5.62.62 0 0 1 0 .13 2.45 2.45 0 0 1 0 .28 1.43 1.43 0 0 1 0 .22 1 1 0 0 1-.07.21v.14a1.08 1.08 0 0 1-.68.48l.25-.08.18-.12a.1.1 0 0 0 .06-.05l.06-.06a.92.92 0 0 0 .18-.3l.06-.19a1.3 1.3 0 0 0 0-.21v-.32a2.48 2.48 0 0 1-.01-.2zm.67-12.18c0-.17 0-.36-.06-.55v-.44-.37a10.93 10.93 0 0 0-.52-2.1c-.06-.17-.12-.34-.19-.51s-.21-.5-.33-.74-.24-.48-.38-.72a3 3 0 0 0-.62-.8 3.13 3.13 0 0 0-.82-.58 2.13 2.13 0 0 0-.49-.15 4 4 0 0 1 .45.15 3.31 3.31 0 0 1 1.44 1.38 11.43 11.43 0 0 1 1.42 4.07c.07.37.16.81.21 1.18a2.65 2.65 0 0 1 0 .48c0 .4-.07.76-.13 1.11a1.62 1.62 0 0 1-.23.56 1.74 1.74 0 0 1-1 .76.71.71 0 0 0 .19-.06 1.11 1.11 0 0 0 .19-.09l.17-.1.16-.14a1.49 1.49 0 0 0 .2-.23.16.16 0 0 0 .06-.08 1.34 1.34 0 0 0 .12-.24 1.22 1.22 0 0 0 .11-.32c.06-.35.09-.71.13-1.11a1 1 0 0 0-.08-.33zm20.77.21c0-.11 0-.22-.07-.33a12.43 12.43 0 0 0-.36-1.46l-.18-.59a.41.41 0 0 0 0-.1q.15.45.27.9c.08.3.16.61.22.92a19.05 19.05 0 0 1 .41 3.11 21.81 21.81 0 0 1-.43 2.28 2.64 2.64 0 0 1-.74 1.25.67.67 0 0 0 .16-.14c.06-.07.13-.14.19-.22a2.55 2.55 0 0 0 .43-.89c.09-.37.17-.75.24-1.13s.14-.76.19-1.15a16.88 16.88 0 0 0-.31-2.42zm-1.43 6.31a1.44 1.44 0 0 0 .51-.33 2 2 0 0 1-.51.36zm.24-10.23a1.47 1.47 0 0 0-.07-.13 2 2 0 0 0-.1-.21 1.09 1.09 0 0 0-.11-.18c-.09-.15-.17-.3-.28-.45l.13.22.07.11a4.78 4.78 0 0 1 .32.64c.11.25.21.51.31.76-.06-.22-.16-.48-.27-.73zm-.76-1.29a5.25 5.25 0 0 0-.5-.56l-.26-.25-.3-.23a2.23 2.23 0 0 0-.86-.45 2.59 2.59 0 0 1 .83.45 5.33 5.33 0 0 1 1.32 1.36 2.2 2.2 0 0 0-.26-.29zm1.95 5.21c0-.11 0-.22-.07-.33a12.43 12.43 0 0 0-.36-1.46l-.18-.59a.41.41 0 0 0 0-.1q.15.45.27.9c.08.3.16.61.22.92a19.05 19.05 0 0 1 .41 3.11 21.81 21.81 0 0 1-.43 2.28 2.64 2.64 0 0 1-.74 1.25.67.67 0 0 0 .16-.14c.06-.07.13-.14.19-.22a2.55 2.55 0 0 0 .43-.89c.09-.37.17-.75.24-1.13s.14-.76.19-1.15a16.88 16.88 0 0 0-.31-2.42zm-1.43 6.31a1.44 1.44 0 0 0 .51-.33 2 2 0 0 1-.51.36zm.24-10.23a1.47 1.47 0 0 0-.07-.13 2 2 0 0 0-.1-.21 1.09 1.09 0 0 0-.11-.18c-.09-.15-.17-.3-.28-.45l.13.22.07.11a4.78 4.78 0 0 1 .32.64c.11.25.21.51.31.76-.06-.22-.16-.48-.27-.73zm-.76-1.29a5.25 5.25 0 0 0-.5-.56l-.26-.25-.3-.23a2.23 2.23 0 0 0-.86-.45 2.59 2.59 0 0 1 .83.45 5.33 5.33 0 0 1 1.32 1.36 2.2 2.2 0 0 0-.26-.29zm-18.82 5c0-.17 0-.36-.06-.55v-.44-.37a10.93 10.93 0 0 0-.52-2.1c-.06-.17-.12-.34-.19-.51s-.21-.5-.33-.74-.24-.48-.38-.72a3 3 0 0 0-.62-.8 3.13 3.13 0 0 0-.82-.58 2.13 2.13 0 0 0-.49-.15 4 4 0 0 1 .45.15 3.31 3.31 0 0 1 1.44 1.38 11.43 11.43 0 0 1 1.42 4.07c.07.37.16.81.21 1.18a2.65 2.65 0 0 1 0 .48c0 .4-.07.76-.13 1.11a1.62 1.62 0 0 1-.23.56 1.74 1.74 0 0 1-1 .76.71.71 0 0 0 .19-.06 1.11 1.11 0 0 0 .19-.09l.17-.1.16-.14a1.49 1.49 0 0 0 .2-.23.16.16 0 0 0 .06-.08 1.34 1.34 0 0 0 .12-.24 1.22 1.22 0 0 0 .11-.32c.06-.35.09-.71.13-1.11a1 1 0 0 0-.08-.33zm-.67 12.18l-.06-.33a2 2 0 0 0-.11-.35.78.78 0 0 0-.11-.2 2.49 2.49 0 0 0-.2-.32 1.84 1.84 0 0 0-.27-.29 2.75 2.75 0 0 0-.26-.22 2.4 2.4 0 0 1 .91 1.38 4 4 0 0 1 .1.5.62.62 0 0 1 0 .13 2.45 2.45 0 0 1 0 .28 1.43 1.43 0 0 1 0 .22 1 1 0 0 1-.07.21v.14a1.08 1.08 0 0 1-.68.48.85.85 0 0 1-.24.05 1.41 1.41 0 0 1-.46 0 1.53 1.53 0 0 1-.7-.34 1.46 1.46 0 0 1-.49-.94 1.39 1.39 0 0 0 .15.5 1.48 1.48 0 0 0 .34.44.82.82 0 0 0 .18.13 1.37 1.37 0 0 0 .28.12h.05l.22.07h.43a1.61 1.61 0 0 0 .42-.11l.11-.05.18-.12a.1.1 0 0 0 .06-.05l.06-.06a.92.92 0 0 0 .18-.3l.06-.19a1.3 1.3 0 0 0 0-.21v-.32a2.48 2.48 0 0 1-.08-.25zm-19.38-12.55h-1 1v2a19.32 19.32 0 0 0 0-1.97zm-30.72 0h-.06c0 1.51.11 3 0 4.45a1.63 1.63 0 0 1-1.3 1.53 1.6 1.6 0 0 0 1.34-1.53c.1-1.42.02-2.9.02-4.42zm109.23-12.61a2 2 0 0 0-1.82-1.56 6.7 6.7 0 0 0-2-.08 4.24 4.24 0 0 0-3.12 1.95 2.34 2.34 0 0 0-.3.71 2.12 2.12 0 0 0 1.6 2.53 8.27 8.27 0 0 0 1 .13c.42-.05.81-.07 1.19-.13a5.32 5.32 0 0 0 2.58-1.07 2.35 2.35 0 0 0 .87-2.48zM58.1 108.25c-1.28-5-6.58-7.29-10.87-4.64-.28.19-.6.36-1 .58v-1.61H46l-7.71 2c-.09 0-.23.14-.23.22v2.05l1.27-.29v16.7c0 .93 0 .93-.88.93-.29 0-.4.09-.4.39v1.39s.13.46.45.46h9.67c.3 0 .45-.13.45-.43v-1.45c0-.29-.15-.37-.43-.37h-1.48s-.52-.13-.52-.51V121a1.09 1.09 0 0 1 .07-.3 9.18 9.18 0 0 0 4.34.58 7.45 7.45 0 0 0 5-2.51 11 11 0 0 0 2.5-10.52zm-7 8.5c-.46 1.71-2.07 2.06-3.46 1.71a2.09 2.09 0 0 1-1.46-2.05 10.77 10.77 0 0 1-.06-1.39v-7.78c0-.44.09-.66.58-.75a3.74 3.74 0 0 1 4 2 9.79 9.79 0 0 1 .92 4.12 1.67 1.67 0 0 1-.08.67h.14a31.1 31.1 0 0 1-.54 3.47zM77.51 119c0-.26-.12-.37-.37-.37h-.8V118c-.06-3.41 0-6.83-.06-10.25a4.76 4.76 0 0 0-2.81-4.37 10 10 0 0 0-5.75-.69c-.9.12-1.79.38-2.7.59 0-.12.07-.24.11-.36.19-.36 0-.54-.32-.64-.59-.17-1.16-.36-1.81-.56-.8 2-1.59 3.87-2.39 5.87.75.28 1.46.55 2.18.78.09 0 .26-.09.36-.18a11.81 11.81 0 0 1 1-1 4.79 4.79 0 0 1 3.36-.83c1.51.09 2.25 1 1.86 2.91h-5a5.53 5.53 0 0 0-5.37 3.6 6.5 6.5 0 0 0 .08 5.6c1.25 2.38 3.91 3.14 6.4 2.77a8.19 8.19 0 0 0 3.87-1.87l.29-.21a8.87 8.87 0 0 1 .28 1.13c0 .39.23.51.62.51h6.66c.29 0 .38-.1.38-.35a8.37 8.37 0 0 0-.07-1.45zm-9.8-1.52a2.26 2.26 0 0 1-.52 0 2 2 0 0 1-1.58-1.21 4.15 4.15 0 0 1-.15-2.8 3 3 0 0 1 2.25-1.94 2.57 2.57 0 0 1 .4-.06h1.23c0 1.51.11 3 0 4.45a1.63 1.63 0 0 1-1.3 1.53 2.22 2.22 0 0 1-.33.04zm20.47-.14a2.27 2.27 0 0 1-1.82.2 1.15 1.15 0 0 1-.93-1.21v-10c0-.29.09-.39.39-.39h2c.26 0 .41-.07.41-.34.1-.63.24-1.23.38-1.88s.14-.65-.52-.65h-2.72c.07-1.43.13-2.8.21-4.23-.55-.1-1.17-.2-1.77-.33-.29-.07-.4 0-.56.26a18.14 18.14 0 0 1-1.65 2.33 9.82 9.82 0 0 1-4.39 2.69c-.16.05-.43.19-.43.3v1.84H78c.59 0 .59 0 .59.58v10a12.12 12.12 0 0 0 .11 1.49 3.47 3.47 0 0 0 2.73 3.11 12 12 0 0 0 4.19.13 7.06 7.06 0 0 0 3.28-1.68.32.32 0 0 0 .1-.21c-.26-.7-.54-1.35-.82-2zm20 1.46c0-.26-.07-.37-.36-.37h-.35c-.39.06-.47-.11-.47-.48v-8.45a21 21 0 0 0-.09-2.24 4.9 4.9 0 0 0-3.2-4.29 10.45 10.45 0 0 0-5.34-.5c-.91.12-1.79.39-2.71.59a2.24 2.24 0 0 0 .16-.52c0-.13-.07-.38-.16-.38-.64-.25-1.31-.45-2-.67l-2.28 5.6c-.1.24 0 .35.23.42.55.19 1.11.37 1.65.59a.44.44 0 0 0 .61-.17 4.46 4.46 0 0 1 3.87-1.77 4.79 4.79 0 0 1 .85.07c1.28.27 1.83 1.3 1.48 2.74-1.74 0-3.49 0-5.24.13a5.53 5.53 0 0 0-4.88 2.9 7.33 7.33 0 0 0-.86 4 4.89 4.89 0 0 0 2 4 6.43 6.43 0 0 0 5.84 1 8.92 8.92 0 0 0 3.36-1.87 9.46 9.46 0 0 1 .27 1.11c.06.42.24.56.68.56h6.61c.29 0 .36-.09.36-.35-.01-.5-.01-.99-.05-1.64zM100 116a1.72 1.72 0 0 1-.34.86l-.15.16a1.93 1.93 0 0 1-.36.28 1.24 1.24 0 0 1-.2.1 1.78 1.78 0 0 1-.69.11 2.23 2.23 0 0 1-.45 0 2 2 0 0 1-1-.51 1.3 1.3 0 0 1-.16-.17 2.4 2.4 0 0 1-.25-.37l-.09-.22a4.35 4.35 0 0 1-.17-2.55 1.35 1.35 0 0 1 .08-.24l.06-.17v-.06a2.09 2.09 0 0 1 .11-.21l.13-.2a2.36 2.36 0 0 1 .36-.41 1.23 1.23 0 0 1 .17-.15 2 2 0 0 1 .35-.25 1.51 1.51 0 0 1 .36-.18 1.89 1.89 0 0 1 .21-.09l.32-.1a2 2 0 0 1 .43-.07H100.11v2A18.93 18.93 0 0 1 100 116zm18.09-1.39zm0 0zm0 0zm0 0zm0 0zm5.54 4.85a13.18 13.18 0 0 0-2.91-1.12c-1.35-.34-2.72-.51-4.11-.73l1.37-.35a20.49 20.49 0 0 0 5.23-1.95 6.11 6.11 0 0 0 .53-.35 6.44 6.44 0 0 0 1.33-9 23.69 23.69 0 0 0-1.91-1.84c-.2-.19-.43-.38-.3-.72a.69.69 0 0 1 .75-.52c.4 0 .79.15 1.25.24.25-1 .51-2.09.8-3.24-1 0-1.81-.07-2.66 0a2 2 0 0 0-1.88 1.59 9 9 0 0 0-.34 1c-.1.45-.32.53-.76.45a13.76 13.76 0 0 0-5.75-.14c-3.32.72-5.8 3-6 6.67A6 6 0 0 0 111 115a9.2 9.2 0 0 0 3.57 1.36c-.46.2-.85.35-1.22.52a16.17 16.17 0 0 1-3.93 1.35c-.27 0-.29.2-.19.42.22.54.45 1.08.63 1.63.11.36.3.36.61.36h4.27a16.78 16.78 0 0 0-2.28 1.24 2.8 2.8 0 0 0-.52.51 2.67 2.67 0 0 0 .45 3.76 4.54 4.54 0 0 0 1.61.85 12.82 12.82 0 0 0 6.15.36 9.55 9.55 0 0 0 3.71-1.39 3.65 3.65 0 0 0 1.47-1.57 3.7 3.7 0 0 0-1.7-4.94zm-8-14.56h.23a2.71 2.71 0 0 1 .57 0l.22.05a4 4 0 0 1 .45.15 3.31 3.31 0 0 1 1.44 1.38 11.43 11.43 0 0 1 1.42 4.07c.07.37.16.81.21 1.18a2.65 2.65 0 0 1 0 .48c0 .4-.07.76-.13 1.11a1.62 1.62 0 0 1-.23.56 1.74 1.74 0 0 1-1 .76h-.35a.87.87 0 0 1-.32 0H117.92a2 2 0 0 1-.45-.21 4.51 4.51 0 0 1-.75-.55 4.62 4.62 0 0 1-.55-.62v-.05c0-.08-.11-.16-.16-.25l-.15-.25A9.74 9.74 0 0 1 115 111a11.12 11.12 0 0 1-.51-2.27 12.74 12.74 0 0 1-.11-2.14 2.13 2.13 0 0 1 .33-1.13 1.26 1.26 0 0 1 .22-.24 2 2 0 0 1 .39-.26zm4 19.43a2.45 2.45 0 0 1 0 .28 1.43 1.43 0 0 1 0 .22 1 1 0 0 1-.07.21v.14a1.08 1.08 0 0 1-.68.48.85.85 0 0 1-.24.05 1.41 1.41 0 0 1-.46 0 1.53 1.53 0 0 1-.7-.34 1.46 1.46 0 0 1-.49-.94v-.31a5.61 5.61 0 0 1 0-.82c0-.16 0-.33.08-.49a5 5 0 0 1 .3-.93c.09-.22.21-.32.39-.26h.14c.29.2.57.38.83.59a2.4 2.4 0 0 1 .91 1.38 4 4 0 0 1 .1.5.62.62 0 0 1-.18.24zm-2.66.66a1.69 1.69 0 0 0 .37.43.82.82 0 0 0 .18.13 1.37 1.37 0 0 0 .28.12h.05l.22.07a1.48 1.48 0 0 1-1.17-.74zm1.49.8zm1.15-1.76l-.06-.33a3.36 3.36 0 0 1 .11.62 2.48 2.48 0 0 1-.12-.32zm-1.45-9.42zm0 0zm0 0zm0 0zm.09 11.17h.22a1.61 1.61 0 0 1-.29 0zm1.09-.41zm28.62-14.77a8.52 8.52 0 0 0-5.5-7.13 12.9 12.9 0 0 0-7.74-.66 9.69 9.69 0 0 0-5.3 2.82 8.94 8.94 0 0 0-2.35 7.19 8.51 8.51 0 0 0 3.68 6.53 11.89 11.89 0 0 0 6.42 2c1-.1 1.9-.14 2.9-.3a9.93 9.93 0 0 0 5.31-2.61 8.87 8.87 0 0 0 2.51-7.84zm-8.34 7.77l-.28.1a1.5 1.5 0 0 1-.29.06 2.91 2.91 0 0 1-.72 0 3.36 3.36 0 0 1-1.14-.43 7.49 7.49 0 0 1-.61-.47 5.14 5.14 0 0 1-.75-.87 5.31 5.31 0 0 1-.53-1A15.22 15.22 0 0 1 134 111a12.74 12.74 0 0 1 0-3.49 2.47 2.47 0 0 1 .54-1.35 2 2 0 0 1 .19-.21 2.43 2.43 0 0 1 .87-.55 1.7 1.7 0 0 1 .32-.1h.25a3.42 3.42 0 0 1 .64 0 1.94 1.94 0 0 1 .31.07 2.59 2.59 0 0 1 .83.45 5.33 5.33 0 0 1 1.32 1.36l.13.22.07.11a4.78 4.78 0 0 1 .32.64c.11.25.21.51.31.76l.09.28a1.52 1.52 0 0 0 .08.19l.07.21q.15.45.27.9c.08.3.16.61.22.92a19.05 19.05 0 0 1 .41 3.11 21.81 21.81 0 0 1-.43 2.28 2.64 2.64 0 0 1-.74 1.25 2 2 0 0 1-.52.32zm29.4.16h-.6c-.66 0-.66 0-.66-.64v-10.66a4.46 4.46 0 0 0-1.53-3.6 6.08 6.08 0 0 0-5-1.06 8.62 8.62 0 0 0-3.64 1.65c-.53.34-1 .7-1.53 1.11v-2.87l-1.58.41-6.23 1.65c-.16 0-.4.2-.4.31v1.95l1.33-.31V118c0 .48-.15.61-.59.56h-.76v1.79c0 .35.11.41.44.41h8.63a1.09 1.09 0 0 0 .36 0c.07 0 .18-.1.18-.15v-2H156a.29.29 0 0 1 0-.13v-9.85a.52.52 0 0 1 .14-.35 5.06 5.06 0 0 1 2.49-1.34 1.89 1.89 0 0 1 .71-.05 1.84 1.84 0 0 1 1.6 2.05v9.71h-.32c-1.1 0-1.1.1-1.1 1.15s0 1.05 1 1.05h8.15c.12 0 .34-.13.34-.2-.01-.72-.01-1.37-.06-2.12zm10.63 0h-1.19v-16H178l-7.5 2.07c-.12 0-.3.17-.3.26v1.92l1.35-.22v11.55c0 .31-.11.42-.41.42h-1v1.92c0 .28.11.28.33.28h9.12zm19.11.37a.38.38 0 0 0-.27-.28 6.16 6.16 0 0 0-.86 0V118c-.06-3.38 0-6.75-.06-10.12a4.85 4.85 0 0 0-3.13-4.67 10.87 10.87 0 0 0-6-.45c-.71.12-1.39.35-2.11.54 0-.1 0-.19.08-.29.2-.59.07-.62-.38-.77s-.91-.28-1.36-.45c-.25-.09-.36-.07-.47.2q-1.05 2.66-2.14 5.27c-.12.28 0 .37.22.45.57.19 1.13.38 1.69.6a.38.38 0 0 0 .53-.15 4.76 4.76 0 0 1 4.5-1.76 1.76 1.76 0 0 1 1.73 1.53 10.45 10.45 0 0 1 0 1.37c-1.8 0-3.55-.07-5.3 0a5.55 5.55 0 0 0-5 3.13 7 7 0 0 0-.74 2.84 5.23 5.23 0 0 0 3.55 5.7 6.88 6.88 0 0 0 6.25-.8c.46-.33.9-.67 1.37-1a11.34 11.34 0 0 1 .28 1.15c.06.41.27.48.64.48h6.66c.32 0 .32-.13.32-.35a7 7 0 0 0-.07-1.53zm-8-3.11a1.68 1.68 0 0 1-1.68 1.7.4.4 0 0 1-.11 0 2 2 0 0 1-2.1-1.46 4.08 4.08 0 0 1-.08-2.47 2.92 2.92 0 0 1 2.67-2.1h1.29c-.07 1.54.02 2.94-.07 4.35zm-50.59-6.91l.09.28a1.52 1.52 0 0 0 .08.19zm-.46-1.1a1.09 1.09 0 0 0-.11-.18.82.82 0 0 1-.08-.12 4.78 4.78 0 0 1 .32.64zm-.6-.95a6.74 6.74 0 0 0-.51-.56l-.26-.25-.3-.23a5.33 5.33 0 0 1 1.32 1.36 2.2 2.2 0 0 0-.36-.3zm-1.91 11.24a7.49 7.49 0 0 1-.61-.47 5.14 5.14 0 0 1-.75-.87 5.31 5.31 0 0 1-.53-1A15.22 15.22 0 0 1 134 111a12.74 12.74 0 0 1 0-3.49 2.47 2.47 0 0 1 .54-1.35 2 2 0 0 1 .19-.21 2.43 2.43 0 0 1 .87-.55 2.29 2.29 0 0 0-1.1.76 2.47 2.47 0 0 0-.54 1.35 12.75 12.75 0 0 0 0 3.49 15.22 15.22 0 0 0 1.27 4.73 5.1 5.1 0 0 0 1.89 2.34 3.17 3.17 0 0 0 1.18.43 3.36 3.36 0 0 1-1.18-.41zm-1-12.82h-.22.25zm-18.68 9.09a4.51 4.51 0 0 1-.75-.55 4.62 4.62 0 0 1-.55-.62v-.05c0-.08-.11-.16-.16-.25l-.15-.25A9.74 9.74 0 0 1 115 111a11.12 11.12 0 0 1-.51-2.27 12.74 12.74 0 0 1-.11-2.14 2.13 2.13 0 0 1 .33-1.13 1.26 1.26 0 0 1 .22-.24 2 2 0 0 1 .39-.26 1.64 1.64 0 0 0-1 1.63 12.74 12.74 0 0 0 .11 2.14 10 10 0 0 0 1.57 4.37 4.1 4.1 0 0 0 1.36 1.26 2.1 2.1 0 0 0 .46.21 2 2 0 0 1-.39-.21zm.66.25zm2-1.35a1.62 1.62 0 0 1-.23.56 1.74 1.74 0 0 1-1 .76.71.71 0 0 0 .19-.06 1.11 1.11 0 0 0 .19-.09l.17-.1.16-.14a1.49 1.49 0 0 0 .2-.23.16.16 0 0 0 .06-.08 1.51 1.51 0 0 0 .15-.28 1.71 1.71 0 0 0 .1-.32zm-.62 11.82v.07a.41.41 0 0 0 0-.09.94.94 0 0 0 0-.18 1 1 0 0 1-.13.22zm-.74.62a.85.85 0 0 1-.24.05 1.41 1.41 0 0 1-.46 0 1.53 1.53 0 0 1-.7-.34 1.46 1.46 0 0 1-.49-.94v-.31a5.61 5.61 0 0 1 0-.82c0-.16 0-.33.08-.49a5 5 0 0 1 .3-.93c.09-.22.21-.32.39-.26s-.07 0-.1 0h-.06a.39.39 0 0 0-.24.26 4.67 4.67 0 0 0-.35 2.58 1.35 1.35 0 0 0 .53 1 .82.82 0 0 0 .18.13 1.37 1.37 0 0 0 .28.12h.05l.22.07h.43a1.61 1.61 0 0 0 .42-.11l.11-.05.18-.12a.1.1 0 0 0 .06-.05l.06-.06a.76.76 0 0 0 .08-.11 1.08 1.08 0 0 1-.86.4zm-20.44-8.19a1.46 1.46 0 0 0 .69-.11 1.78 1.78 0 0 1-.82.13zm-1.5-.53a1.3 1.3 0 0 1-.16-.17 2.4 2.4 0 0 1-.25-.37l-.09-.22a4.35 4.35 0 0 1-.17-2.55 1.35 1.35 0 0 1 .08-.24l.06-.17a1.89 1.89 0 0 0-.18.41 4.35 4.35 0 0 0 .17 2.55 2 2 0 0 0 1.59 1.27 2 2 0 0 1-1.18-.47zm-.45-3.89v.1a2.09 2.09 0 0 1 .11-.21zm3.86-1.61h-1 1v2a19.32 19.32 0 0 0-.13-1.98zm-1.91 6a1.46 1.46 0 0 0 .69-.11 1.78 1.78 0 0 1-.82.16zm-1.5-.53a1.3 1.3 0 0 1-.16-.17 2.4 2.4 0 0 1-.25-.37l-.09-.22a4.35 4.35 0 0 1-.17-2.55 1.35 1.35 0 0 1 .08-.24l.06-.17a1.89 1.89 0 0 0-.18.41 4.35 4.35 0 0 0 .17 2.55 2 2 0 0 0 1.59 1.27 2 2 0 0 1-1.18-.44zm-.45-3.89v.1a2.09 2.09 0 0 1 .11-.21zM119.54 124l-.06-.33a4 4 0 0 1 .1.5c-.03-.02-.04-.08-.04-.17zm-2.76.42v-.31a5.61 5.61 0 0 1 0-.82c0-.16 0-.33.08-.49a5 5 0 0 1 .3-.93c.09-.22.21-.32.39-.26s-.07 0-.1 0h-.06a.39.39 0 0 0-.24.26 4.67 4.67 0 0 0-.35 2.58 1.35 1.35 0 0 0 .53 1 .82.82 0 0 0 .18.13 1.37 1.37 0 0 0 .28.12h.24a1.53 1.53 0 0 1-.7-.34 1.46 1.46 0 0 1-.55-.91zm.65-10.09a4.51 4.51 0 0 1-.75-.55 4.62 4.62 0 0 1-.55-.62v-.05c0-.08-.11-.16-.16-.25l-.15-.25A9.74 9.74 0 0 1 115 111a11.12 11.12 0 0 1-.51-2.27 12.74 12.74 0 0 1-.11-2.14 2.13 2.13 0 0 1 .33-1.13 1.26 1.26 0 0 1 .22-.24 2 2 0 0 1 .39-.26 1.64 1.64 0 0 0-1 1.63 12.74 12.74 0 0 0 .11 2.14 10 10 0 0 0 1.57 4.37 4.1 4.1 0 0 0 1.36 1.26 2.1 2.1 0 0 0 .46.21 2 2 0 0 1-.39-.21zm.66.25zm2-3.38v-.37-.37c.07.37.16.81.21 1.18-.14-.11-.16-.26-.17-.41zm20-2.33l.09.28a1.52 1.52 0 0 0 .08.19zm-.3-.76c.11.25.21.51.31.76-.1-.22-.2-.48-.31-.73zm-2.67 9.95a7.49 7.49 0 0 1-.61-.47 5.14 5.14 0 0 1-.75-.87 5.31 5.31 0 0 1-.53-1A15.22 15.22 0 0 1 134 111a12.74 12.74 0 0 1 0-3.49 2.47 2.47 0 0 1 .54-1.35 2 2 0 0 1 .19-.21 2.43 2.43 0 0 1 .87-.55 2.29 2.29 0 0 0-1.1.76 2.47 2.47 0 0 0-.54 1.35 12.75 12.75 0 0 0 0 3.49 15.22 15.22 0 0 0 1.27 4.73 5.1 5.1 0 0 0 1.89 2.34 3.17 3.17 0 0 0 1.18.43 3.36 3.36 0 0 1-1.18-.41zm-1-12.82h-.22.25zm4 3.63l.09.28a1.52 1.52 0 0 0 .08.19zm-.3-.76c.11.25.21.51.31.76-.13-.22-.23-.48-.34-.73zm-2.67 9.95a7.49 7.49 0 0 1-.61-.47 5.14 5.14 0 0 1-.75-.87 5.31 5.31 0 0 1-.53-1A15.22 15.22 0 0 1 134 111a12.74 12.74 0 0 1 0-3.49 2.47 2.47 0 0 1 .54-1.35 2 2 0 0 1 .19-.21 2.43 2.43 0 0 1 .87-.55 2.29 2.29 0 0 0-1.1.76 2.47 2.47 0 0 0-.54 1.35 12.75 12.75 0 0 0 0 3.49 15.22 15.22 0 0 0 1.27 4.73 5.1 5.1 0 0 0 1.89 2.34 3.17 3.17 0 0 0 1.18.43 3.36 3.36 0 0 1-1.18-.41zm-1-12.82h-.22.25zm-15.9 6.58c0-.17 0-.36-.06-.55v-.44-.37a10.93 10.93 0 0 0-.52-2.1c-.06-.17-.12-.34-.19-.51s-.21-.5-.33-.74-.24-.48-.38-.72a3 3 0 0 0-.62-.8 3.13 3.13 0 0 0-.82-.58 2.13 2.13 0 0 0-.49-.15 4 4 0 0 1 .45.15 3.31 3.31 0 0 1 1.44 1.38 11.43 11.43 0 0 1 1.42 4.07c.07.37.16.81.21 1.18a2.65 2.65 0 0 1 0 .48c0 .4-.07.76-.13 1.11a1.62 1.62 0 0 1-.23.56 1.74 1.74 0 0 1-1 .76.71.71 0 0 0 .19-.06 1.11 1.11 0 0 0 .19-.09l.17-.1.16-.14a1.49 1.49 0 0 0 .2-.23.16.16 0 0 0 .06-.08 1.34 1.34 0 0 0 .12-.24 1.22 1.22 0 0 0 .11-.32c.06-.35.09-.71.13-1.11a1 1 0 0 0-.12-.33zm-.71 12.18l-.06-.33a2 2 0 0 0-.11-.35.78.78 0 0 0-.11-.2 2.49 2.49 0 0 0-.2-.32 1.84 1.84 0 0 0-.27-.29 7.63 7.63 0 0 0-1.09-.83.48.48 0 0 0-.3-.11h-.06a.18.18 0 0 0-.07.05.22.22 0 0 0-.07.09.66.66 0 0 0-.06.12 3.81 3.81 0 0 0-.18.47 3.89 3.89 0 0 0-.12.49 5 5 0 0 1 .3-.93c.09-.22.21-.32.39-.26h.14c.29.2.57.38.83.59a2.4 2.4 0 0 1 .91 1.38 4 4 0 0 1 .1.5.62.62 0 0 1 0 .13 2.45 2.45 0 0 1 0 .28 1.43 1.43 0 0 1 0 .22 1 1 0 0 1-.07.21v.14a1.08 1.08 0 0 1-.68.48l.25-.08.18-.12a.1.1 0 0 0 .06-.05l.06-.06a.92.92 0 0 0 .18-.3l.06-.19a1.3 1.3 0 0 0 0-.21v-.32a2.48 2.48 0 0 1-.01-.2zm-19.38-12.55h-1 1v2a19.32 19.32 0 0 0 0-1.97zM119.54 124l-.06-.33a2 2 0 0 0-.11-.35.78.78 0 0 0-.11-.2 2.49 2.49 0 0 0-.2-.32 1.84 1.84 0 0 0-.27-.29 7.63 7.63 0 0 0-1.09-.83.48.48 0 0 0-.3-.11h-.06a.18.18 0 0 0-.07.05.22.22 0 0 0-.07.09.66.66 0 0 0-.06.12 3.81 3.81 0 0 0-.18.47 3.89 3.89 0 0 0-.12.49 5 5 0 0 1 .3-.93c.09-.22.21-.32.39-.26h.14c.29.2.57.38.83.59a2.4 2.4 0 0 1 .91 1.38 4 4 0 0 1 .1.5.62.62 0 0 1 0 .13 2.45 2.45 0 0 1 0 .28 1.43 1.43 0 0 1 0 .22 1 1 0 0 1-.07.21v.14a1.08 1.08 0 0 1-.68.48l.25-.08.18-.12a.1.1 0 0 0 .06-.05l.06-.06a.92.92 0 0 0 .18-.3l.06-.19a1.3 1.3 0 0 0 0-.21v-.32a2.48 2.48 0 0 1-.01-.2zm.67-12.18c0-.17 0-.36-.06-.55v-.44-.37a10.93 10.93 0 0 0-.52-2.1c-.06-.17-.12-.34-.19-.51s-.21-.5-.33-.74-.24-.48-.38-.72a3 3 0 0 0-.62-.8 3.13 3.13 0 0 0-.82-.58 2.13 2.13 0 0 0-.49-.15 4 4 0 0 1 .45.15 3.31 3.31 0 0 1 1.44 1.38 11.43 11.43 0 0 1 1.42 4.07c.07.37.16.81.21 1.18a2.65 2.65 0 0 1 0 .48c0 .4-.07.76-.13 1.11a1.62 1.62 0 0 1-.23.56 1.74 1.74 0 0 1-1 .76.71.71 0 0 0 .19-.06 1.11 1.11 0 0 0 .19-.09l.17-.1.16-.14a1.49 1.49 0 0 0 .2-.23.16.16 0 0 0 .06-.08 1.34 1.34 0 0 0 .12-.24 1.22 1.22 0 0 0 .11-.32c.06-.35.09-.71.13-1.11a1 1 0 0 0-.08-.33zm20.77.21c0-.11 0-.22-.07-.33a12.43 12.43 0 0 0-.36-1.46l-.18-.59a.41.41 0 0 0 0-.1q.15.45.27.9c.08.3.16.61.22.92a19.05 19.05 0 0 1 .41 3.11 21.81 21.81 0 0 1-.43 2.28 2.64 2.64 0 0 1-.74 1.25.67.67 0 0 0 .16-.14c.06-.07.13-.14.19-.22a2.55 2.55 0 0 0 .43-.89c.09-.37.17-.75.24-1.13s.14-.76.19-1.15a16.88 16.88 0 0 0-.31-2.42zm-1.43 6.31a1.44 1.44 0 0 0 .51-.33 2 2 0 0 1-.51.36zm.24-10.23a1.47 1.47 0 0 0-.07-.13 2 2 0 0 0-.1-.21 1.09 1.09 0 0 0-.11-.18c-.09-.15-.17-.3-.28-.45l.13.22.07.11a4.78 4.78 0 0 1 .32.64c.11.25.21.51.31.76-.06-.22-.16-.48-.27-.73zm-.76-1.29a5.25 5.25 0 0 0-.5-.56l-.26-.25-.3-.23a2.23 2.23 0 0 0-.86-.45 2.59 2.59 0 0 1 .83.45 5.33 5.33 0 0 1 1.32 1.36 2.2 2.2 0 0 0-.26-.29zm1.95 5.21c0-.11 0-.22-.07-.33a12.43 12.43 0 0 0-.36-1.46l-.18-.59a.41.41 0 0 0 0-.1q.15.45.27.9c.08.3.16.61.22.92a19.05 19.05 0 0 1 .41 3.11 21.81 21.81 0 0 1-.43 2.28 2.64 2.64 0 0 1-.74 1.25.67.67 0 0 0 .16-.14c.06-.07.13-.14.19-.22a2.55 2.55 0 0 0 .43-.89c.09-.37.17-.75.24-1.13s.14-.76.19-1.15a16.88 16.88 0 0 0-.31-2.42zm-1.43 6.31a1.44 1.44 0 0 0 .51-.33 2 2 0 0 1-.51.36zm.24-10.23a1.47 1.47 0 0 0-.07-.13 2 2 0 0 0-.1-.21 1.09 1.09 0 0 0-.11-.18c-.09-.15-.17-.3-.28-.45l.13.22.07.11a4.78 4.78 0 0 1 .32.64c.11.25.21.51.31.76-.06-.22-.16-.48-.27-.73zm-.76-1.29a5.25 5.25 0 0 0-.5-.56l-.26-.25-.3-.23a2.23 2.23 0 0 0-.86-.45 2.59 2.59 0 0 1 .83.45 5.33 5.33 0 0 1 1.32 1.36 2.2 2.2 0 0 0-.26-.29zm-18.82 5c0-.17 0-.36-.06-.55v-.44-.37a10.93 10.93 0 0 0-.52-2.1c-.06-.17-.12-.34-.19-.51s-.21-.5-.33-.74-.24-.48-.38-.72a3 3 0 0 0-.62-.8 3.13 3.13 0 0 0-.82-.58 2.13 2.13 0 0 0-.49-.15 4 4 0 0 1 .45.15 3.31 3.31 0 0 1 1.44 1.38 11.43 11.43 0 0 1 1.42 4.07c.07.37.16.81.21 1.18a2.65 2.65 0 0 1 0 .48c0 .4-.07.76-.13 1.11a1.62 1.62 0 0 1-.23.56 1.74 1.74 0 0 1-1 .76.71.71 0 0 0 .19-.06 1.11 1.11 0 0 0 .19-.09l.17-.1.16-.14a1.49 1.49 0 0 0 .2-.23.16.16 0 0 0 .06-.08 1.34 1.34 0 0 0 .12-.24 1.22 1.22 0 0 0 .11-.32c.06-.35.09-.71.13-1.11a1 1 0 0 0-.08-.33zm-.67 12.18l-.06-.33a2 2 0 0 0-.11-.35.78.78 0 0 0-.11-.2 2.49 2.49 0 0 0-.2-.32 1.84 1.84 0 0 0-.27-.29 7.63 7.63 0 0 0-1.09-.83.48.48 0 0 0-.3-.11h-.06a.18.18 0 0 0-.07.05.22.22 0 0 0-.07.09.66.66 0 0 0-.06.12 3.81 3.81 0 0 0-.18.47 3.89 3.89 0 0 0-.12.49 5 5 0 0 1 .3-.93c.09-.22.21-.32.39-.26h.14c.29.2.57.38.83.59a2.4 2.4 0 0 1 .91 1.38 4 4 0 0 1 .1.5.62.62 0 0 1 0 .13 2.45 2.45 0 0 1 0 .28 1.43 1.43 0 0 1 0 .22 1 1 0 0 1-.07.21v.14a1.08 1.08 0 0 1-.68.48l.25-.08.18-.12a.1.1 0 0 0 .06-.05l.06-.06a.92.92 0 0 0 .18-.3l.06-.19a1.3 1.3 0 0 0 0-.21v-.32a2.48 2.48 0 0 1-.01-.2z"/></svg>