<?xml version="1.0" standalone="no"?>
<!DOCTYPE svg PUBLIC "-//W3C//DTD SVG 20010904//EN"
 "http://www.w3.org/TR/2001/REC-SVG-20010904/DTD/svg10.dtd">
<svg version="1.0" xmlns="http://www.w3.org/2000/svg"
 width="512.000000pt" height="512.000000pt" viewBox="0 0 512.000000 512.000000"
 preserveAspectRatio="xMidYMid meet">
<metadata>
Created by potrace 1.11, written by Peter Selinger 2001-2013
</metadata>
<g transform="translate(0.000000,512.000000) scale(0.100000,-0.100000)"
fill="#000000" stroke="none">
<path d="M400 4305 l0 -75 245 0 245 0 1 -1032 c0 -568 2 -1053 5 -1078 10
-84 44 -222 74 -298 57 -148 166 -292 305 -405 103 -83 319 -212 453 -270 l64
-27 -39 37 c-91 88 -153 215 -169 346 -3 23 -8 56 -11 72 -3 17 -7 621 -10
1343 l-5 1312 311 0 311 0 1 23 c1 12 1 45 1 72 l0 50 -891 3 -891 2 0 -75z"/>
<path d="M2900 4305 c0 -71 1 -75 23 -75 12 -1 152 -2 312 -3 l290 -2 -1
-1050 c0 -964 -4 -1177 -19 -1253 -24 -111 -57 -202 -102 -280 l-26 -43 -65
98 c-184 278 -364 428 -594 494 -85 24 -287 34 -382 18 -229 -38 -422 -177
-508 -366 -19 -42 -22 -66 -22 -183 0 -124 2 -141 27 -205 61 -154 152 -252
306 -329 98 -50 190 -79 321 -102 104 -19 400 -4 539 27 43 10 44 9 95 -39
142 -134 308 -224 496 -268 64 -15 296 -21 350 -9 14 3 39 8 55 11 56 10 179
57 249 94 296 159 415 378 430 789 2 52 2 100 0 106 -4 10 -99 14 -108 4 -2
-2 -7 -59 -10 -127 -3 -68 -7 -126 -10 -130 -2 -4 -7 -29 -10 -56 -4 -27 -9
-53 -11 -56 -2 -4 -7 -21 -10 -39 -19 -107 -114 -234 -233 -309 -96 -61 -150
-77 -267 -77 -94 1 -105 3 -178 37 -86 41 -177 120 -227 198 -16 26 -30 49
-30 53 0 3 37 28 83 56 313 189 473 430 523 786 4 28 8 523 8 1100 l1 1050
205 2 c113 1 223 2 245 3 l40 0 -2 58 c-1 31 -2 65 -2 75 -1 16 -50 17 -891
17 l-890 0 0 -75z m-493 -2316 c151 -51 246 -170 376 -469 30 -69 68 -154 85
-189 17 -36 29 -68 26 -72 -5 -9 -92 -35 -144 -44 -19 -3 -43 -8 -52 -11 -25
-7 -206 -8 -253 0 -115 18 -188 41 -261 81 -151 84 -238 221 -236 374 2 167
104 304 255 342 52 13 148 7 204 -12z"/>
</g>
</svg>
