<?xml version="1.0" encoding="utf-8"?>
<!-- Generator: Adobe Illustrator 23.0.2, SVG Export Plug-In . SVG Version: 6.00 Build 0)  -->
<svg version="1.1" id="Layer_1" xmlns="http://www.w3.org/2000/svg" xmlns:xlink="http://www.w3.org/1999/xlink" x="0px" y="0px"
	 viewBox="0 0 236.9 222.4" style="enable-background:new 0 0 236.9 222.4;" xml:space="preserve">
<style type="text/css">
	.st0{fill-rule:evenodd;clip-rule:evenodd;}
</style>
<title>client-logos-2017</title>
<g>
	<g id="czi_mark">
		<g id="Clip-2">
		</g>
		<path id="Fill-1" class="st0" d="M114.4,111.3c-4.2,0.1-7.4-2.7-7.7-6.8c-0.1-2.2,0.6-4.3,2.1-5.9c1.5-1.6,3.5-2.5,5.7-2.5
			c1.1,0,2.3,0.2,3.3,0.7c0,0-0.3,2.3-0.4,3.3h3.5l0.7-5.2l-1-0.6c-1.8-1.1-3.9-1.7-6.1-1.7c-3.1,0-6.2,1.4-8.3,3.6
			c-2.2,2.3-3.2,5.3-3,8.5c0.2,2.8,1.4,5.4,3.4,7.2c2,1.8,4.7,2.9,7.7,2.8c0.1,0,0.1,0,0.2,0c1.8-0.1,3.8-0.4,6-1.2l2.5-4.9
			c0,0-0.1-0.1-0.4,0.1C120.4,110.3,117.9,111.3,114.4,111.3z"/>
		<path id="Fill-3" class="st0" d="M133.6,126c-0.2,1.8-1.1,3.3-2.6,4.1c-1.1,0.6-2.4,0.6-3.5,0c-1.2-0.7-1.7-1.6-1.9-2.8
			c-0.3-1.9,0.8-3.9,2.2-4.9l23.1-15c0.2,1.2,0.3,2.6,0.3,3.9c0,15.5-12.7,28.2-28.1,28.2c-15.5,0-28.1-12.7-28.1-28.2
			s12.7-28.2,28.1-28.2c11.6,0,21.6,7.1,25.9,17.1l2.8-1.8c-4.9-11-15.9-18.6-28.7-18.6c-17.4,0-31.5,14.1-31.5,31.5
			s14.1,31.5,31.5,31.5s31.5-14.1,31.5-31.5c0-2-0.2-3.9-0.5-5.8c-0.2-1.2-0.7-2.9-0.8-3.1l-6.6,4.1l-8.7,5.5c-0.3-1.2-1-2.3-2.5-3
			c-1.8-0.8-4.6-0.2-6.7,1c0,0,5.7-11.1,6.7-12.9c0.1-0.1,0-0.3-0.1-0.3h-0.3h-10.4l-0.5,3.5h1.6h4.2l-8.2,15.7
			c-0.1,0.3,0.2,0.7,0.5,0.5l4.4-2.3c2.1-1,5.6-3.3,7.3-2c0.3,0.2,0.6,0.7,0.6,1.2c0,0.2-0.1,0.4-0.3,0.5l-8.7,5.9
			c-2.8,2-3.9,5.1-3.7,7.9c0.2,2.4,1.7,4.5,3.9,5.6c1.2,0.7,2.4,0.9,3.7,0.9c1.1,0,2.2-0.3,3.2-0.9c2.5-1.3,4.1-3.9,4.4-6.8l0.7-7.9
			l-3.8,2.8L133.6,126z"/>
	</g>
</g>
</svg>
