<svg id="Layer_1" data-name="Layer 1" xmlns="http://www.w3.org/2000/svg" viewBox="0 0 236.88 222.39"><title>client-logos-2017</title><path d="M118.44,83.47c8.38,0,9.37,0,12.68.18a17.36,17.36,0,0,1,5.83,1.08,10.39,10.39,0,0,1,6,6A17.36,17.36,0,0,1,144,96.51c.15,3.31.18,4.3.18,12.68s0,9.37-.18,12.68a17.36,17.36,0,0,1-1.08,5.83,10.39,10.39,0,0,1-6,6,17.36,17.36,0,0,1-5.83,1.08c-3.31.15-4.3.18-12.68.18s-9.37,0-12.68-.18a17.36,17.36,0,0,1-5.83-1.08,10.39,10.39,0,0,1-6-6,17.36,17.36,0,0,1-1.08-5.83c-.15-3.31-.18-4.3-.18-12.68s0-9.37.18-12.68A17.36,17.36,0,0,1,94,90.69a10.39,10.39,0,0,1,6-6,17.36,17.36,0,0,1,5.83-1.08c3.31-.15,4.3-.18,12.68-.18m0-5.65c-8.52,0-9.59,0-12.94.19a23,23,0,0,0-7.62,1.46,16,16,0,0,0-9.18,9.18,23,23,0,0,0-1.46,7.62c-.15,3.35-.19,4.42-.19,12.94s0,9.59.19,12.94a23,23,0,0,0,1.46,7.62,16,16,0,0,0,9.18,9.18,23,23,0,0,0,7.62,1.46c3.35.15,4.42.19,12.94.19s9.59,0,12.94-.19a23,23,0,0,0,7.62-1.46,16,16,0,0,0,9.18-9.18,23,23,0,0,0,1.46-7.62c.15-3.35.19-4.42.19-12.94s0-9.59-.19-12.94a23,23,0,0,0-1.46-7.62A16,16,0,0,0,139,79.46,23,23,0,0,0,131.38,78c-3.35-.15-4.42-.19-12.94-.19Z"/><path d="M118.44,93.08a16.11,16.11,0,1,0,16.11,16.11A16.11,16.11,0,0,0,118.44,93.08Zm0,26.57a10.46,10.46,0,1,1,10.46-10.46A10.46,10.46,0,0,1,118.44,119.65Z"/><circle cx="135.19" cy="92.44" r="3.77"/></svg>