<svg id="Layer_1" data-name="Layer 1" xmlns="http://www.w3.org/2000/svg" viewBox="0 0 236.88 222.39"><title>client-logos-2017</title><path d="M105,129.81c1.62.07,3.11.12,4.59.23a1.79,1.79,0,0,1,.8.46,2.1,2.1,0,0,0,1.48.68l-1-4-4.49.27-1.38-12.05,2.3.7c-.06-.23-.09-.42-.15-.6l-8.24-28.1c-.26-.88-.52-1.76-.77-2.64-.09-.33-.23-.46-.63-.41a49.16,49.16,0,0,1-8.84.51A11.35,11.35,0,0,1,84.3,84a2.65,2.65,0,0,1-1.64-3.25,4.38,4.38,0,0,1,1-1.5,15.09,15.09,0,0,1,4.73-3.15c2.46-1.15,5-2.18,7.48-3.25a1.51,1.51,0,0,0,.64-1.44c-.06-.13-.25-.21-.39-.29a58.61,58.61,0,0,1-7.16-4.6,13.89,13.89,0,0,1-3.06-3,3,3,0,0,1-.58-2.74A2.76,2.76,0,0,1,88,58.87a18.72,18.72,0,0,1,5.38.36c2.69.52,5.35,1.13,8,1.72a.69.69,0,0,0,.75-.21,23.19,23.19,0,0,1,33.11-.11,6.26,6.26,0,0,1,.93,1,1.11,1.11,0,0,0,1.31.48,60.9,60.9,0,0,1,10.08-.81,28.76,28.76,0,0,1,4.17.46,4,4,0,0,1,1.61.75,2.26,2.26,0,0,1,.52,3.2,8.48,8.48,0,0,1-2.4,2.25A47.8,47.8,0,0,1,143,72.4a9.41,9.41,0,0,1-1.16.47c-.45.12-.53.37-.49.8.08.75.06,1.5.13,2.25a.73.73,0,0,0,.32.46c2.43,1.5,4.89,2.95,7.29,4.5a15.3,15.3,0,0,1,3.76,3.36,5.94,5.94,0,0,1,.67,1.05,2.49,2.49,0,0,1-1.32,3.57,10,10,0,0,1-4.63.53A58.23,58.23,0,0,1,135.4,87a202.82,202.82,0,0,1-27.84-10.23c-1.91-.86-3.8-1.79-5.7-2.67a.9.9,0,0,0-.6-.08,86.12,86.12,0,0,0-12.74,5.29c-.72.39-1.4.85-2.08,1.3a6.87,6.87,0,0,0-.71.62v.17c.83.13,1.65.34,2.48.39a44.43,44.43,0,0,0,8.45-.41.67.67,0,0,0,.14-.07c-.1-.45-.23-.91-.3-1.38,0-.13.06-.38.16-.42,1.27-.46,2.55-.88,3.86-1.33a17,17,0,0,0,3.36,7.35c.77.95,1.69,1.78,2.54,2.67l.18-.11-1.09-8.52c.68.3,1.28.55,1.86.84.08,0,.11.23.13.35.36,2.75.73,5.5,1.07,8.25a.61.61,0,0,0,.44.57,10.92,10.92,0,0,0,11.51-1.79c.51-.4.95-.89,1.44-1.32a.57.57,0,0,1,.45-.12q6.47,2,12.94,4a1.41,1.41,0,0,1,.2.15c-.33.29-.63.59-1,.85-1.37,1-2.74,2.07-4.12,3.09a.87.87,0,0,0-.44.66q-.82,6.74-1.68,13.47c-.35,2.78-.69,5.57-1.08,8.35-.08.58.19.86.65,1.2L136,90.58l1.77.44c-.18.64-.35,1.26-.53,1.88q-3.87,13.18-7.76,26.37a.82.82,0,0,0,.22.92,27.32,27.32,0,0,1,4.43,6.64c0,.07.06.15.11.28l-2.86.28c-1.38.13-2.76.25-4.14.4a.53.53,0,0,0-.38.28c-.36,1.21-.69,2.44-1.06,3.79H128c1.14,0,2.28.12,3.41,0a22.81,22.81,0,0,0,2.85-.54c.87-.18,1.73-.37,2.6-.53.14,0,.3.11.45.17-.09.13-.16.34-.28.38-1.24.49-2.48,1-3.75,1.4a2.52,2.52,0,0,0-1.92,1.74,4.25,4.25,0,0,1-.45.84,3.87,3.87,0,0,1-2.78,2.09c-3,.57-5.92,1.21-8.89,1.77-2.08.39-4.18.73-6.27,1-1.61.24-2.05,0-2.69-1.48a1.58,1.58,0,0,0-1.6-1.19,2.5,2.5,0,0,1-1.74-1,7.89,7.89,0,0,1-1.78-4.33C105,131.47,105,130.67,105,129.81Zm21.15-59.44a58.47,58.47,0,0,1,14-2.06l.59,1.79A46,46,0,0,0,151,64.63a12,12,0,0,0-3.75-.32c-3,.22-6,.36-9,.81-4.57.69-9.13,1.49-13.64,2.46s-8.72,2.13-13.06,3.25c-2,.51-3.89,1.13-5.84,1.7a181,181,0,0,0,19.67,8.19c.21-.75.42-1.43.58-2.13A19.7,19.7,0,0,0,126.12,70.36Zm-11.75,39.18a56.52,56.52,0,0,1,11.2,6.54l2.55-20.34a7.26,7.26,0,0,0-3.88,3,7.76,7.76,0,0,0-1.09,3.14,1.23,1.23,0,0,1-1.28,1.23c-2.09,0-4.18,0-6.27,0a1.12,1.12,0,0,1-1.11-.78,3.6,3.6,0,0,1-.22-.82,6.87,6.87,0,0,0-1.93-3.93,6.62,6.62,0,0,0-2.85-1.81c0,.21,0,.36,0,.51q.5,3.93,1,7.85c.59,4.52,1.19,9,1.75,13.56a1.55,1.55,0,0,0,.78,1.26c.82.53,1.57,1.16,2.38,1.78Zm-8.22-40.38,17.69-4.63a1.25,1.25,0,0,0-.11-.21c-.42-.58-.81-1.19-1.27-1.74-2.86-3.32-6.37-5-10.85-4.45a4.4,4.4,0,0,0-4.08,3.21,35.59,35.59,0,0,0-1,4C106.31,66.64,106.26,67.93,106.15,69.16Zm4.25,48.23c0-.1,0-.2,0-.3l-1.26-9.68q-.8-6.16-1.61-12.31a.76.76,0,0,0-.32-.49,23.16,23.16,0,0,1-4.35-3.28c-.43-.42-.85-.85-1.35-1.35l.18.6q3.78,12.84,7.54,25.68A1.41,1.41,0,0,0,110.4,117.4Zm5.84-5c0,.28,0,.45,0,.61q.42,4.31.85,8.62a4,4,0,0,0,.24,1.46,27.61,27.61,0,0,0,1.59,2.38l.25-.14a8.31,8.31,0,0,0,3.56-8.4.94.94,0,0,0-.34-.51c-1.06-.8-2.12-1.63-3.23-2.36C118.24,113.41,117.25,112.93,116.24,112.36Zm34.39-25.91c-.83-1.57-7.27-6.19-9.47-6.9L139.55,85a52,52,0,0,0,8.75,1.52C149.05,86.57,149.81,86.48,150.63,86.45Zm-42.5,38.93,8-.51c-2.25-3.29-5-5.72-9-6.66ZM97.27,68.31l2.42-4.72c-3.7-.81-7.4-1.82-11.3-1.72C90.89,64.7,94.16,66.42,97.27,68.31ZM113.53,127c.17,1.39.33,2.72.53,4.06,0,.11.27.26.42.26,1.92.11,3.83.21,5.75.27,1.15,0,2.29,0,3.49,0l.44-3.53-7.9.72-.22-2Zm-8-65.83a16.83,16.83,0,0,0-5,8.88c1,.69,1,.7,2.07.36.43-.14.85-.29,1.29-.41s.42-.24.45-.59c.1-1.6.2-3.19.41-4.78C105,63.47,105.29,62.35,105.55,61.15Z"/><path d="M121.5,160.63v-5.54h2v9.51a1.06,1.06,0,0,1-1.18-.34c-1.63-1.74-3.3-3.45-5-5.26v5.61h-2V155.1a1,1,0,0,1,1.06.28c1.6,1.68,3.21,3.35,4.83,5l.26.28Z"/><path d="M75.41,155.1a1,1,0,0,1,1.14.35c1.55,1.64,3.12,3.25,4.68,4.88a1,1,0,0,0,.43.31v-5.56h2v9.52a1.1,1.1,0,0,1-1.18-.36c-1.57-1.68-3.19-3.33-4.79-5-.05-.06-.12-.1-.25-.21v5.57h-2Z"/><path d="M108.66,164.65c-.68,0-1.27,0-1.85,0a.6.6,0,0,1-.4-.33c-.48-1.11-.47-1.11-1.67-1.11H102c-.15.38-.28.77-.45,1.15-.06.13-.21.29-.32.29-.61,0-1.23,0-1.91,0,.07-.21.11-.37.17-.51,1.11-2.88,2.23-5.76,3.32-8.64.12-.33.27-.48.64-.45s1.11-.12,1.46.11.4.85.57,1.3l2.93,7.61C108.51,164.23,108.57,164.4,108.66,164.65ZM104,157.86l-1.26,3.26h2.48Z"/><path d="M161.47,156.42l-1.3,1.47c-1.76-1-3.27-1-4.19.17a3,3,0,0,0,.14,3.75c1,1,2.58,1,4,0l1.3,1.47a4.84,4.84,0,0,1-6.6.16,5.13,5.13,0,0,1-.19-6.95A4.86,4.86,0,0,1,161.47,156.42Z"/><path d="M138.18,155.08V157h-3v7.65h-2V157h-3v-1.93Z"/><path d="M90.83,164.61v-9.52h1.92v9.52Z"/><path d="M146.74,164.62h-1.92v-9.53h1.92Z"/></svg>