<?xml version="1.0" encoding="utf-8"?>
<!-- Generator: Adobe Illustrator 23.0.2, SVG Export Plug-In . SVG Version: 6.00 Build 0)  -->
<svg version="1.1" id="Layer_1" xmlns="http://www.w3.org/2000/svg" xmlns:xlink="http://www.w3.org/1999/xlink" x="0px" y="0px"
	 viewBox="0 0 236.9 222.4" style="enable-background:new 0 0 236.9 222.4;" xml:space="preserve">
<title>client-logos-2017</title>
<path d="M115.5,122.3l-0.4,0.1c-2.4,0.8-5.9,2-9,3.5c-0.1,0.1-0.2,0.2-0.3,0.3c-0.1,0.1-0.1,0.3-0.2,0.5l0,0c-0.4,0.8-0.8,2-1.1,2.5
	l-0.1,0.4c0,0.1,0,0.1,0.1,0.2c0,0,0.1,0.1,0.1,0.1h0.1l0.4-0.2c0.9-0.4,1.9-1,3.1-1.6h0.1c2.2-1,4.6-2.2,6.1-2.9
	c0.1-0.1,0.3-0.2,0.4-0.4l1.1-2.2c0-0.1,0-0.1,0-0.2C115.7,122.3,115.6,122.2,115.5,122.3"/>
<path d="M106.6,118.8c0.2-0.3,0.9-1.7,1.1-2l0.1-0.1c4.8-9.1,10.7-17.7,17.4-25.4l0.2-0.2c0.1-0.1,0.1-0.3,0-0.3
	c-0.1-0.1-0.1-0.1-0.2-0.1l-0.3,0.1c-4.5,0.6-8.9,1.4-13.3,2.5c-0.3,0.1-0.6,0.3-0.8,0.5c-3.3,4-6.4,8.1-9.3,12.4
	c-0.1,0.2-0.1,0.8-0.1,0.8s0.7,5.6,1.8,9.7c-2.6,7.5-5,17.4-5,17.4c0,0.1,0,0.1,0.1,0.2c0.1,0.1,0.1,0.1,0.2,0.1h1.5
	c0.1,0,0.2-0.1,0.2-0.1l0.1-0.3c1.5-4.1,3.3-8.2,5.2-12.2C105.7,120.7,106.6,118.8,106.6,118.8"/>
<path d="M127.4,92.9v-0.3c0-0.1-0.1-0.2-0.1-0.2c-0.1-0.1-0.2,0-0.3,0.1l-0.2,0.2c-7.9,9.1-14.5,19.2-19.7,30L107,123
	c-0.1,0.1,0,0.2,0.1,0.3c0.1,0.1,0.1,0.1,0.1,0.1h0.1l0.3-0.1c4.4-1.8,8.9-3.4,13.4-4.7c0.3-0.1,0.5-0.3,0.6-0.5
	c1.9-3.8,6.5-11.2,6.5-11.2c0.1-0.1,0.1-0.3,0.1-0.4C128.2,106.3,127.4,97.4,127.4,92.9"/>
<path d="M137.5,80.1c-1.1-0.9-2.8-1.4-5.3-1.5c-2.3-0.1-5,0.4-8.1,1.4c-0.4,0.2-0.8,0.4-1.1,0.8c-3.1,3-6.2,6-9,9.3l-0.2,0.3
	c-0.1,0.1-0.1,0.3,0,0.3c0.1,0.1,0.1,0.1,0.2,0.1l0.3-0.1c4.6-1,9.2-1.8,13.9-2.3c0.3-0.1,0.6,0.1,0.8,0.3c0.3,0.2,0.4,0.5,0.4,0.8
	c-0.1,4.5,0.1,9.1,0.5,13.6v0.3c0,0.1,0.1,0.2,0.2,0.2h0.1c0.1,0,0.1-0.1,0.2-0.1l0.2-0.3c2.6-3.7,5.4-7.3,8.4-10.7l0,0
	c0.3-0.3,0.4-0.6,0.5-0.9C140.2,85.7,138.8,81.3,137.5,80.1"/>
</svg>
