<?xml version="1.0" encoding="utf-8"?>
<!-- Generator: Adobe Illustrator 23.0.2, SVG Export Plug-In . SVG Version: 6.00 Build 0)  -->
<svg version="1.1" id="Layer_1" xmlns="http://www.w3.org/2000/svg" xmlns:xlink="http://www.w3.org/1999/xlink" x="0px" y="0px"
	 viewBox="0 0 236.9 222.4" style="enable-background:new 0 0 236.9 222.4;" xml:space="preserve">
<style type="text/css">
	.st0{fill:#231F20;}
</style>
<title>client-logos-2017</title>
<g>
	<path class="st0" d="M111.9,110.5c0,0.5-0.2,0.9-0.6,1.2c-1.5,1-3.1,0-3.1-1.4V95.4H97.1V114c0,5.1,4.2,9.3,9.3,9.3
		c2.2,0,4.3-0.8,6-2.2c-0.2,1.4-0.9,2.5-2.2,3.3c-1.2,0.7-2.7,1.1-4.4,1.1c-1.8,0-3.6-0.4-5.2-1.2c0,0-0.3-0.1-0.7-0.4v9.9
		c2.5,1,5.2,1.5,7.8,1.5c4.2,0,7.9-1.3,10.7-3.7c3.1-2.6,4.7-6.5,4.7-11.2v-25h-11.1V110.5z"/>
	<path class="st0" d="M94.3,114V84.3H83.2v27.8c0,7.6,5,11.1,9.7,11.1h0c1.4,0,2.8-0.3,4-0.9c0.2-0.1,0.5-0.3,0.5-0.3
		s-0.3-0.3-0.4-0.4C95.3,119.6,94.3,117,94.3,114z"/>
	<path class="st0" d="M159.2,106.5V95.4h-4c-1.7-8.7-10.8-14.5-20.1-11c-5.1,1.9-9.3,8.1-9.3,13.6v24.6v0.2v0.5h0.4c0,0,0,0,0,0
		c0,0,0,0,0,0c2.9-0.1,5.5-1.3,7.5-3.4c2-2.1,3.1-4.8,3.1-7.7h4.6V101h-4.6v-3.1c0-1.2,0.6-2.3,1.7-2.9c2.8-1.6,5.7,0.5,5.7,3.2
		v10.2c0,4,1.5,7.8,4.3,10.5c2.6,2.6,6.2,4.2,10.1,4.3c0,0,0,0,0,0c0,0,0,0,0,0v0h0.5v-0.5v-0.5v-10.2c0,0,0,0,0,0
		c-2.1,0-3.7-1.7-3.7-3.7v-1.9H159.2z"/>
</g>
</svg>
