<svg id="Layer_1" data-name="Layer 1" xmlns="http://www.w3.org/2000/svg" viewBox="0 0 236.88 222.39"><title>client-logos-2017</title><path d="M95.19,97a4,4,0,0,0-4,4v16.62a4,4,0,1,0,7.94,0V101a4,4,0,0,0-4-4m32-14.93L130,77a.55.55,0,1,0-1-.53l-2.8,5.11a19.34,19.34,0,0,0-15.54,0l-2.8-5.1a.55.55,0,1,0-1,.53l2.77,5.06a16.21,16.21,0,0,0-9.12,14.3h35.76A16.22,16.22,0,0,0,127.2,82.1m-16.9,7.82a1.5,1.5,0,1,1,1.5-1.5,1.5,1.5,0,0,1-1.5,1.5m16.28,0a1.5,1.5,0,1,1,1.5-1.5,1.5,1.5,0,0,1-1.5,1.5M100.7,97.77v25.76a4.23,4.23,0,0,0,4.24,4.24h2.88v8.8a4,4,0,1,0,7.94,0v-8.79h5.36v8.8a4,4,0,1,0,7.94,0v-8.79H132a4.24,4.24,0,0,0,4.24-4.24V97.77Zm45,3.21a4,4,0,1,0-7.94,0v16.62a4,4,0,1,0,7.94,0Z"/></svg>